<?xml version="1.0" encoding="UTF-8" standalone="no"?>
<svg width="283.465px" height="425.196px" viewBox="0 0 283.465 425.196"
 xmlns="http://www.w3.org/2000/svg" xmlns:xlink="http://www.w3.org/1999/xlink" version="1.2" baseProfile="tiny">
<title>Bb6</title>
<desc>Generated by MuseScore 3.4.2</desc>
<polyline class="StaffLines" fill="none" stroke="#000000" stroke-width="2.00" stroke-linejoin="bevel" points="0,175.011 283.465,175.011"/>
<polyline class="StaffLines" fill="none" stroke="#000000" stroke-width="2.00" stroke-linejoin="bevel" points="0,200.013 283.465,200.013"/>
<polyline class="StaffLines" fill="none" stroke="#000000" stroke-width="2.00" stroke-linejoin="bevel" points="0,225.014 283.465,225.014"/>
<polyline class="StaffLines" fill="none" stroke="#000000" stroke-width="2.00" stroke-linejoin="bevel" points="0,250.016 283.465,250.016"/>
<polyline class="StaffLines" fill="none" stroke="#000000" stroke-width="2.00" stroke-linejoin="bevel" points="0,275.017 283.465,275.017"/>
<polyline class="BarLine" fill="none" stroke="#000000" stroke-width="4.00" stroke-linejoin="bevel" points="281.465,174.011 281.465,276.017"/>
<path class="Accidental" d="M115.677,133.407 L115.677,141.122 C115.677,143.856 115.807,146.037 116.068,147.665 C118.216,145.842 119.746,144.475 120.658,143.563 C121.699,142.522 122.741,141.089 123.783,139.266 C124.824,137.444 125.345,135.621 125.345,133.798 C125.345,131.975 124.955,130.412 124.173,129.11 C123.392,127.808 122.35,127.157 121.048,127.157 C119.486,127.157 118.184,127.743 117.142,128.915 C116.165,130.217 115.677,131.714 115.677,133.407 M111.576,151.278 L110.306,91.8055 C111.218,91.2847 112.129,91.0243 113.04,91.0243 C113.952,91.0243 114.863,91.2847 115.775,91.8055 L114.994,126.278 C117.663,124 120.723,122.86 124.173,122.86 C126.712,122.86 128.828,123.902 130.521,125.985 C132.214,128.069 133.06,130.445 133.06,133.114 C133.06,134.807 132.507,136.597 131.4,138.485 C130.358,140.243 129.251,141.61 128.08,142.587 C127.429,143.108 125.768,144.41 123.099,146.493 C122.318,147.079 121.39,147.763 120.316,148.544 C119.242,149.325 118.574,149.813 118.314,150.009 C117.858,150.269 117.435,150.79 117.044,151.571 C116.589,152.222 116.068,152.776 115.482,153.231 C115.026,153.622 114.473,153.817 113.822,153.817 C113.171,153.817 112.65,153.589 112.259,153.134 C111.804,152.678 111.576,152.059 111.576,151.278"/>
<polyline class="LedgerLine" fill="none" stroke="#000000" stroke-width="4.00" stroke-linecap="square" stroke-linejoin="bevel" points="136.261,150.009 184.178,150.009"/>
<polyline class="Stem" fill="none" stroke="#000000" stroke-width="3.25" stroke-linecap="round" stroke-linejoin="bevel" points="145.386,142.204 145.386,225.014"/>
<path class="Note" d="M165.734,123.739 C168.859,123.739 171.496,124.553 173.644,126.181 C175.662,127.938 176.671,130.152 176.671,132.821 C176.671,137.313 174.36,141.513 169.738,145.419 C165.05,149.325 160.037,151.278 154.699,151.278 C151.574,151.278 148.937,150.464 146.789,148.837 C144.77,147.079 143.761,144.865 143.761,142.196 C143.761,137.704 146.105,133.505 150.793,129.599 C155.35,125.692 160.33,123.739 165.734,123.739"/>
<path class="Clef" d="M56.72,224.43 C56.72,224.43 56.9153,224.43 57.3059,224.43 C57.5664,224.365 57.7942,224.332 57.9895,224.332 C65.2812,224.332 71.2708,226.904 75.9583,232.047 C80.6458,237.125 82.9895,243.05 82.9895,249.82 C82.9895,258.219 79.5065,265.055 72.5403,270.328 C70.7174,271.761 68.3411,272.932 65.4114,273.844 C65.7369,278.076 65.8997,281.494 65.8997,284.098 C65.8997,284.619 65.8346,286.507 65.7044,289.762 C65.444,295.817 63.3606,301.057 59.4544,305.484 C55.6783,309.846 50.9908,312.027 45.3919,312.027 C40.1184,312.027 35.6263,310.172 31.9153,306.461 C28.2044,302.685 26.3489,298.128 26.3489,292.789 C26.3489,289.99 27.4231,287.613 29.5716,285.66 C31.7851,283.707 34.3567,282.731 37.2864,282.731 C39.8906,282.731 42.0716,283.74 43.8294,285.758 C45.6523,287.646 46.5638,289.99 46.5638,292.789 C46.5638,295.328 45.6523,297.509 43.8294,299.332 C42.0065,301.155 39.8255,302.067 37.2864,302.067 C36.2447,302.067 35.2356,301.871 34.2591,301.481 C37.1237,305.712 40.9322,307.828 45.6849,307.828 C50.177,307.828 53.8554,306.005 56.72,302.359 C59.7148,298.583 61.3424,294.189 61.6028,289.176 C61.733,286.051 61.7981,284.261 61.7981,283.805 C61.7981,280.159 61.6679,277.164 61.4075,274.82 C58.1523,275.341 55.2552,275.602 52.7161,275.602 C43.6666,275.602 35.9518,272.021 29.5716,264.859 C23.3216,257.633 20.1966,249.039 20.1966,239.078 C20.1966,236.995 20.3919,234.879 20.7825,232.731 C21.1731,230.973 21.6614,229.052 22.2474,226.969 C22.5729,225.797 23.4518,223.909 24.8841,221.305 C25.4049,220.524 25.9908,219.547 26.6419,218.375 C27.2929,217.203 27.7487,216.422 28.0091,216.031 C28.6601,214.729 29.9296,212.971 31.8177,210.758 C32.3385,210.172 32.8756,209.521 33.429,208.805 C33.9824,208.089 34.4544,207.503 34.845,207.047 C35.2356,206.591 35.5286,206.233 35.7239,205.973 C35.9192,205.712 37.3841,203.987 40.1184,200.797 C40.7695,200.146 41.4043,199.446 42.0227,198.697 C42.6412,197.949 43.1458,197.363 43.5364,196.94 C43.927,196.516 44.22,196.207 44.4153,196.012 C42.0716,188.264 40.6067,182.08 40.0208,177.457 C39.5651,173.746 39.3372,168.668 39.3372,162.223 C39.3372,156.559 40.6393,151.253 43.2434,146.305 C45.7825,141.162 49.3307,136.962 53.888,133.707 C54.1484,133.512 54.4739,133.414 54.8645,133.414 C55.3203,133.414 55.6458,133.512 55.8411,133.707 C59.3567,137.939 62.3841,143.44 64.9231,150.211 C67.5273,156.982 68.8294,163.134 68.8294,168.668 C68.8294,174.918 67.332,180.777 64.3372,186.246 C60.9518,192.04 56.5898,198.03 51.2513,204.215 C52.6184,208.512 54.4414,215.25 56.72,224.43 M65.0208,269.84 C68.4062,268.603 71.0429,266.487 72.9309,263.492 C75.0143,260.628 76.0559,257.405 76.0559,253.824 C76.0559,249.202 74.4934,245.1 71.3684,241.52 C68.1783,237.809 64.1093,235.725 59.1614,235.27 C61.9609,249.007 63.914,260.53 65.0208,269.84 M27.2278,247.281 C27.2278,253.727 29.832,259.391 35.0403,264.274 C40.3789,269.026 46.3684,271.402 53.0091,271.402 C55.7434,271.402 58.4127,271.207 61.0169,270.817 C59.9752,260.921 57.9244,249.072 54.8645,235.27 C51.1536,235.66 48.1914,236.962 45.9778,239.176 C43.8294,241.455 42.7552,244.026 42.7552,246.891 C42.7552,251.839 45.3919,255.843 50.6653,258.902 C51.1211,259.358 51.3489,259.846 51.3489,260.367 C51.3489,260.888 51.1211,261.376 50.6653,261.832 C50.2747,262.288 49.7864,262.516 49.2005,262.516 C49.1354,262.516 48.8424,262.451 48.3216,262.32 C44.6106,260.302 41.7461,257.698 39.7278,254.508 C37.8398,251.123 36.8958,247.705 36.8958,244.254 C36.8958,239.762 38.2955,235.693 41.095,232.047 C44.0247,228.401 47.8333,226.057 52.5208,225.016 C50.6979,217.724 49.2005,212.027 48.0286,207.926 C46.9869,209.098 45.7337,210.514 44.2688,212.174 C42.804,213.834 41.9414,214.827 41.6809,215.152 C39.3372,218.212 37.5468,220.589 36.3099,222.281 C34.0963,225.341 32.4687,227.978 31.427,230.192 C30.3203,232.665 29.3437,235.367 28.4974,238.297 C27.651,241.096 27.2278,244.091 27.2278,247.281 M59.845,147.965 C54.9622,150.374 51.1211,153.824 48.3216,158.317 C45.457,162.939 44.0247,167.919 44.0247,173.258 C44.0247,177.945 45.1966,184.261 47.5403,192.203 C52.2278,186.539 55.7434,181.298 58.0872,176.481 C60.5612,171.402 61.7981,166.096 61.7981,160.563 C61.7981,156.396 61.1471,152.197 59.845,147.965"/>
<path class="OttavaSegment" d="M88.9513,70.1967 C91.1113,71.6367 92.6313,72.9167 93.5113,74.0367 C94.9913,76.0367 95.7313,78.2367 95.7313,80.6367 C95.7313,84.8367 94.1113,88.3167 90.8713,91.0767 C87.6313,93.8367 83.5113,95.2167 78.5113,95.2167 C74.3513,95.2167 71.0613,94.2967 68.6413,92.4567 C66.2213,90.6167 65.0113,88.1367 65.0113,85.0167 C65.0113,78.9367 68.9313,74.3967 76.7713,71.3967 C75.0513,70.1567 73.8113,68.8367 73.0513,67.4367 C72.2913,66.0367 71.9113,64.3367 71.9113,62.3367 C71.9113,58.4167 73.3413,55.1167 76.2013,52.4367 C79.0613,49.7567 82.5913,48.4167 86.7913,48.4167 C90.2713,48.4167 93.1413,49.3767 95.4013,51.2967 C97.6613,53.2167 98.7913,55.6367 98.7913,58.5567 C98.7913,61.9967 97.3513,64.8167 94.4713,67.0167 C93.3913,67.8967 91.5513,68.9567 88.9513,70.1967 M86.1313,68.6967 C86.5313,68.4967 86.8913,68.3367 87.2113,68.2167 C89.2113,67.2967 90.8213,65.9067 92.0413,64.0467 C93.2613,62.1867 93.8713,60.2367 93.8713,58.1967 C93.8713,56.1567 93.1613,54.4867 91.7413,53.1867 C90.3213,51.8867 88.4913,51.2367 86.2513,51.2367 C83.7313,51.2367 81.5713,52.0167 79.7713,53.5767 C77.9713,55.1367 77.0713,57.0167 77.0713,59.2167 C77.0713,61.0967 77.7613,62.7467 79.1413,64.1667 C80.5213,65.5867 82.8513,67.0967 86.1313,68.6967 M79.2313,73.1367 C79.2313,73.1367 78.8313,73.3167 78.0313,73.6767 C75.6313,74.7167 73.7413,76.1867 72.3613,78.0867 C70.9813,79.9867 70.2913,82.0367 70.2913,84.2367 C70.2913,86.7567 71.0913,88.7467 72.6913,90.2067 C74.2913,91.6667 76.4713,92.3967 79.2313,92.3967 C82.2713,92.3967 84.8313,91.5467 86.9113,89.8467 C88.9913,88.1467 90.0313,86.0567 90.0313,83.5767 C90.0313,80.5767 88.3713,78.0767 85.0513,76.0767 C83.9313,75.4367 81.9913,74.4567 79.2313,73.1367"/>
<polyline class="OttavaSegment" fill="none" stroke="#000000" stroke-dasharray="10.0006,5.00031" stroke-dashoffset="0" stroke-width="2.50" stroke-linecap="square" stroke-linejoin="bevel" points="111.278,71.8114 231.679,71.8114"/>
<polyline class="OttavaSegment" fill="none" stroke="#000000" stroke-dasharray="10.0006,5.00031" stroke-dashoffset="0" stroke-width="2.50" stroke-linecap="square" stroke-linejoin="bevel" points="231.679,71.8114 231.679,119.314"/>
</svg>
