<?xml version="1.0" encoding="UTF-8" standalone="no"?>
<svg width="283.465px" height="425.196px" viewBox="0 0 283.465 425.196"
 xmlns="http://www.w3.org/2000/svg" xmlns:xlink="http://www.w3.org/1999/xlink" version="1.2" baseProfile="tiny">
<title>f-major-triad-inverted</title>
<desc>Generated by MuseScore 3.4.2</desc>
<polyline class="StaffLines" fill="none" stroke="#000000" stroke-width="2.00" stroke-linejoin="bevel" points="0,175.011 283.465,175.011"/>
<polyline class="StaffLines" fill="none" stroke="#000000" stroke-width="2.00" stroke-linejoin="bevel" points="0,200.013 283.465,200.013"/>
<polyline class="StaffLines" fill="none" stroke="#000000" stroke-width="2.00" stroke-linejoin="bevel" points="0,225.014 283.465,225.014"/>
<polyline class="StaffLines" fill="none" stroke="#000000" stroke-width="2.00" stroke-linejoin="bevel" points="0,250.016 283.465,250.016"/>
<polyline class="StaffLines" fill="none" stroke="#000000" stroke-width="2.00" stroke-linejoin="bevel" points="0,275.017 283.465,275.017"/>
<polyline class="BarLine" fill="none" stroke="#000000" stroke-width="4.00" stroke-linejoin="bevel" points="281.465,174.011 281.465,276.017"/>
<polyline class="LedgerLine" fill="none" stroke="#000000" stroke-width="4.00" stroke-linecap="square" stroke-linejoin="bevel" points="127.954,300.019 192.474,300.019"/>
<path class="Note" d="M156.939,288.788 C154.595,288.788 152.903,289.602 151.861,291.23 C150.689,292.792 150.103,294.908 150.103,297.577 C150.103,300.637 150.917,303.274 152.545,305.488 C154.172,307.636 155.962,309.133 157.916,309.98 C159.673,310.826 161.529,311.249 163.482,311.249 C165.761,311.249 167.486,310.436 168.658,308.808 C169.765,307.18 170.318,305.064 170.318,302.46 C170.318,299.4 169.504,296.764 167.877,294.55 C166.249,292.467 164.491,290.969 162.603,290.058 C160.715,289.212 158.827,288.788 156.939,288.788 M160.259,286.249 C167.291,286.249 173.15,287.617 177.837,290.351 C182.59,293.085 184.966,296.308 184.966,300.019 C184.966,303.99 182.525,307.245 177.642,309.785 C172.759,312.454 166.965,313.788 160.259,313.788 C153.358,313.788 147.499,312.421 142.681,309.687 C137.864,306.952 135.455,303.73 135.455,300.019 C135.455,296.048 137.929,292.792 142.877,290.253 C147.759,287.584 153.554,286.249 160.259,286.249"/>
<path class="Note" d="M156.939,226.284 C154.595,226.284 152.903,227.098 151.861,228.726 C150.689,230.288 150.103,232.404 150.103,235.074 C150.103,238.133 150.917,240.77 152.545,242.984 C154.172,245.132 155.962,246.63 157.916,247.476 C159.673,248.322 161.529,248.745 163.482,248.745 C165.761,248.745 167.486,247.932 168.658,246.304 C169.765,244.676 170.318,242.561 170.318,239.956 C170.318,236.896 169.504,234.26 167.877,232.046 C166.249,229.963 164.491,228.465 162.603,227.554 C160.715,226.708 158.827,226.284 156.939,226.284 M160.259,223.745 C167.291,223.745 173.15,225.113 177.837,227.847 C182.59,230.581 184.966,233.804 184.966,237.515 C184.966,241.486 182.525,244.742 177.642,247.281 C172.759,249.95 166.965,251.284 160.259,251.284 C153.358,251.284 147.499,249.917 142.681,247.183 C137.864,244.449 135.455,241.226 135.455,237.515 C135.455,233.544 137.929,230.288 142.877,227.749 C147.759,225.08 153.554,223.745 160.259,223.745"/>
<path class="Note" d="M156.939,251.286 C154.595,251.286 152.903,252.1 151.861,253.727 C150.689,255.29 150.103,257.406 150.103,260.075 C150.103,263.135 150.917,265.772 152.545,267.985 C154.172,270.134 155.962,271.631 157.916,272.477 C159.673,273.324 161.529,273.747 163.482,273.747 C165.761,273.747 167.486,272.933 168.658,271.306 C169.765,269.678 170.318,267.562 170.318,264.958 C170.318,261.898 169.504,259.261 167.877,257.048 C166.249,254.964 164.491,253.467 162.603,252.556 C160.715,251.709 158.827,251.286 156.939,251.286 M160.259,248.747 C167.291,248.747 173.15,250.114 177.837,252.849 C182.59,255.583 184.966,258.806 184.966,262.517 C184.966,266.488 182.525,269.743 177.642,272.282 C172.759,274.951 166.965,276.286 160.259,276.286 C153.358,276.286 147.499,274.919 142.681,272.185 C137.864,269.45 135.455,266.227 135.455,262.517 C135.455,258.545 137.929,255.29 142.877,252.751 C147.759,250.082 153.554,248.747 160.259,248.747"/>
<path class="Clef" d="M56.72,224.43 C56.72,224.43 56.9153,224.43 57.3059,224.43 C57.5664,224.365 57.7942,224.332 57.9895,224.332 C65.2812,224.332 71.2708,226.904 75.9583,232.047 C80.6458,237.125 82.9895,243.05 82.9895,249.82 C82.9895,258.219 79.5065,265.055 72.5403,270.328 C70.7174,271.761 68.3411,272.932 65.4114,273.844 C65.7369,278.076 65.8997,281.494 65.8997,284.098 C65.8997,284.619 65.8346,286.507 65.7044,289.762 C65.444,295.817 63.3606,301.057 59.4544,305.484 C55.6783,309.846 50.9908,312.027 45.3919,312.027 C40.1184,312.027 35.6263,310.172 31.9153,306.461 C28.2044,302.685 26.3489,298.128 26.3489,292.789 C26.3489,289.99 27.4231,287.613 29.5716,285.66 C31.7851,283.707 34.3567,282.731 37.2864,282.731 C39.8906,282.731 42.0716,283.74 43.8294,285.758 C45.6523,287.646 46.5638,289.99 46.5638,292.789 C46.5638,295.328 45.6523,297.509 43.8294,299.332 C42.0065,301.155 39.8255,302.067 37.2864,302.067 C36.2447,302.067 35.2356,301.871 34.2591,301.481 C37.1237,305.712 40.9322,307.828 45.6849,307.828 C50.177,307.828 53.8554,306.005 56.72,302.359 C59.7148,298.583 61.3424,294.189 61.6028,289.176 C61.733,286.051 61.7981,284.261 61.7981,283.805 C61.7981,280.159 61.6679,277.164 61.4075,274.82 C58.1523,275.341 55.2552,275.602 52.7161,275.602 C43.6666,275.602 35.9518,272.021 29.5716,264.859 C23.3216,257.633 20.1966,249.039 20.1966,239.078 C20.1966,236.995 20.3919,234.879 20.7825,232.731 C21.1731,230.973 21.6614,229.052 22.2474,226.969 C22.5729,225.797 23.4518,223.909 24.8841,221.305 C25.4049,220.524 25.9908,219.547 26.6419,218.375 C27.2929,217.203 27.7487,216.422 28.0091,216.031 C28.6601,214.729 29.9296,212.971 31.8177,210.758 C32.3385,210.172 32.8756,209.521 33.429,208.805 C33.9824,208.089 34.4544,207.503 34.845,207.047 C35.2356,206.591 35.5286,206.233 35.7239,205.973 C35.9192,205.712 37.3841,203.987 40.1184,200.797 C40.7695,200.146 41.4043,199.446 42.0227,198.697 C42.6412,197.949 43.1458,197.363 43.5364,196.94 C43.927,196.516 44.22,196.207 44.4153,196.012 C42.0716,188.264 40.6067,182.08 40.0208,177.457 C39.5651,173.746 39.3372,168.668 39.3372,162.223 C39.3372,156.559 40.6393,151.253 43.2434,146.305 C45.7825,141.162 49.3307,136.962 53.888,133.707 C54.1484,133.512 54.4739,133.414 54.8645,133.414 C55.3203,133.414 55.6458,133.512 55.8411,133.707 C59.3567,137.939 62.3841,143.44 64.9231,150.211 C67.5273,156.982 68.8294,163.134 68.8294,168.668 C68.8294,174.918 67.332,180.777 64.3372,186.246 C60.9518,192.04 56.5898,198.03 51.2513,204.215 C52.6184,208.512 54.4414,215.25 56.72,224.43 M65.0208,269.84 C68.4062,268.603 71.0429,266.487 72.9309,263.492 C75.0143,260.628 76.0559,257.405 76.0559,253.824 C76.0559,249.202 74.4934,245.1 71.3684,241.52 C68.1783,237.809 64.1093,235.725 59.1614,235.27 C61.9609,249.007 63.914,260.53 65.0208,269.84 M27.2278,247.281 C27.2278,253.727 29.832,259.391 35.0403,264.274 C40.3789,269.026 46.3684,271.402 53.0091,271.402 C55.7434,271.402 58.4127,271.207 61.0169,270.817 C59.9752,260.921 57.9244,249.072 54.8645,235.27 C51.1536,235.66 48.1914,236.962 45.9778,239.176 C43.8294,241.455 42.7552,244.026 42.7552,246.891 C42.7552,251.839 45.3919,255.843 50.6653,258.902 C51.1211,259.358 51.3489,259.846 51.3489,260.367 C51.3489,260.888 51.1211,261.376 50.6653,261.832 C50.2747,262.288 49.7864,262.516 49.2005,262.516 C49.1354,262.516 48.8424,262.451 48.3216,262.32 C44.6106,260.302 41.7461,257.698 39.7278,254.508 C37.8398,251.123 36.8958,247.705 36.8958,244.254 C36.8958,239.762 38.2955,235.693 41.095,232.047 C44.0247,228.401 47.8333,226.057 52.5208,225.016 C50.6979,217.724 49.2005,212.027 48.0286,207.926 C46.9869,209.098 45.7337,210.514 44.2688,212.174 C42.804,213.834 41.9414,214.827 41.6809,215.152 C39.3372,218.212 37.5468,220.589 36.3099,222.281 C34.0963,225.341 32.4687,227.978 31.427,230.192 C30.3203,232.665 29.3437,235.367 28.4974,238.297 C27.651,241.096 27.2278,244.091 27.2278,247.281 M59.845,147.965 C54.9622,150.374 51.1211,153.824 48.3216,158.317 C45.457,162.939 44.0247,167.919 44.0247,173.258 C44.0247,177.945 45.1966,184.261 47.5403,192.203 C52.2278,186.539 55.7434,181.298 58.0872,176.481 C60.5612,171.402 61.7981,166.096 61.7981,160.563 C61.7981,156.396 61.1471,152.197 59.845,147.965"/>
</svg>
