<?xml version="1.0" encoding="UTF-8" standalone="no"?>
<svg width="283.465px" height="425.196px" viewBox="0 0 283.465 425.196"
 xmlns="http://www.w3.org/2000/svg" xmlns:xlink="http://www.w3.org/1999/xlink" version="1.2" baseProfile="tiny">
<title>harmonic-series</title>
<desc>Generated by MuseScore 3.4.2</desc>
<polyline class="StaffLines" fill="none" stroke="#000000" stroke-width="2.00" stroke-linejoin="bevel" points="0,175.011 283.465,175.011"/>
<polyline class="StaffLines" fill="none" stroke="#000000" stroke-width="2.00" stroke-linejoin="bevel" points="0,200.013 283.465,200.013"/>
<polyline class="StaffLines" fill="none" stroke="#000000" stroke-width="2.00" stroke-linejoin="bevel" points="0,225.014 283.465,225.014"/>
<polyline class="StaffLines" fill="none" stroke="#000000" stroke-width="2.00" stroke-linejoin="bevel" points="0,250.016 283.465,250.016"/>
<polyline class="StaffLines" fill="none" stroke="#000000" stroke-width="2.00" stroke-linejoin="bevel" points="0,275.017 283.465,275.017"/>
<polyline class="BarLine" fill="none" stroke="#000000" stroke-width="4.00" stroke-linejoin="bevel" points="281.465,174.011 281.465,276.017"/>
<path class="Accidental" d="M107.371,45.9016 L107.371,53.6164 C107.371,56.3508 107.501,58.5318 107.761,60.1594 C109.91,58.3365 111.44,56.9693 112.351,56.0578 C113.393,55.0162 114.434,53.5839 115.476,51.761 C116.518,49.938 117.039,48.1151 117.039,46.2922 C117.039,44.4693 116.648,42.9068 115.867,41.6047 C115.085,40.3026 114.044,39.6516 112.742,39.6516 C111.179,39.6516 109.877,40.2375 108.835,41.4094 C107.859,42.7115 107.371,44.2089 107.371,45.9016 M103.269,63.7727 L101.999,4.30002 C102.911,3.77919 103.822,3.51877 104.734,3.51877 C105.645,3.51877 106.557,3.77919 107.468,4.30002 L106.687,38.7727 C109.356,36.494 112.416,35.3547 115.867,35.3547 C118.406,35.3547 120.522,36.3964 122.214,38.4797 C123.907,40.563 124.753,42.9393 124.753,45.6086 C124.753,47.3013 124.2,49.0917 123.093,50.9797 C122.052,52.7375 120.945,54.1047 119.773,55.0813 C119.122,55.6021 117.462,56.9042 114.792,58.9875 C114.011,59.5735 113.083,60.2571 112.009,61.0383 C110.935,61.8196 110.268,62.3078 110.007,62.5031 C109.552,62.7636 109.128,63.2844 108.738,64.0656 C108.282,64.7167 107.761,65.2701 107.175,65.7258 C106.72,66.1164 106.166,66.3117 105.515,66.3117 C104.864,66.3117 104.343,66.0839 103.953,65.6281 C103.497,65.1724 103.269,64.5539 103.269,63.7727"/>
<polyline class="LedgerLine" fill="none" stroke="#000000" stroke-width="4.00" stroke-linecap="square" stroke-linejoin="bevel" points="127.954,150.009 192.474,150.009"/>
<polyline class="LedgerLine" fill="none" stroke="#000000" stroke-width="4.00" stroke-linecap="square" stroke-linejoin="bevel" points="127.954,125.008 192.474,125.008"/>
<polyline class="LedgerLine" fill="none" stroke="#000000" stroke-width="4.00" stroke-linecap="square" stroke-linejoin="bevel" points="127.954,100.006 192.474,100.006"/>
<polyline class="LedgerLine" fill="none" stroke="#000000" stroke-width="4.00" stroke-linecap="square" stroke-linejoin="bevel" points="127.954,75.0047 192.474,75.0047"/>
<polyline class="LedgerLine" fill="none" stroke="#000000" stroke-width="4.00" stroke-linecap="square" stroke-linejoin="bevel" points="127.954,50.0031 192.474,50.0031"/>
<polyline class="LedgerLine" fill="none" stroke="#000000" stroke-width="4.00" stroke-linecap="square" stroke-linejoin="bevel" points="127.954,300.019 192.474,300.019"/>
<path class="Note" d="M156.939,201.283 C154.595,201.283 152.903,202.097 151.861,203.724 C150.689,205.287 150.103,207.403 150.103,210.072 C150.103,213.132 150.917,215.769 152.545,217.982 C154.172,220.131 155.962,221.628 157.916,222.474 C159.673,223.321 161.529,223.744 163.482,223.744 C165.761,223.744 167.486,222.93 168.658,221.302 C169.765,219.675 170.318,217.559 170.318,214.955 C170.318,211.895 169.504,209.258 167.877,207.045 C166.249,204.961 164.491,203.464 162.603,202.552 C160.715,201.706 158.827,201.283 156.939,201.283 M160.259,198.744 C167.291,198.744 173.15,200.111 177.837,202.845 C182.59,205.58 184.966,208.802 184.966,212.513 C184.966,216.485 182.525,219.74 177.642,222.279 C172.759,224.948 166.965,226.283 160.259,226.283 C153.358,226.283 147.499,224.916 142.681,222.181 C137.864,219.447 135.455,216.224 135.455,212.513 C135.455,208.542 137.929,205.287 142.877,202.748 C147.759,200.078 153.554,198.744 160.259,198.744"/>
<path class="Note" d="M156.939,151.28 C154.595,151.28 152.903,152.094 151.861,153.721 C150.689,155.284 150.103,157.4 150.103,160.069 C150.103,163.129 150.917,165.765 152.545,167.979 C154.172,170.127 155.962,171.625 157.916,172.471 C159.673,173.318 161.529,173.741 163.482,173.741 C165.761,173.741 167.486,172.927 168.658,171.299 C169.765,169.672 170.318,167.556 170.318,164.952 C170.318,161.892 169.504,159.255 167.877,157.041 C166.249,154.958 164.491,153.461 162.603,152.549 C160.715,151.703 158.827,151.28 156.939,151.28 M160.259,148.741 C167.291,148.741 173.15,150.108 177.837,152.842 C182.59,155.577 184.966,158.799 184.966,162.51 C184.966,166.482 182.525,169.737 177.642,172.276 C172.759,174.945 166.965,176.28 160.259,176.28 C153.358,176.28 147.499,174.913 142.681,172.178 C137.864,169.444 135.455,166.221 135.455,162.51 C135.455,158.539 137.929,155.284 142.877,152.745 C147.759,150.075 153.554,148.741 160.259,148.741"/>
<path class="Note" d="M156.939,113.777 C154.595,113.777 152.903,114.591 151.861,116.219 C150.689,117.781 150.103,119.897 150.103,122.566 C150.103,125.626 150.917,128.263 152.545,130.477 C154.172,132.625 155.962,134.122 157.916,134.969 C159.673,135.815 161.529,136.238 163.482,136.238 C165.761,136.238 167.486,135.425 168.658,133.797 C169.765,132.169 170.318,130.053 170.318,127.449 C170.318,124.389 169.504,121.753 167.877,119.539 C166.249,117.456 164.491,115.958 162.603,115.047 C160.715,114.201 158.827,113.777 156.939,113.777 M160.259,111.238 C167.291,111.238 173.15,112.606 177.837,115.34 C182.59,118.074 184.966,121.297 184.966,125.008 C184.966,128.979 182.525,132.234 177.642,134.773 C172.759,137.443 166.965,138.777 160.259,138.777 C153.358,138.777 147.499,137.41 142.681,134.676 C137.864,131.941 135.455,128.719 135.455,125.008 C135.455,121.037 137.929,117.781 142.877,115.242 C147.759,112.573 153.554,111.238 160.259,111.238"/>
<path class="Note" d="M156.939,88.7758 C154.595,88.7758 152.903,89.5896 151.861,91.2172 C150.689,92.7797 150.103,94.8956 150.103,97.5649 C150.103,100.625 150.917,103.262 152.545,105.475 C154.172,107.623 155.962,109.121 157.916,109.967 C159.673,110.814 161.529,111.237 163.482,111.237 C165.761,111.237 167.486,110.423 168.658,108.795 C169.765,107.168 170.318,105.052 170.318,102.448 C170.318,99.3878 169.504,96.7511 167.877,94.5375 C166.249,92.4542 164.491,90.9568 162.603,90.0454 C160.715,89.199 158.827,88.7758 156.939,88.7758 M160.259,86.2368 C167.291,86.2368 173.15,87.604 177.837,90.3383 C182.59,93.0727 184.966,96.2954 184.966,100.006 C184.966,103.978 182.525,107.233 177.642,109.772 C172.759,112.441 166.965,113.776 160.259,113.776 C153.358,113.776 147.499,112.409 142.681,109.674 C137.864,106.94 135.455,103.717 135.455,100.006 C135.455,96.0349 137.929,92.7797 142.877,90.2407 C147.759,87.5714 153.554,86.2368 160.259,86.2368"/>
<path class="Note" d="M156.939,63.7743 C154.595,63.7743 152.903,64.5881 151.861,66.2157 C150.689,67.7782 150.103,69.894 150.103,72.5633 C150.103,75.6232 150.917,78.2599 152.545,80.4735 C154.172,82.6219 155.962,84.1193 157.916,84.9657 C159.673,85.812 161.529,86.2352 163.482,86.2352 C165.761,86.2352 167.486,85.4214 168.658,83.7938 C169.765,82.1662 170.318,80.0503 170.318,77.4461 C170.318,74.3862 169.504,71.7495 167.877,69.536 C166.249,67.4526 164.491,65.9552 162.603,65.0438 C160.715,64.1974 158.827,63.7743 156.939,63.7743 M160.259,61.2352 C167.291,61.2352 173.15,62.6024 177.837,65.3368 C182.59,68.0711 184.966,71.2938 184.966,75.0047 C184.966,78.9761 182.525,82.2313 177.642,84.7703 C172.759,87.4396 166.965,88.7743 160.259,88.7743 C153.358,88.7743 147.499,87.4071 142.681,84.6727 C137.864,81.9383 135.455,78.7157 135.455,75.0047 C135.455,71.0334 137.929,67.7782 142.877,65.2391 C147.759,62.5698 153.554,61.2352 160.259,61.2352"/>
<path class="Note" d="M156.939,38.7727 C154.595,38.7727 152.903,39.5865 151.861,41.2141 C150.689,42.7766 150.103,44.8925 150.103,47.5617 C150.103,50.6216 150.917,53.2584 152.545,55.4719 C154.172,57.6203 155.962,59.1177 157.916,59.9641 C159.673,60.8104 161.529,61.2336 163.482,61.2336 C165.761,61.2336 167.486,60.4198 168.658,58.7922 C169.765,57.1646 170.318,55.0487 170.318,52.4446 C170.318,49.3847 169.504,46.7479 167.877,44.5344 C166.249,42.4511 164.491,40.9537 162.603,40.0422 C160.715,39.1959 158.827,38.7727 156.939,38.7727 M160.259,36.2336 C167.291,36.2336 173.15,37.6008 177.837,40.3352 C182.59,43.0696 184.966,46.2922 184.966,50.0031 C184.966,53.9745 182.525,57.2297 177.642,59.7688 C172.759,62.438 166.965,63.7727 160.259,63.7727 C153.358,63.7727 147.499,62.4055 142.681,59.6711 C137.864,56.9367 135.455,53.7141 135.455,50.0031 C135.455,46.0318 137.929,42.7766 142.877,40.2375 C147.759,37.5683 153.554,36.2336 160.259,36.2336"/>
<path class="Note" d="M156.939,288.788 C154.595,288.788 152.903,289.602 151.861,291.23 C150.689,292.792 150.103,294.908 150.103,297.577 C150.103,300.637 150.917,303.274 152.545,305.488 C154.172,307.636 155.962,309.133 157.916,309.98 C159.673,310.826 161.529,311.249 163.482,311.249 C165.761,311.249 167.486,310.436 168.658,308.808 C169.765,307.18 170.318,305.064 170.318,302.46 C170.318,299.4 169.504,296.764 167.877,294.55 C166.249,292.467 164.491,290.969 162.603,290.058 C160.715,289.212 158.827,288.788 156.939,288.788 M160.259,286.249 C167.291,286.249 173.15,287.617 177.837,290.351 C182.59,293.085 184.966,296.308 184.966,300.019 C184.966,303.99 182.525,307.245 177.642,309.785 C172.759,312.454 166.965,313.788 160.259,313.788 C153.358,313.788 147.499,312.421 142.681,309.687 C137.864,306.952 135.455,303.73 135.455,300.019 C135.455,296.048 137.929,292.792 142.877,290.253 C147.759,287.584 153.554,286.249 160.259,286.249"/>
<path class="Clef" d="M56.72,224.43 C56.72,224.43 56.9153,224.43 57.3059,224.43 C57.5664,224.365 57.7942,224.332 57.9895,224.332 C65.2812,224.332 71.2708,226.904 75.9583,232.047 C80.6458,237.125 82.9895,243.05 82.9895,249.82 C82.9895,258.219 79.5065,265.055 72.5403,270.328 C70.7174,271.761 68.3411,272.932 65.4114,273.844 C65.7369,278.076 65.8997,281.494 65.8997,284.098 C65.8997,284.619 65.8346,286.507 65.7044,289.762 C65.444,295.817 63.3606,301.057 59.4544,305.484 C55.6783,309.846 50.9908,312.027 45.3919,312.027 C40.1184,312.027 35.6263,310.172 31.9153,306.461 C28.2044,302.685 26.3489,298.128 26.3489,292.789 C26.3489,289.99 27.4231,287.613 29.5716,285.66 C31.7851,283.707 34.3567,282.731 37.2864,282.731 C39.8906,282.731 42.0716,283.74 43.8294,285.758 C45.6523,287.646 46.5638,289.99 46.5638,292.789 C46.5638,295.328 45.6523,297.509 43.8294,299.332 C42.0065,301.155 39.8255,302.067 37.2864,302.067 C36.2447,302.067 35.2356,301.871 34.2591,301.481 C37.1237,305.712 40.9322,307.828 45.6849,307.828 C50.177,307.828 53.8554,306.005 56.72,302.359 C59.7148,298.583 61.3424,294.189 61.6028,289.176 C61.733,286.051 61.7981,284.261 61.7981,283.805 C61.7981,280.159 61.6679,277.164 61.4075,274.82 C58.1523,275.341 55.2552,275.602 52.7161,275.602 C43.6666,275.602 35.9518,272.021 29.5716,264.859 C23.3216,257.633 20.1966,249.039 20.1966,239.078 C20.1966,236.995 20.3919,234.879 20.7825,232.731 C21.1731,230.973 21.6614,229.052 22.2474,226.969 C22.5729,225.797 23.4518,223.909 24.8841,221.305 C25.4049,220.524 25.9908,219.547 26.6419,218.375 C27.2929,217.203 27.7487,216.422 28.0091,216.031 C28.6601,214.729 29.9296,212.971 31.8177,210.758 C32.3385,210.172 32.8756,209.521 33.429,208.805 C33.9824,208.089 34.4544,207.503 34.845,207.047 C35.2356,206.591 35.5286,206.233 35.7239,205.973 C35.9192,205.712 37.3841,203.987 40.1184,200.797 C40.7695,200.146 41.4043,199.446 42.0227,198.697 C42.6412,197.949 43.1458,197.363 43.5364,196.94 C43.927,196.516 44.22,196.207 44.4153,196.012 C42.0716,188.264 40.6067,182.08 40.0208,177.457 C39.5651,173.746 39.3372,168.668 39.3372,162.223 C39.3372,156.559 40.6393,151.253 43.2434,146.305 C45.7825,141.162 49.3307,136.962 53.888,133.707 C54.1484,133.512 54.4739,133.414 54.8645,133.414 C55.3203,133.414 55.6458,133.512 55.8411,133.707 C59.3567,137.939 62.3841,143.44 64.9231,150.211 C67.5273,156.982 68.8294,163.134 68.8294,168.668 C68.8294,174.918 67.332,180.777 64.3372,186.246 C60.9518,192.04 56.5898,198.03 51.2513,204.215 C52.6184,208.512 54.4414,215.25 56.72,224.43 M65.0208,269.84 C68.4062,268.603 71.0429,266.487 72.9309,263.492 C75.0143,260.628 76.0559,257.405 76.0559,253.824 C76.0559,249.202 74.4934,245.1 71.3684,241.52 C68.1783,237.809 64.1093,235.725 59.1614,235.27 C61.9609,249.007 63.914,260.53 65.0208,269.84 M27.2278,247.281 C27.2278,253.727 29.832,259.391 35.0403,264.274 C40.3789,269.026 46.3684,271.402 53.0091,271.402 C55.7434,271.402 58.4127,271.207 61.0169,270.817 C59.9752,260.921 57.9244,249.072 54.8645,235.27 C51.1536,235.66 48.1914,236.962 45.9778,239.176 C43.8294,241.455 42.7552,244.026 42.7552,246.891 C42.7552,251.839 45.3919,255.843 50.6653,258.902 C51.1211,259.358 51.3489,259.846 51.3489,260.367 C51.3489,260.888 51.1211,261.376 50.6653,261.832 C50.2747,262.288 49.7864,262.516 49.2005,262.516 C49.1354,262.516 48.8424,262.451 48.3216,262.32 C44.6106,260.302 41.7461,257.698 39.7278,254.508 C37.8398,251.123 36.8958,247.705 36.8958,244.254 C36.8958,239.762 38.2955,235.693 41.095,232.047 C44.0247,228.401 47.8333,226.057 52.5208,225.016 C50.6979,217.724 49.2005,212.027 48.0286,207.926 C46.9869,209.098 45.7337,210.514 44.2688,212.174 C42.804,213.834 41.9414,214.827 41.6809,215.152 C39.3372,218.212 37.5468,220.589 36.3099,222.281 C34.0963,225.341 32.4687,227.978 31.427,230.192 C30.3203,232.665 29.3437,235.367 28.4974,238.297 C27.651,241.096 27.2278,244.091 27.2278,247.281 M59.845,147.965 C54.9622,150.374 51.1211,153.824 48.3216,158.317 C45.457,162.939 44.0247,167.919 44.0247,173.258 C44.0247,177.945 45.1966,184.261 47.5403,192.203 C52.2278,186.539 55.7434,181.298 58.0872,176.481 C60.5612,171.402 61.7981,166.096 61.7981,160.563 C61.7981,156.396 61.1471,152.197 59.845,147.965"/>
</svg>
