<?xml version="1.0" encoding="UTF-8" standalone="no"?>
<svg width="2976.38px" height="411.024px" viewBox="0 0 2976.38 411.024"
 xmlns="http://www.w3.org/2000/svg" xmlns:xlink="http://www.w3.org/1999/xlink" version="1.2" baseProfile="tiny">
<title>idyom-dynamic-predictions</title>
<desc>Generated by MuseScore 3.6.2</desc>
<polyline class="StaffLines" fill="none" stroke="#000000" stroke-width="2.73" stroke-linejoin="bevel" points="124.016,173.622 2834.65,173.622"/>
<polyline class="StaffLines" fill="none" stroke="#000000" stroke-width="2.73" stroke-linejoin="bevel" points="124.016,198.425 2834.65,198.425"/>
<polyline class="StaffLines" fill="none" stroke="#000000" stroke-width="2.73" stroke-linejoin="bevel" points="124.016,223.228 2834.65,223.228"/>
<polyline class="StaffLines" fill="none" stroke="#000000" stroke-width="2.73" stroke-linejoin="bevel" points="124.016,248.031 2834.65,248.031"/>
<polyline class="StaffLines" fill="none" stroke="#000000" stroke-width="2.73" stroke-linejoin="bevel" points="124.016,272.835 2834.65,272.835"/>
<polyline class="BarLine" fill="none" stroke="#000000" stroke-width="4.46" stroke-linejoin="bevel" points="638.886,172.258 638.886,274.199"/>
<polyline class="BarLine" fill="none" stroke="#000000" stroke-width="4.46" stroke-linejoin="bevel" points="890.922,172.258 890.922,274.199"/>
<polyline class="BarLine" fill="none" stroke="#000000" stroke-width="4.46" stroke-linejoin="bevel" points="1187.59,172.258 1187.59,274.199"/>
<polyline class="BarLine" fill="none" stroke="#000000" stroke-width="4.46" stroke-linejoin="bevel" points="1450.64,172.258 1450.64,274.199"/>
<path class="BarLine" transform="matrix(0.992126,0,0,0.992126,1619.27,210.827)" d="M10.4,0 C10.4,-2.9 8.1,-5.3 5.2,-5.3 C2.3,-5.3 0,-2.9 0,0 C0,2.9 2.3,5.3 5.2,5.3 C8.1,5.3 10.4,2.9 10.4,0"/>
<path class="BarLine" transform="matrix(0.992126,0,0,0.992126,1619.27,235.63)" d="M10.4,0 C10.4,-2.9 8.1,-5.3 5.2,-5.3 C2.3,-5.3 0,-2.9 0,0 C0,2.9 2.3,5.3 5.2,5.3 C8.1,5.3 10.4,2.9 10.4,0"/>
<polyline class="BarLine" fill="none" stroke="#000000" stroke-width="4.46" stroke-linejoin="bevel" points="1641.79,172.258 1641.79,274.199"/>
<polyline class="BarLine" fill="none" stroke="#000000" stroke-width="13.64" stroke-linejoin="bevel" points="1659.15,172.258 1659.15,274.199"/>
<polyline class="BarLine" fill="none" stroke="#000000" stroke-width="4.46" stroke-linejoin="bevel" points="1971.73,172.258 1971.73,274.199"/>
<polyline class="BarLine" fill="none" stroke="#000000" stroke-width="4.46" stroke-linejoin="bevel" points="2236.61,172.258 2236.61,274.199"/>
<polyline class="BarLine" fill="none" stroke="#000000" stroke-width="4.46" stroke-linejoin="bevel" points="2545.73,172.258 2545.73,274.199"/>
<polyline class="BarLine" fill="none" stroke="#000000" stroke-width="4.46" stroke-linejoin="bevel" points="2810.46,172.258 2810.46,274.199"/>
<polyline class="BarLine" fill="none" stroke="#000000" stroke-width="13.64" stroke-linejoin="bevel" points="2827.82,172.258 2827.82,274.199"/>
<polyline class="Stem" fill="none" stroke="#000000" stroke-width="2.73" stroke-linejoin="bevel" points="378.054,226.562 378.054,300.738"/>
<polyline class="Stem" fill="none" stroke="#000000" stroke-width="2.73" stroke-linejoin="bevel" points="441.562,226.562 441.562,300.738"/>
<polyline class="Stem" fill="none" stroke="#000000" stroke-width="2.73" stroke-linejoin="bevel" points="505.069,226.562 505.069,300.738"/>
<polyline class="Stem" fill="none" stroke="#000000" stroke-width="2.73" stroke-linejoin="bevel" points="568.577,201.759 568.577,282.136"/>
<polyline class="Stem" fill="none" stroke="#000000" stroke-width="2.73" stroke-linejoin="bevel" points="674.726,214.16 674.726,291.437"/>
<polyline class="Stem" fill="none" stroke="#000000" stroke-width="2.73" stroke-linejoin="bevel" points="734.54,214.16 734.54,291.437"/>
<polyline class="Stem" fill="none" stroke="#000000" stroke-width="2.73" stroke-linejoin="bevel" points="794.353,226.562 794.353,300.738"/>
<polyline class="Stem" fill="none" stroke="#000000" stroke-width="2.73" stroke-linejoin="bevel" points="926.762,226.562 926.762,300.738"/>
<polyline class="Stem" fill="none" stroke="#000000" stroke-width="2.73" stroke-linejoin="bevel" points="990.27,226.562 990.27,300.738"/>
<polyline class="Stem" fill="none" stroke="#000000" stroke-width="2.73" stroke-linejoin="bevel" points="1083.29,232.455 1083.29,155.02"/>
<polyline class="Stem" fill="none" stroke="#000000" stroke-width="2.73" stroke-linejoin="bevel" points="1117.28,226.562 1117.28,300.738"/>
<polyline class="Stem" fill="none" stroke="#000000" stroke-width="2.73" stroke-linejoin="bevel" points="1234.44,214.16 1234.44,291.437"/>
<polyline class="Stem" fill="none" stroke="#000000" stroke-width="2.73" stroke-linejoin="bevel" points="1294.25,226.562 1294.25,300.738"/>
<polyline class="Stem" fill="none" stroke="#000000" stroke-width="2.73" stroke-linejoin="bevel" points="1383.57,232.455 1383.57,155.02"/>
<polyline class="Stem" fill="none" stroke="#000000" stroke-width="2.73" stroke-linejoin="bevel" points="1710.89,226.562 1710.89,300.738"/>
<polyline class="Stem" fill="none" stroke="#000000" stroke-width="2.73" stroke-linejoin="bevel" points="1774.4,226.562 1774.4,300.738"/>
<polyline class="Stem" fill="none" stroke="#000000" stroke-width="2.73" stroke-linejoin="bevel" points="1867.42,232.455 1867.42,155.02"/>
<polyline class="Stem" fill="none" stroke="#000000" stroke-width="2.73" stroke-linejoin="bevel" points="1930.92,232.455 1930.92,155.02"/>
<polyline class="Stem" fill="none" stroke="#000000" stroke-width="2.73" stroke-linejoin="bevel" points="2049.92,244.857 2049.92,164.321"/>
<polyline class="Stem" fill="none" stroke="#000000" stroke-width="2.73" stroke-linejoin="bevel" points="2109.74,244.857 2109.74,164.321"/>
<polyline class="Stem" fill="none" stroke="#000000" stroke-width="2.73" stroke-linejoin="bevel" points="2169.55,257.258 2169.55,173.622"/>
<polyline class="Stem" fill="none" stroke="#000000" stroke-width="2.73" stroke-linejoin="bevel" points="2284.9,189.357 2284.9,272.835"/>
<polyline class="Stem" fill="none" stroke="#000000" stroke-width="2.73" stroke-linejoin="bevel" points="2348.41,201.759 2348.41,282.136"/>
<polyline class="Stem" fill="none" stroke="#000000" stroke-width="2.73" stroke-linejoin="bevel" points="2411.92,214.16 2411.92,291.437"/>
<polyline class="Stem" fill="none" stroke="#000000" stroke-width="2.73" stroke-linejoin="bevel" points="2475.42,226.562 2475.42,300.738"/>
<polyline class="Stem" fill="none" stroke="#000000" stroke-width="2.73" stroke-linejoin="bevel" points="2623.78,232.455 2623.78,155.02"/>
<polyline class="Stem" fill="none" stroke="#000000" stroke-width="2.73" stroke-linejoin="bevel" points="2683.59,232.455 2683.59,155.02"/>
<polyline class="Stem" fill="none" stroke="#000000" stroke-width="2.73" stroke-linejoin="bevel" points="2743.4,244.857 2743.4,164.321"/>
<path class="Note" transform="matrix(0.992126,0,0,0.992126,376.69,223.228)" d="M31.5,-8.1 C29.7,-11.4 25.9,-13.2 21.3,-13.2 C17.9,-13.2 14.2,-12.2 10.6,-10.3 C4,-6.8 0,-0.9 0,4.2 C0,5.6 0.3,7 1,8.3 C2.8,11.6 6.6,13.3 11.2,13.3 C14.6,13.3 18.3,12.4 21.9,10.5 C28.5,7 32.5,1.1 32.5,-4 C32.5,-5.4 32.2,-6.8 31.5,-8.1"/>
<path class="Note" transform="matrix(0.992126,0,0,0.992126,440.198,223.228)" d="M31.5,-8.1 C29.7,-11.4 25.9,-13.2 21.3,-13.2 C17.9,-13.2 14.2,-12.2 10.6,-10.3 C4,-6.8 0,-0.9 0,4.2 C0,5.6 0.3,7 1,8.3 C2.8,11.6 6.6,13.3 11.2,13.3 C14.6,13.3 18.3,12.4 21.9,10.5 C28.5,7 32.5,1.1 32.5,-4 C32.5,-5.4 32.2,-6.8 31.5,-8.1"/>
<path class="Note" transform="matrix(0.992126,0,0,0.992126,503.705,223.228)" d="M31.5,-8.1 C29.7,-11.4 25.9,-13.2 21.3,-13.2 C17.9,-13.2 14.2,-12.2 10.6,-10.3 C4,-6.8 0,-0.9 0,4.2 C0,5.6 0.3,7 1,8.3 C2.8,11.6 6.6,13.3 11.2,13.3 C14.6,13.3 18.3,12.4 21.9,10.5 C28.5,7 32.5,1.1 32.5,-4 C32.5,-5.4 32.2,-6.8 31.5,-8.1"/>
<path class="Note" transform="matrix(0.992126,0,0,0.992126,567.213,198.425)" d="M31.5,-8.1 C29.7,-11.4 25.9,-13.2 21.3,-13.2 C17.9,-13.2 14.2,-12.2 10.6,-10.3 C4,-6.8 0,-0.9 0,4.2 C0,5.6 0.3,7 1,8.3 C2.8,11.6 6.6,13.3 11.2,13.3 C14.6,13.3 18.3,12.4 21.9,10.5 C28.5,7 32.5,1.1 32.5,-4 C32.5,-5.4 32.2,-6.8 31.5,-8.1"/>
<path class="Note" transform="matrix(0.992126,0,0,0.992126,673.362,210.827)" d="M31.5,-8.1 C29.7,-11.4 25.9,-13.2 21.3,-13.2 C17.9,-13.2 14.2,-12.2 10.6,-10.3 C4,-6.8 0,-0.9 0,4.2 C0,5.6 0.3,7 1,8.3 C2.8,11.6 6.6,13.3 11.2,13.3 C14.6,13.3 18.3,12.4 21.9,10.5 C28.5,7 32.5,1.1 32.5,-4 C32.5,-5.4 32.2,-6.8 31.5,-8.1"/>
<path class="Note" transform="matrix(0.992126,0,0,0.992126,733.175,210.827)" d="M31.5,-8.1 C29.7,-11.4 25.9,-13.2 21.3,-13.2 C17.9,-13.2 14.2,-12.2 10.6,-10.3 C4,-6.8 0,-0.9 0,4.2 C0,5.6 0.3,7 1,8.3 C2.8,11.6 6.6,13.3 11.2,13.3 C14.6,13.3 18.3,12.4 21.9,10.5 C28.5,7 32.5,1.1 32.5,-4 C32.5,-5.4 32.2,-6.8 31.5,-8.1"/>
<path class="Note" transform="matrix(0.992126,0,0,0.992126,792.988,223.228)" d="M31.5,-8.1 C29.7,-11.4 25.9,-13.2 21.3,-13.2 C17.9,-13.2 14.2,-12.2 10.6,-10.3 C4,-6.8 0,-0.9 0,4.2 C0,5.6 0.3,7 1,8.3 C2.8,11.6 6.6,13.3 11.2,13.3 C14.6,13.3 18.3,12.4 21.9,10.5 C28.5,7 32.5,1.1 32.5,-4 C32.5,-5.4 32.2,-6.8 31.5,-8.1 M27.2,-1.3 C25.5,0.4 22.1,2.5 18.5,4.5 C14.9,6.5 11.3,8 8.9,8.5 C8.4,8.6 7.9,8.7 7.4,8.7 C5.8,8.7 4.6,8.1 3.9,6.8 C3.6,6.3 3.4,5.7 3.4,5.1 C3.4,4 4.1,2.7 5.2,1.6 C6.9,-0.1 10.2,-2.2 13.8,-4.2 C17.4,-6.2 21,-7.7 23.4,-8.2 C23.9,-8.3 24.4,-8.4 24.9,-8.4 C26.5,-8.4 27.8,-7.8 28.5,-6.5 C28.8,-6 28.9,-5.4 28.9,-4.8 C28.9,-3.7 28.3,-2.5 27.2,-1.3"/>
<path class="Note" transform="matrix(0.992126,0,0,0.992126,925.398,223.228)" d="M31.5,-8.1 C29.7,-11.4 25.9,-13.2 21.3,-13.2 C17.9,-13.2 14.2,-12.2 10.6,-10.3 C4,-6.8 0,-0.9 0,4.2 C0,5.6 0.3,7 1,8.3 C2.8,11.6 6.6,13.3 11.2,13.3 C14.6,13.3 18.3,12.4 21.9,10.5 C28.5,7 32.5,1.1 32.5,-4 C32.5,-5.4 32.2,-6.8 31.5,-8.1"/>
<path class="Note" transform="matrix(0.992126,0,0,0.992126,988.906,223.228)" d="M31.5,-8.1 C29.7,-11.4 25.9,-13.2 21.3,-13.2 C17.9,-13.2 14.2,-12.2 10.6,-10.3 C4,-6.8 0,-0.9 0,4.2 C0,5.6 0.3,7 1,8.3 C2.8,11.6 6.6,13.3 11.2,13.3 C14.6,13.3 18.3,12.4 21.9,10.5 C28.5,7 32.5,1.1 32.5,-4 C32.5,-5.4 32.2,-6.8 31.5,-8.1"/>
<path class="Note" transform="matrix(0.992126,0,0,0.992126,1052.41,235.63)" d="M31.5,-8.1 C29.7,-11.4 25.9,-13.2 21.3,-13.2 C17.9,-13.2 14.2,-12.2 10.6,-10.3 C4,-6.8 0,-0.9 0,4.2 C0,5.6 0.3,7 1,8.3 C2.8,11.6 6.6,13.3 11.2,13.3 C14.6,13.3 18.3,12.4 21.9,10.5 C28.5,7 32.5,1.1 32.5,-4 C32.5,-5.4 32.2,-6.8 31.5,-8.1"/>
<path class="Note" transform="matrix(0.992126,0,0,0.992126,1115.92,223.228)" d="M31.5,-8.1 C29.7,-11.4 25.9,-13.2 21.3,-13.2 C17.9,-13.2 14.2,-12.2 10.6,-10.3 C4,-6.8 0,-0.9 0,4.2 C0,5.6 0.3,7 1,8.3 C2.8,11.6 6.6,13.3 11.2,13.3 C14.6,13.3 18.3,12.4 21.9,10.5 C28.5,7 32.5,1.1 32.5,-4 C32.5,-5.4 32.2,-6.8 31.5,-8.1"/>
<path class="Note" transform="matrix(0.992126,0,0,0.992126,1233.08,210.827)" d="M31.5,-8.1 C29.7,-11.4 25.9,-13.2 21.3,-13.2 C17.9,-13.2 14.2,-12.2 10.6,-10.3 C4,-6.8 0,-0.9 0,4.2 C0,5.6 0.3,7 1,8.3 C2.8,11.6 6.6,13.3 11.2,13.3 C14.6,13.3 18.3,12.4 21.9,10.5 C28.5,7 32.5,1.1 32.5,-4 C32.5,-5.4 32.2,-6.8 31.5,-8.1"/>
<path class="Note" transform="matrix(0.992126,0,0,0.992126,1292.89,223.228)" d="M31.5,-8.1 C29.7,-11.4 25.9,-13.2 21.3,-13.2 C17.9,-13.2 14.2,-12.2 10.6,-10.3 C4,-6.8 0,-0.9 0,4.2 C0,5.6 0.3,7 1,8.3 C2.8,11.6 6.6,13.3 11.2,13.3 C14.6,13.3 18.3,12.4 21.9,10.5 C28.5,7 32.5,1.1 32.5,-4 C32.5,-5.4 32.2,-6.8 31.5,-8.1"/>
<path class="Note" transform="matrix(0.992126,0,0,0.992126,1352.7,235.63)" d="M31.5,-8.1 C29.7,-11.4 25.9,-13.2 21.3,-13.2 C17.9,-13.2 14.2,-12.2 10.6,-10.3 C4,-6.8 0,-0.9 0,4.2 C0,5.6 0.3,7 1,8.3 C2.8,11.6 6.6,13.3 11.2,13.3 C14.6,13.3 18.3,12.4 21.9,10.5 C28.5,7 32.5,1.1 32.5,-4 C32.5,-5.4 32.2,-6.8 31.5,-8.1 M27.2,-1.3 C25.5,0.4 22.1,2.5 18.5,4.5 C14.9,6.5 11.3,8 8.9,8.5 C8.4,8.6 7.9,8.7 7.4,8.7 C5.8,8.7 4.6,8.1 3.9,6.8 C3.6,6.3 3.4,5.7 3.4,5.1 C3.4,4 4.1,2.7 5.2,1.6 C6.9,-0.1 10.2,-2.2 13.8,-4.2 C17.4,-6.2 21,-7.7 23.4,-8.2 C23.9,-8.3 24.4,-8.4 24.9,-8.4 C26.5,-8.4 27.8,-7.8 28.5,-6.5 C28.8,-6 28.9,-5.4 28.9,-4.8 C28.9,-3.7 28.3,-2.5 27.2,-1.3"/>
<path class="Note" transform="matrix(0.992126,0,0,0.992126,1485.11,248.031)" d="M18.7,-13.6 C4.9,-13.6 0,-6.6 0,-0.1 C0,6.4 4.9,13.4 18.7,13.4 C32.5,13.4 37.3,6.4 37.3,-0.1 C37.3,-6.6 32.5,-13.6 18.7,-13.6 M10.4,-4.5 C10.3,-4.9 10.3,-5.3 10.3,-5.7 C10.3,-6.5 10.5,-7.3 10.9,-8 C11.6,-9 12.8,-9.7 14.3,-10 C15.6,-10.3 16.3,-10.5 18.9,-10.5 L19,-10.5 C23,-10.5 24.3,-6.8 25.4,-3 L25.7,-2 C26.5,0.6 26.9,2.8 26.9,4.5 C26.9,5.7 26.7,6.8 26.3,7.6 C25.7,8.7 24.7,9.4 23,9.8 C22.1,10 20.6,10.1 20.6,10.1 C20.1,10.1 19.7,10.2 19.3,10.2 C16.1,10.2 14.1,9 12.7,4.7 C11.5,1 11.3,-0.1 10.4,-4.5"/>
<path class="Note" transform="matrix(0.992126,0,0,0.992126,1709.53,223.228)" d="M31.5,-8.1 C29.7,-11.4 25.9,-13.2 21.3,-13.2 C17.9,-13.2 14.2,-12.2 10.6,-10.3 C4,-6.8 0,-0.9 0,4.2 C0,5.6 0.3,7 1,8.3 C2.8,11.6 6.6,13.3 11.2,13.3 C14.6,13.3 18.3,12.4 21.9,10.5 C28.5,7 32.5,1.1 32.5,-4 C32.5,-5.4 32.2,-6.8 31.5,-8.1"/>
<path class="Note" transform="matrix(0.992126,0,0,0.992126,1773.04,223.228)" d="M31.5,-8.1 C29.7,-11.4 25.9,-13.2 21.3,-13.2 C17.9,-13.2 14.2,-12.2 10.6,-10.3 C4,-6.8 0,-0.9 0,4.2 C0,5.6 0.3,7 1,8.3 C2.8,11.6 6.6,13.3 11.2,13.3 C14.6,13.3 18.3,12.4 21.9,10.5 C28.5,7 32.5,1.1 32.5,-4 C32.5,-5.4 32.2,-6.8 31.5,-8.1"/>
<path class="Note" transform="matrix(0.992126,0,0,0.992126,1836.54,235.63)" d="M31.5,-8.1 C29.7,-11.4 25.9,-13.2 21.3,-13.2 C17.9,-13.2 14.2,-12.2 10.6,-10.3 C4,-6.8 0,-0.9 0,4.2 C0,5.6 0.3,7 1,8.3 C2.8,11.6 6.6,13.3 11.2,13.3 C14.6,13.3 18.3,12.4 21.9,10.5 C28.5,7 32.5,1.1 32.5,-4 C32.5,-5.4 32.2,-6.8 31.5,-8.1"/>
<path class="Note" transform="matrix(0.992126,0,0,0.992126,1900.05,235.63)" d="M31.5,-8.1 C29.7,-11.4 25.9,-13.2 21.3,-13.2 C17.9,-13.2 14.2,-12.2 10.6,-10.3 C4,-6.8 0,-0.9 0,4.2 C0,5.6 0.3,7 1,8.3 C2.8,11.6 6.6,13.3 11.2,13.3 C14.6,13.3 18.3,12.4 21.9,10.5 C28.5,7 32.5,1.1 32.5,-4 C32.5,-5.4 32.2,-6.8 31.5,-8.1"/>
<path class="Note" transform="matrix(0.992126,0,0,0.992126,2019.05,248.031)" d="M31.5,-8.1 C29.7,-11.4 25.9,-13.2 21.3,-13.2 C17.9,-13.2 14.2,-12.2 10.6,-10.3 C4,-6.8 0,-0.9 0,4.2 C0,5.6 0.3,7 1,8.3 C2.8,11.6 6.6,13.3 11.2,13.3 C14.6,13.3 18.3,12.4 21.9,10.5 C28.5,7 32.5,1.1 32.5,-4 C32.5,-5.4 32.2,-6.8 31.5,-8.1"/>
<path class="Note" transform="matrix(0.992126,0,0,0.992126,2078.86,248.031)" d="M31.5,-8.1 C29.7,-11.4 25.9,-13.2 21.3,-13.2 C17.9,-13.2 14.2,-12.2 10.6,-10.3 C4,-6.8 0,-0.9 0,4.2 C0,5.6 0.3,7 1,8.3 C2.8,11.6 6.6,13.3 11.2,13.3 C14.6,13.3 18.3,12.4 21.9,10.5 C28.5,7 32.5,1.1 32.5,-4 C32.5,-5.4 32.2,-6.8 31.5,-8.1"/>
<path class="Note" transform="matrix(0.992126,0,0,0.992126,2138.68,260.433)" d="M31.5,-8.1 C29.7,-11.4 25.9,-13.2 21.3,-13.2 C17.9,-13.2 14.2,-12.2 10.6,-10.3 C4,-6.8 0,-0.9 0,4.2 C0,5.6 0.3,7 1,8.3 C2.8,11.6 6.6,13.3 11.2,13.3 C14.6,13.3 18.3,12.4 21.9,10.5 C28.5,7 32.5,1.1 32.5,-4 C32.5,-5.4 32.2,-6.8 31.5,-8.1 M27.2,-1.3 C25.5,0.4 22.1,2.5 18.5,4.5 C14.9,6.5 11.3,8 8.9,8.5 C8.4,8.6 7.9,8.7 7.4,8.7 C5.8,8.7 4.6,8.1 3.9,6.8 C3.6,6.3 3.4,5.7 3.4,5.1 C3.4,4 4.1,2.7 5.2,1.6 C6.9,-0.1 10.2,-2.2 13.8,-4.2 C17.4,-6.2 21,-7.7 23.4,-8.2 C23.9,-8.3 24.4,-8.4 24.9,-8.4 C26.5,-8.4 27.8,-7.8 28.5,-6.5 C28.8,-6 28.9,-5.4 28.9,-4.8 C28.9,-3.7 28.3,-2.5 27.2,-1.3"/>
<path class="Note" transform="matrix(0.992126,0,0,0.992126,2283.54,186.024)" d="M31.5,-8.1 C29.7,-11.4 25.9,-13.2 21.3,-13.2 C17.9,-13.2 14.2,-12.2 10.6,-10.3 C4,-6.8 0,-0.9 0,4.2 C0,5.6 0.3,7 1,8.3 C2.8,11.6 6.6,13.3 11.2,13.3 C14.6,13.3 18.3,12.4 21.9,10.5 C28.5,7 32.5,1.1 32.5,-4 C32.5,-5.4 32.2,-6.8 31.5,-8.1"/>
<path class="Note" transform="matrix(0.992126,0,0,0.992126,2347.05,198.425)" d="M31.5,-8.1 C29.7,-11.4 25.9,-13.2 21.3,-13.2 C17.9,-13.2 14.2,-12.2 10.6,-10.3 C4,-6.8 0,-0.9 0,4.2 C0,5.6 0.3,7 1,8.3 C2.8,11.6 6.6,13.3 11.2,13.3 C14.6,13.3 18.3,12.4 21.9,10.5 C28.5,7 32.5,1.1 32.5,-4 C32.5,-5.4 32.2,-6.8 31.5,-8.1"/>
<path class="Note" transform="matrix(0.992126,0,0,0.992126,2410.55,210.827)" d="M31.5,-8.1 C29.7,-11.4 25.9,-13.2 21.3,-13.2 C17.9,-13.2 14.2,-12.2 10.6,-10.3 C4,-6.8 0,-0.9 0,4.2 C0,5.6 0.3,7 1,8.3 C2.8,11.6 6.6,13.3 11.2,13.3 C14.6,13.3 18.3,12.4 21.9,10.5 C28.5,7 32.5,1.1 32.5,-4 C32.5,-5.4 32.2,-6.8 31.5,-8.1"/>
<path class="Note" transform="matrix(0.992126,0,0,0.992126,2474.06,223.228)" d="M31.5,-8.1 C29.7,-11.4 25.9,-13.2 21.3,-13.2 C17.9,-13.2 14.2,-12.2 10.6,-10.3 C4,-6.8 0,-0.9 0,4.2 C0,5.6 0.3,7 1,8.3 C2.8,11.6 6.6,13.3 11.2,13.3 C14.6,13.3 18.3,12.4 21.9,10.5 C28.5,7 32.5,1.1 32.5,-4 C32.5,-5.4 32.2,-6.8 31.5,-8.1"/>
<path class="Note" transform="matrix(0.992126,0,0,0.992126,2592.9,235.63)" d="M31.5,-8.1 C29.7,-11.4 25.9,-13.2 21.3,-13.2 C17.9,-13.2 14.2,-12.2 10.6,-10.3 C4,-6.8 0,-0.9 0,4.2 C0,5.6 0.3,7 1,8.3 C2.8,11.6 6.6,13.3 11.2,13.3 C14.6,13.3 18.3,12.4 21.9,10.5 C28.5,7 32.5,1.1 32.5,-4 C32.5,-5.4 32.2,-6.8 31.5,-8.1"/>
<path class="Note" transform="matrix(0.992126,0,0,0.992126,2652.72,235.63)" d="M31.5,-8.1 C29.7,-11.4 25.9,-13.2 21.3,-13.2 C17.9,-13.2 14.2,-12.2 10.6,-10.3 C4,-6.8 0,-0.9 0,4.2 C0,5.6 0.3,7 1,8.3 C2.8,11.6 6.6,13.3 11.2,13.3 C14.6,13.3 18.3,12.4 21.9,10.5 C28.5,7 32.5,1.1 32.5,-4 C32.5,-5.4 32.2,-6.8 31.5,-8.1"/>
<path class="Note" transform="matrix(0.992126,0,0,0.992126,2712.53,248.031)" d="M31.5,-8.1 C29.7,-11.4 25.9,-13.2 21.3,-13.2 C17.9,-13.2 14.2,-12.2 10.6,-10.3 C4,-6.8 0,-0.9 0,4.2 C0,5.6 0.3,7 1,8.3 C2.8,11.6 6.6,13.3 11.2,13.3 C14.6,13.3 18.3,12.4 21.9,10.5 C28.5,7 32.5,1.1 32.5,-4 C32.5,-5.4 32.2,-6.8 31.5,-8.1 M27.2,-1.3 C25.5,0.4 22.1,2.5 18.5,4.5 C14.9,6.5 11.3,8 8.9,8.5 C8.4,8.6 7.9,8.7 7.4,8.7 C5.8,8.7 4.6,8.1 3.9,6.8 C3.6,6.3 3.4,5.7 3.4,5.1 C3.4,4 4.1,2.7 5.2,1.6 C6.9,-0.1 10.2,-2.2 13.8,-4.2 C17.4,-6.2 21,-7.7 23.4,-8.2 C23.9,-8.3 24.4,-8.4 24.9,-8.4 C26.5,-8.4 27.8,-7.8 28.5,-6.5 C28.8,-6 28.9,-5.4 28.9,-4.8 C28.9,-3.7 28.3,-2.5 27.2,-1.3"/>
<path class="Clef" transform="matrix(0.992126,0,0,0.992126,143.858,248.031)" d="M63.35,-5.86992 C62.12,-11.3 59.48,-15.1199 58.7,-16.16 C55.51,-20.43 51.5,-23.28 46.81,-24.63 C43.7,-25.5199 40.7,-25.63 38.28,-25.45 C37.24,-31.46 36.24,-37.3399 35.33,-42.7899 C40.78,-48.96 44.4,-54.76 46.68,-59.06 C50.15,-65.6399 51.3,-70.2199 51.35,-70.4199 C53.07,-75.63 53.43,-83.33 52.33,-91.5399 C51.32,-99.0899 49.23,-105.8 46.88,-109.05 C45.85,-110.48 44.8,-111.21 43.76,-111.21 C42.54,-111.21 40.03,-109.97 37.14,-107.2 C34.84,-105 31.57,-101.11 29.01,-95.1 C26.01,-88.0399 25.8,-78.55 26.15,-71.83 C26.53,-64.56 27.64,-58.8699 27.65,-58.8199 C27.67,-58.73 27.93,-57.23 28.38,-54.66 C28.15,-54.43 27.91,-54.21 27.66,-53.9699 C26.62,-52.9699 25.43,-51.83 24.05,-50.45 C23.19,-49.5899 22.24,-48.68 21.24,-47.71 C12.79,-39.5699 0,-27.25 0,-8.1 C0,-3.4 0.9,1.02002 2.67998,5.03008 C4.27002,8.63008 6.57002,11.9101 9.5,14.7801 C17.23,22.3301 27.82,25.54 34.88,25.3801 C37.83,25.3101 40.46,25.07 42.85,24.62 C44.68,34.22 45.82,41.25 45.86,46.59 C45.9,53.1 44.25,57.07 40.35,59.84 C37.92,61.57 35.11,62.52 32.01,62.67 C29.42,62.79 27.16,62.32 25.73,61.9101 L25.72,61.9101 C25.72,61.9101 25.43,61.8301 25.42,61.6301 C25.41,61.45 25.76,61.4 25.77,61.4 L25.79,61.4 C27.71,60.9601 31.28,59.7301 33.64,56.4301 C35.44,53.9101 36.31,49.29 34.47,45.35 C33.36,42.9601 30.85,40.0101 25.23,39.5601 C22.74,39.3601 20.47,39.87 18.47,41.07 C16.66,42.15 15.16,43.79 14.11,45.79 C11.65,50.49 12.11,56.22 15.24,60.0601 C18.2,63.6801 22.82,65.99 28.25,66.57 C29.1,66.6601 29.95,66.7 30.8,66.7 C35.23,66.7 39.63,65.5 43.2,63.29 C46.86,60.72 48.98,56.74 49.66,51.1101 C50.22,46.47 49.83,40.5601 48.43,32.49 C48.07,30.4 47.53,27.37 46.87,23.6101 C52.62,21.69 56.78,18.12 60.55,12.27 C63.84,6.53008 64.78,0.430078 63.35,-5.86992 M29.14,20.32 C24.5,19.1 20.07,16.6 16.31,13.1 C15,11.87 13.13,9.7 11.66,6.31006 C10.29,3.15 9.62998,-0.27998 9.67998,-3.86992 C9.75,-8.55996 11.06,-13.38 13.57,-18.1699 C16.49,-23.75 21.05,-29.28 27.11,-34.61 C28.56,-35.8899 29.93,-37.1699 31.22,-38.45 C31.98,-34.1899 32.81,-29.5 33.69,-24.6199 C29.84,-23.35 25.09,-20.2 21.98,-14.55 C18.44,-7.97998 18.58,-2.45996 19.31,1.02002 C20.25,5.48008 22.78,9.24004 26.24,11.3301 C27.17,11.89 31.3,14.02 33.14,13.44 C33.51,13.32 33.78,13.1 33.92,12.77 C34.43,11.6 33.41,10.9601 31.85,10 C31.25,9.63008 30.58,9.21006 29.85,8.68008 C26.53,6.19004 25.08,1.74004 26.15,-2.63994 C26.73,-5.03994 28.01,-7.2 29.85,-8.9 C31.52,-10.45 33.56,-11.55 35.94,-12.1899 C37.98,-0.95 40.04,10.2 41.68,18.5601 C41.81,19.25 41.95,19.92 42.08,20.59 C37.7,21.52 33.35,21.4301 29.14,20.32 M40.46,-12.86 C50.81,-13.33 55.08,-5.88994 55.97,-1.05996 C56.44,1.47002 56.43,5.91006 54.89,10.12 C53.72,13.3 51.26,17.37 46.13,19.4301 C46.06,19.0101 45.98,18.5801 45.9,18.15 C44.36,9.38008 42.42,-1.60996 40.46,-12.86 M33.14,-83.8 C34.92,-89.5399 37.66,-92.7899 39.65,-94.5199 C41.4,-96.0399 43.05,-96.75 43.97,-96.75 C44.11,-96.75 44.23,-96.73 44.33,-96.7 C44.79,-96.56 45.32,-95.9899 45.79,-95.1199 C48.1,-90.83 47.36,-84.1199 46.02,-79.68 C44.39,-74.28 41.47,-68.66 32.67,-59.05 C32.5,-60.16 32.34,-61.21 32.19,-62.1899 C30.94,-70.48 31.26,-77.75 33.14,-83.8"/>
<path class="KeySig" transform="matrix(0.992126,0,0,0.992126,232.142,173.622)" d="M23.3,-10.6 C23.9,-10.7 24.4,-11.4 24.4,-12 L24.4,-17.9 C24.4,-18.7 23.8,-19.3 23,-19.3 L22.8,-19.3 L19.5,-18.6 L19.5,-33.5 L16.7,-33.5 L16.7,-18 L7.8,-16.2 L7.8,-30.3 L5,-30.3 L5,-15.6 L1.1,-14.8 C0.5,-14.7 0,-14 0,-13.4 L0,-13.2 L0,-7.4 L0,-7.6 C0,-6.8 0.6,-6.2 1.4,-6.2 L1.7,-6.2 L5,-6.9 L5,9.6 L1.1,10.4 C0.5,10.5 0,11.2 0,11.8 L0,17.6 C0,18.4 0.6,19 1.4,19 L1.7,19 L5,18.3 L5,33.2 L7.8,33.2 L7.8,17.7 L16.7,15.9 L16.7,30 L19.5,30 L19.5,15.3 L23.3,14.6 C23.9,14.5 24.4,13.8 24.4,13.2 L24.4,7.3 C24.4,6.5 23.8,5.9 23,5.9 L22.8,5.9 L19.5,6.6 L19.5,-9.9 L23.3,-10.6 M7.8,9.1 L7.8,-7.5 L16.7,-9.3 L16.7,7.2 L7.8,9.1 "/>
<path class="TimeSig" transform="matrix(0.992126,0,0,0.992126,281.151,223.228)" d="M32.5,-17.9 C30,-16.3 28.2,-13.4 28.2,-10.2 C28.2,-9.8 28.2,-9.4 28.3,-9 C28.8,-4.9 32.1,-1.7 36.2,-1.2 L37.3,-1.2 C42.3,-1.2 46.3,-5.2 46.3,-10.2 L46.3,-10.8 C46.3,-11.2 46.2,-11.9 46.1,-12.3 C45.2,-16.6 41.3,-25.8 24.3,-25.8 C2.5,-25.8 0,-7.7 0,-1.2 C0,10.7 1.5,25.6 26.5,25.6 C36.4,25.6 44.1,19.8 44.5,9.1 C44.5,8.6 44.2,8.3 43.7,8.3 L42.4,8.3 C42,8.3 41.6,8.7 41.6,9.1 C41.2,17.4 35.3,22.4 26.5,22.4 C17.8,22.4 13.6,17.7 13.6,8.9 L13.6,-10.2 C13.6,-15.8 15.8,-22.2 24.7,-22.2 C29.4,-22.2 31.5,-20.5 32.6,-18.8 C32.8,-18.4 32.8,-18.1 32.5,-17.9"/>
<path class="Fermata" transform="matrix(0.992126,0,0,0.992126,778.258,161.22)" d="M54,-26 C44.6,-36.2 36.3,-36.8 31.1,-36.8 C25.9,-36.8 17.7,-36.2 8.3,-26 C3.4,-20.6 0,-9.9 0,-4.5 C0,-2.6 0.4,-1.3 1.4,-1.3 C4.2,-1.3 2.8,-9.9 11.2,-18.4 C18.6,-25.8 28.5,-25.9 30.9,-25.9 L31.1,-25.9 L31.3,-25.9 C33.7,-25.9 43.6,-25.8 51,-18.4 C59.4,-9.9 58,-1.3 60.8,-1.3 C61.8,-1.3 62.2,-2.5 62.2,-4.5 C62.2,-9.9 58.9,-20.7 54,-26 M24.2,-6.9 C24.2,-3.1 27.3,0 31.1,0 C34.9,0 38,-3.1 38,-6.9 C38,-10.7 34.9,-13.8 31.1,-13.8 C27.3,-13.8 24.2,-10.7 24.2,-6.9"/>
<path class="Fermata" transform="matrix(0.992126,0,0,0.992126,1472.76,161.22)" d="M54,-26 C44.6,-36.2 36.3,-36.8 31.1,-36.8 C25.9,-36.8 17.7,-36.2 8.3,-26 C3.4,-20.6 0,-9.9 0,-4.5 C0,-2.6 0.4,-1.3 1.4,-1.3 C4.2,-1.3 2.8,-9.9 11.2,-18.4 C18.6,-25.8 28.5,-25.9 30.9,-25.9 L31.1,-25.9 L31.3,-25.9 C33.7,-25.9 43.6,-25.8 51,-18.4 C59.4,-9.9 58,-1.3 60.8,-1.3 C61.8,-1.3 62.2,-2.5 62.2,-4.5 C62.2,-9.9 58.9,-20.7 54,-26 M24.2,-6.9 C24.2,-3.1 27.3,0 31.1,0 C34.9,0 38,-3.1 38,-6.9 C38,-10.7 34.9,-13.8 31.1,-13.8 C27.3,-13.8 24.2,-10.7 24.2,-6.9"/>
<path class="Fermata" transform="matrix(0.992126,0,0,0.992126,2123.95,161.22)" d="M54,-26 C44.6,-36.2 36.3,-36.8 31.1,-36.8 C25.9,-36.8 17.7,-36.2 8.3,-26 C3.4,-20.6 0,-9.9 0,-4.5 C0,-2.6 0.4,-1.3 1.4,-1.3 C4.2,-1.3 2.8,-9.9 11.2,-18.4 C18.6,-25.8 28.5,-25.9 30.9,-25.9 L31.1,-25.9 L31.3,-25.9 C33.7,-25.9 43.6,-25.8 51,-18.4 C59.4,-9.9 58,-1.3 60.8,-1.3 C61.8,-1.3 62.2,-2.5 62.2,-4.5 C62.2,-9.9 58.9,-20.7 54,-26 M24.2,-6.9 C24.2,-3.1 27.3,0 31.1,0 C34.9,0 38,-3.1 38,-6.9 C38,-10.7 34.9,-13.8 31.1,-13.8 C27.3,-13.8 24.2,-10.7 24.2,-6.9"/>
<path class="Fermata" transform="matrix(0.992126,0,0,0.992126,2697.8,153.035)" d="M54,-26 C44.6,-36.2 36.3,-36.8 31.1,-36.8 C25.9,-36.8 17.7,-36.2 8.3,-26 C3.4,-20.6 0,-9.9 0,-4.5 C0,-2.6 0.4,-1.3 1.4,-1.3 C4.2,-1.3 2.8,-9.9 11.2,-18.4 C18.6,-25.8 28.5,-25.9 30.9,-25.9 L31.1,-25.9 L31.3,-25.9 C33.7,-25.9 43.6,-25.8 51,-18.4 C59.4,-9.9 58,-1.3 60.8,-1.3 C61.8,-1.3 62.2,-2.5 62.2,-4.5 C62.2,-9.9 58.9,-20.7 54,-26 M24.2,-6.9 C24.2,-3.1 27.3,0 31.1,0 C34.9,0 38,-3.1 38,-6.9 C38,-10.7 34.9,-13.8 31.1,-13.8 C27.3,-13.8 24.2,-10.7 24.2,-6.9"/>
<path class="Lyrics" d="M394.018,326.893 C392.318,328.943 387.718,330.493 383.118,330.593 L383.118,332.743 L387.518,332.743 C390.418,332.793 390.718,333.093 390.618,335.893 L390.618,355.943 C390.618,358.493 390.618,358.593 390.318,359.043 C389.918,359.543 388.968,359.743 386.168,359.743 L382.918,359.743 L382.918,362.093 L402.718,362.093 L402.718,359.743 L399.968,359.743 C397.168,359.743 396.218,359.543 395.818,359.043 C395.468,358.593 395.468,358.543 395.468,355.943 L395.468,335.293 C395.468,332.493 395.568,330.143 395.818,326.893 L394.018,326.893 "/>
<path class="Lyrics" d="M684.009,332.543 C686.709,333.193 688.059,333.393 690.059,333.393 C694.309,333.393 697.409,331.943 699.059,329.143 C699.609,328.243 699.809,327.743 699.809,327.343 C699.809,327.043 699.709,326.893 699.409,326.893 C699.259,326.893 699.059,326.943 698.759,327.093 C696.309,328.143 695.009,328.393 692.109,328.393 C688.909,328.393 686.909,328.093 681.809,326.893 C681.609,331.093 681.159,336.443 680.459,342.643 C679.409,343.743 679.059,344.393 679.059,345.193 C679.059,346.243 679.709,346.893 680.659,346.893 C681.959,346.893 682.709,345.843 682.909,343.843 C684.659,342.593 686.309,342.043 688.309,342.043 C692.809,342.043 695.459,345.443 695.459,351.193 C695.459,354.543 694.609,357.393 693.109,358.943 C692.109,359.993 690.059,360.693 688.009,360.693 C685.009,360.693 681.909,359.143 681.909,357.593 C681.909,357.243 682.209,356.843 682.809,356.493 C684.359,355.543 684.809,354.893 684.809,353.543 C684.809,351.793 683.459,350.443 681.659,350.443 C679.659,350.443 678.059,352.293 678.059,354.643 C678.059,357.143 679.509,359.643 681.759,361.193 C683.459,362.293 685.459,362.843 688.109,362.843 C695.959,362.843 700.909,358.243 700.909,350.893 C700.909,344.093 696.409,339.543 689.609,339.543 C687.459,339.543 685.909,339.893 683.159,341.043 L684.009,332.543 "/>
<path class="Lyrics" d="M946.372,342.593 C950.072,340.593 951.872,338.093 951.872,334.843 C951.872,330.243 947.722,326.893 941.922,326.893 C935.822,326.893 931.372,330.893 931.372,336.443 C931.372,338.593 932.172,340.843 933.572,342.393 C934.422,343.393 935.222,343.943 937.022,344.893 C934.822,345.743 933.872,346.243 932.772,347.143 C930.822,348.743 929.722,351.143 929.722,353.693 C929.722,356.443 931.072,359.143 933.172,360.693 C935.122,362.093 937.822,362.843 941.022,362.843 C944.722,362.843 947.822,361.843 949.922,360.043 C952.022,358.143 953.322,355.093 953.322,352.043 C953.322,349.193 952.222,346.643 950.172,344.843 C949.172,343.943 948.272,343.443 946.372,342.593 M941.022,340.593 C936.972,339.143 935.222,337.243 935.222,334.343 C935.222,331.143 937.822,329.043 941.772,329.043 C945.622,329.043 948.172,331.493 948.172,335.143 C948.172,337.743 947.172,339.443 944.322,341.843 L941.022,340.593 M943.922,347.543 C947.722,348.893 949.322,350.843 949.322,354.143 C949.322,358.143 946.172,360.693 941.272,360.693 C936.572,360.693 933.872,358.143 933.872,353.693 C933.872,349.943 935.422,347.693 939.322,345.893 L943.922,347.543 "/>
<path class="Lyrics" d="M1236.28,326.893 C1234.58,328.943 1229.98,330.493 1225.38,330.593 L1225.38,332.743 L1229.78,332.743 C1232.68,332.793 1232.98,333.093 1232.88,335.893 L1232.88,355.943 C1232.88,358.493 1232.88,358.593 1232.58,359.043 C1232.18,359.543 1231.23,359.743 1228.43,359.743 L1225.18,359.743 L1225.18,362.093 L1244.98,362.093 L1244.98,359.743 L1242.23,359.743 C1239.43,359.743 1238.48,359.543 1238.08,359.043 C1237.73,358.593 1237.73,358.543 1237.73,355.943 L1237.73,335.293 C1237.73,332.493 1237.83,330.143 1238.08,326.893 L1236.28,326.893 M1273.23,351.293 L1271.03,351.293 L1270.53,353.843 C1269.88,357.093 1269.48,357.393 1266.38,357.393 L1255.18,357.393 C1258.63,353.793 1259.78,352.743 1262.98,350.243 C1267.53,346.743 1269.48,344.993 1270.63,343.493 C1272.23,341.293 1273.03,339.093 1273.03,336.643 C1273.03,330.943 1268.33,326.893 1261.78,326.893 C1255.43,326.893 1250.58,330.943 1250.58,336.293 C1250.58,339.443 1252.18,341.593 1254.53,341.593 C1256.38,341.593 1257.63,340.343 1257.63,338.543 C1257.63,337.293 1256.93,336.143 1255.88,335.693 C1254.03,334.943 1253.93,334.843 1253.93,334.193 C1253.93,333.443 1254.43,332.293 1255.13,331.443 C1256.38,329.893 1258.43,329.043 1260.78,329.043 C1264.93,329.043 1267.38,331.593 1267.38,335.793 C1267.38,339.493 1265.63,342.843 1261.48,347.243 C1257.78,351.143 1255.48,353.593 1254.63,354.543 C1252.83,356.643 1251.93,357.793 1249.73,360.693 L1249.73,362.093 L1272.28,362.093 L1273.23,351.293 "/>
<path class="Lyrics" d="M1712.47,326.893 C1710.77,328.943 1706.17,330.493 1701.57,330.593 L1701.57,332.743 L1705.97,332.743 C1708.87,332.793 1709.17,333.093 1709.07,335.893 L1709.07,355.943 C1709.07,358.493 1709.07,358.593 1708.77,359.043 C1708.37,359.543 1707.42,359.743 1704.62,359.743 L1701.37,359.743 L1701.37,362.093 L1721.17,362.093 L1721.17,359.743 L1718.42,359.743 C1715.62,359.743 1714.67,359.543 1714.27,359.043 C1713.92,358.593 1713.92,358.543 1713.92,355.943 L1713.92,335.293 C1713.92,332.493 1714.02,330.143 1714.27,326.893 L1712.47,326.893 M1731.81,345.093 C1732.31,338.843 1732.56,337.193 1733.66,334.643 C1735.11,331.093 1737.76,329.043 1740.91,329.043 C1742.66,329.043 1743.71,329.593 1743.71,330.493 C1743.71,330.693 1743.66,330.843 1743.46,331.193 C1742.96,332.143 1742.71,332.893 1742.71,333.593 C1742.71,335.243 1744.01,336.493 1745.76,336.493 C1747.71,336.493 1749.06,334.993 1749.06,332.893 C1749.06,329.443 1745.61,326.893 1740.86,326.893 C1736.76,326.893 1732.91,328.843 1730.51,332.193 C1727.76,336.043 1726.26,341.243 1726.26,346.693 C1726.26,356.493 1731.06,362.843 1738.46,362.843 C1741.71,362.843 1744.41,361.743 1746.51,359.543 C1748.66,357.343 1749.96,354.093 1749.96,350.893 C1749.96,344.993 1745.76,340.593 1740.06,340.593 C1736.66,340.593 1734.16,341.943 1731.81,345.093 M1738.66,343.643 C1742.31,343.643 1744.51,346.493 1744.51,351.243 C1744.51,357.043 1742.21,360.693 1738.56,360.693 C1736.26,360.693 1734.51,359.493 1733.31,357.043 C1732.51,355.493 1732.11,353.793 1732.11,351.943 C1732.11,346.793 1734.61,343.643 1738.66,343.643"/>
<path class="Lyrics" d="M2032.81,351.293 L2030.61,351.293 L2030.11,353.843 C2029.46,357.093 2029.06,357.393 2025.96,357.393 L2014.76,357.393 C2018.21,353.793 2019.36,352.743 2022.56,350.243 C2027.11,346.743 2029.06,344.993 2030.21,343.493 C2031.81,341.293 2032.61,339.093 2032.61,336.643 C2032.61,330.943 2027.91,326.893 2021.36,326.893 C2015.01,326.893 2010.16,330.943 2010.16,336.293 C2010.16,339.443 2011.76,341.593 2014.11,341.593 C2015.96,341.593 2017.21,340.343 2017.21,338.543 C2017.21,337.293 2016.51,336.143 2015.46,335.693 C2013.61,334.943 2013.51,334.843 2013.51,334.193 C2013.51,333.443 2014.01,332.293 2014.71,331.443 C2015.96,329.893 2018.01,329.043 2020.36,329.043 C2024.51,329.043 2026.96,331.593 2026.96,335.793 C2026.96,339.493 2025.21,342.843 2021.06,347.243 C2017.36,351.143 2015.06,353.593 2014.21,354.543 C2012.41,356.643 2011.51,357.793 2009.31,360.693 L2009.31,362.093 L2031.86,362.093 L2032.81,351.293 M2049.56,326.893 C2042.56,326.893 2037.46,334.493 2037.46,344.993 C2037.46,355.293 2042.41,362.843 2049.16,362.843 C2056.16,362.843 2061.06,355.543 2061.06,345.143 C2061.06,339.843 2059.96,335.443 2057.86,331.993 C2055.91,328.843 2052.71,326.893 2049.56,326.893 M2049.21,329.043 C2050.86,329.043 2052.46,330.143 2053.66,332.143 C2055.01,334.493 2055.46,337.343 2055.46,344.193 C2055.46,351.243 2055.11,354.543 2054.11,356.743 C2052.96,359.193 2051.16,360.693 2049.26,360.693 C2047.56,360.693 2046.01,359.593 2044.81,357.593 C2043.41,355.243 2043.01,352.143 2043.01,343.943 C2043.01,338.093 2043.36,335.193 2044.36,332.993 C2045.51,330.493 2047.31,329.043 2049.21,329.043"/>
<path class="Lyrics" d="M2297.69,351.293 L2295.49,351.293 L2294.99,353.843 C2294.34,357.093 2293.94,357.393 2290.84,357.393 L2279.64,357.393 C2283.09,353.793 2284.24,352.743 2287.44,350.243 C2291.99,346.743 2293.94,344.993 2295.09,343.493 C2296.69,341.293 2297.49,339.093 2297.49,336.643 C2297.49,330.943 2292.79,326.893 2286.24,326.893 C2279.89,326.893 2275.04,330.943 2275.04,336.293 C2275.04,339.443 2276.64,341.593 2278.99,341.593 C2280.84,341.593 2282.09,340.343 2282.09,338.543 C2282.09,337.293 2281.39,336.143 2280.34,335.693 C2278.49,334.943 2278.39,334.843 2278.39,334.193 C2278.39,333.443 2278.89,332.293 2279.59,331.443 C2280.84,329.893 2282.89,329.043 2285.24,329.043 C2289.39,329.043 2291.84,331.593 2291.84,335.793 C2291.84,339.493 2290.09,342.843 2285.94,347.243 C2282.24,351.143 2279.94,353.593 2279.09,354.543 C2277.29,356.643 2276.39,357.793 2274.19,360.693 L2274.19,362.093 L2296.74,362.093 L2297.69,351.293 M2317.53,343.693 C2322.08,342.043 2324.18,339.493 2324.18,335.493 C2324.18,330.243 2320.18,326.893 2313.98,326.893 C2308.13,326.893 2303.68,330.343 2303.68,334.893 C2303.68,336.943 2305.03,338.393 2306.98,338.393 C2308.73,338.393 2309.93,337.193 2309.93,335.393 C2309.93,334.293 2309.53,333.643 2308.38,332.843 C2307.88,332.493 2307.73,332.293 2307.73,331.943 C2307.73,330.543 2310.63,329.043 2313.48,329.043 C2317.08,329.043 2318.98,331.293 2318.98,335.543 C2318.98,340.193 2317.08,342.643 2313.53,342.643 C2313.08,342.643 2312.23,342.593 2311.48,342.543 C2311.08,342.493 2310.68,342.493 2310.38,342.493 C2309.33,342.493 2308.78,342.943 2308.78,343.843 C2308.78,344.693 2309.28,345.093 2310.38,345.093 C2310.68,345.093 2311.08,345.093 2311.53,345.043 C2312.53,344.993 2313.33,344.993 2313.88,344.993 C2317.58,344.993 2319.58,347.643 2319.58,352.593 C2319.58,357.793 2317.08,360.693 2312.58,360.693 C2309.43,360.693 2306.03,358.993 2306.03,357.443 C2306.03,356.993 2306.13,356.893 2307.08,356.343 C2308.48,355.493 2309.03,354.643 2309.03,353.393 C2309.03,351.593 2307.68,350.243 2305.88,350.243 C2303.73,350.243 2302.33,351.993 2302.33,354.643 C2302.33,359.493 2306.78,362.843 2313.18,362.843 C2320.43,362.843 2325.13,358.843 2325.13,352.693 C2325.13,347.993 2322.73,345.143 2317.53,343.693"/>
<path class="Lyrics" d="M2606.82,351.293 L2604.62,351.293 L2604.12,353.843 C2603.47,357.093 2603.07,357.393 2599.97,357.393 L2588.77,357.393 C2592.22,353.793 2593.37,352.743 2596.57,350.243 C2601.12,346.743 2603.07,344.993 2604.22,343.493 C2605.82,341.293 2606.62,339.093 2606.62,336.643 C2606.62,330.943 2601.92,326.893 2595.37,326.893 C2589.02,326.893 2584.17,330.943 2584.17,336.293 C2584.17,339.443 2585.77,341.593 2588.12,341.593 C2589.97,341.593 2591.22,340.343 2591.22,338.543 C2591.22,337.293 2590.52,336.143 2589.47,335.693 C2587.62,334.943 2587.52,334.843 2587.52,334.193 C2587.52,333.443 2588.02,332.293 2588.72,331.443 C2589.97,329.893 2592.02,329.043 2594.37,329.043 C2598.52,329.043 2600.97,331.593 2600.97,335.793 C2600.97,339.493 2599.22,342.843 2595.07,347.243 C2591.37,351.143 2589.07,353.593 2588.22,354.543 C2586.42,356.643 2585.52,357.793 2583.32,360.693 L2583.32,362.093 L2605.87,362.093 L2606.82,351.293 M2612.32,338.993 L2614.52,339.343 L2615.42,335.393 C2616.17,332.093 2616.52,331.593 2617.97,331.593 C2618.22,331.593 2618.62,331.593 2619.07,331.643 C2625.22,331.943 2625.22,331.943 2627.52,331.943 C2628.17,331.943 2629.32,331.943 2630.72,331.893 L2627.32,338.743 C2623.62,346.093 2623.17,346.993 2621.92,350.093 C2620.37,353.843 2619.57,356.993 2619.57,359.093 C2619.57,361.393 2620.77,362.793 2622.72,362.793 C2625.12,362.793 2626.07,361.193 2626.02,356.843 C2625.77,349.643 2626.67,346.143 2632.02,334.443 C2632.77,332.843 2633.52,331.293 2634.27,329.743 C2634.32,329.643 2634.47,329.193 2634.77,328.543 L2634.77,327.093 C2631.77,327.343 2630.17,327.443 2627.07,327.443 C2622.72,327.443 2619.27,327.293 2613.87,326.893 L2612.32,338.993 "/>
</svg>
