<?xml version="1.0" encoding="UTF-8" standalone="no"?>
<svg width="1985.1px" height="425.196px" viewBox="0 0 1985.1 425.196"
 xmlns="http://www.w3.org/2000/svg" xmlns:xlink="http://www.w3.org/1999/xlink" version="1.2" baseProfile="tiny">
<title>melody-wrong-note</title>
<desc>Generated by MuseScore 3.4.2</desc>
<polyline class="StaffLines" fill="none" stroke="#000000" stroke-width="2.00" stroke-linejoin="bevel" points="0,175.011 1985.1,175.011"/>
<polyline class="StaffLines" fill="none" stroke="#000000" stroke-width="2.00" stroke-linejoin="bevel" points="0,200.013 1985.1,200.013"/>
<polyline class="StaffLines" fill="none" stroke="#000000" stroke-width="2.00" stroke-linejoin="bevel" points="0,225.014 1985.1,225.014"/>
<polyline class="StaffLines" fill="none" stroke="#000000" stroke-width="2.00" stroke-linejoin="bevel" points="0,250.016 1985.1,250.016"/>
<polyline class="StaffLines" fill="none" stroke="#000000" stroke-width="2.00" stroke-linejoin="bevel" points="0,275.017 1985.1,275.017"/>
<polyline class="BarLine" fill="none" stroke="#000000" stroke-width="4.00" stroke-linejoin="bevel" points="1125.61,174.011 1125.61,276.017"/>
<polyline class="BarLine" fill="none" stroke="#000000" stroke-width="4.00" stroke-linejoin="bevel" points="1960.6,174.011 1960.6,276.017"/>
<polyline class="BarLine" fill="none" stroke="#000000" stroke-width="12.50" stroke-linejoin="bevel" points="1978.85,174.011 1978.85,276.017"/>
<path class="Accidental" fill="#fc0107" d="M1644.12,293.669 C1644.12,294.906 1643.5,295.524 1642.27,295.524 C1641.03,295.524 1640.41,294.906 1640.41,293.669 L1640.41,279.216 L1632.11,282.341 L1632.11,298.161 C1632.11,299.398 1631.49,300.017 1630.26,300.017 C1629.02,300.017 1628.4,299.398 1628.4,298.161 L1628.4,283.61 L1625.28,284.782 C1625.21,284.847 1624.95,284.88 1624.49,284.88 C1623.97,284.88 1623.52,284.685 1623.13,284.294 C1622.74,283.903 1622.54,283.448 1622.54,282.927 L1622.54,276.872 C1622.54,275.895 1622.96,275.277 1623.81,275.017 L1628.4,273.454 L1628.4,257.438 L1625.28,258.513 C1625.21,258.578 1624.95,258.61 1624.49,258.61 C1623.97,258.61 1623.52,258.415 1623.13,258.024 C1622.74,257.634 1622.54,257.178 1622.54,256.657 L1622.54,250.602 C1622.54,249.691 1622.96,249.105 1623.81,248.845 L1628.4,247.087 L1628.4,231.364 C1628.4,230.127 1629.02,229.509 1630.26,229.509 C1631.49,229.509 1632.11,230.127 1632.11,231.364 L1632.11,245.817 L1640.41,242.692 L1640.41,226.872 C1640.41,225.635 1641.03,225.017 1642.27,225.017 C1643.5,225.017 1644.12,225.635 1644.12,226.872 L1644.12,241.423 L1647.35,240.251 C1647.41,240.186 1647.64,240.153 1648.03,240.153 C1648.49,240.153 1648.97,240.349 1649.49,240.739 C1649.88,241.13 1650.08,241.586 1650.08,242.106 L1650.08,248.161 C1650.08,249.073 1649.62,249.691 1648.71,250.017 L1644.12,251.579 L1644.12,267.595 L1647.35,266.52 C1647.41,266.455 1647.64,266.423 1648.03,266.423 C1648.49,266.423 1648.97,266.618 1649.49,267.009 C1649.88,267.399 1650.08,267.855 1650.08,268.376 L1650.08,274.431 C1650.08,275.277 1649.62,275.863 1648.71,276.188 L1644.12,277.946 L1644.12,293.669 M1640.41,253.044 L1632.11,255.974 L1632.11,271.989 L1640.41,269.06 L1640.41,253.044 "/>
<polyline class="LedgerLine" fill="none" stroke="#000000" stroke-width="4.00" stroke-linecap="square" stroke-linejoin="bevel" points="1154.61,300.019 1202.53,300.019"/>
<polyline class="Stem" fill="none" stroke="#000000" stroke-width="3.25" stroke-linecap="round" stroke-linejoin="bevel" points="277.236,257.821 277.236,156.26"/>
<polyline class="Stem" fill="none" stroke="#000000" stroke-width="3.25" stroke-linecap="round" stroke-linejoin="bevel" points="392.719,232.819 392.719,143.759"/>
<polyline class="Stem" fill="none" stroke="#000000" stroke-width="3.25" stroke-linecap="round" stroke-linejoin="bevel" points="508.201,207.818 508.201,131.258"/>
<polyline class="Stem" fill="none" stroke="#000000" stroke-width="3.25" stroke-linecap="round" stroke-linejoin="bevel" points="623.684,195.317 623.684,118.757"/>
<polyline class="Stem" fill="none" stroke="#000000" stroke-width="3.25" stroke-linecap="round" stroke-linejoin="bevel" points="709.501,217.209 709.501,293.769"/>
<polyline class="Stem" fill="none" stroke="#000000" stroke-width="3.25" stroke-linecap="round" stroke-linejoin="bevel" points="923.939,232.819 923.939,168.761"/>
<polyline class="Stem" fill="none" stroke="#000000" stroke-width="3.25" stroke-linecap="round" stroke-linejoin="bevel" points="1039.42,257.821 1039.42,181.261"/>
<polyline class="Stem" fill="none" stroke="#000000" stroke-width="3.25" stroke-linecap="round" stroke-linejoin="bevel" points="1193.41,295.323 1193.41,212.513"/>
<polyline class="Stem" fill="none" stroke="#000000" stroke-width="3.25" stroke-linecap="round" stroke-linejoin="bevel" points="1413.13,282.822 1413.13,206.263"/>
<polyline class="Stem" fill="none" stroke="#000000" stroke-width="3.25" stroke-linecap="round" stroke-linejoin="bevel" points="1550.45,270.322 1550.45,200.013"/>
<polyline class="Stem" fill="none" stroke="#fc0107" stroke-width="3.25" stroke-linecap="round" stroke-linejoin="bevel" points="1688.68,258.676 1688.68,175.011"/>
<path class="Note" d="M267.918,248.747 C271.043,248.747 273.68,249.561 275.828,251.188 C277.846,252.946 278.855,255.16 278.855,257.829 C278.855,262.321 276.544,266.52 271.922,270.427 C267.234,274.333 262.221,276.286 256.883,276.286 C253.758,276.286 251.121,275.472 248.973,273.845 C246.954,272.087 245.945,269.873 245.945,267.204 C245.945,262.712 248.289,258.513 252.976,254.606 C257.534,250.7 262.514,248.747 267.918,248.747"/>
<path class="Note" d="M383.4,223.745 C386.525,223.745 389.162,224.559 391.311,226.187 C393.329,227.945 394.338,230.158 394.338,232.827 C394.338,237.32 392.027,241.519 387.404,245.425 C382.717,249.331 377.704,251.284 372.365,251.284 C369.24,251.284 366.604,250.471 364.455,248.843 C362.437,247.085 361.428,244.872 361.428,242.202 C361.428,237.71 363.772,233.511 368.459,229.605 C373.016,225.699 377.997,223.745 383.4,223.745"/>
<path class="Note" d="M498.883,198.744 C502.008,198.744 504.645,199.558 506.793,201.185 C508.811,202.943 509.82,205.157 509.82,207.826 C509.82,212.318 507.509,216.517 502.887,220.424 C498.199,224.33 493.186,226.283 487.848,226.283 C484.723,226.283 482.086,225.469 479.938,223.842 C477.919,222.084 476.91,219.87 476.91,217.201 C476.91,212.709 479.254,208.509 483.942,204.603 C488.499,200.697 493.479,198.744 498.883,198.744"/>
<path class="Note" d="M614.366,186.243 C617.491,186.243 620.127,187.057 622.276,188.684 C624.294,190.442 625.303,192.656 625.303,195.325 C625.303,199.817 622.992,204.017 618.369,207.923 C613.682,211.829 608.669,213.782 603.33,213.782 C600.205,213.782 597.569,212.968 595.42,211.341 C593.402,209.583 592.393,207.369 592.393,204.7 C592.393,200.208 594.737,196.009 599.424,192.102 C603.981,188.196 608.962,186.243 614.366,186.243"/>
<path class="Note" d="M729.848,198.744 C732.973,198.744 735.61,199.558 737.758,201.185 C739.777,202.943 740.786,205.157 740.786,207.826 C740.786,212.318 738.474,216.517 733.852,220.424 C729.165,224.33 724.152,226.283 718.813,226.283 C715.688,226.283 713.051,225.469 710.903,223.842 C708.885,222.084 707.875,219.87 707.875,217.201 C707.875,212.709 710.219,208.509 714.907,204.603 C719.464,200.697 724.444,198.744 729.848,198.744"/>
<path class="Note" d="M914.62,223.745 C917.745,223.745 920.382,224.559 922.53,226.187 C924.549,227.945 925.558,230.158 925.558,232.827 C925.558,237.32 923.247,241.519 918.624,245.425 C913.937,249.331 908.924,251.284 903.585,251.284 C900.46,251.284 897.823,250.471 895.675,248.843 C893.657,247.085 892.648,244.872 892.648,242.202 C892.648,237.71 894.991,233.511 899.679,229.605 C904.236,225.699 909.217,223.745 914.62,223.745"/>
<path class="Note" d="M1030.1,248.747 C1033.23,248.747 1035.86,249.561 1038.01,251.188 C1040.03,252.946 1041.04,255.16 1041.04,257.829 C1041.04,262.321 1038.73,266.52 1034.11,270.427 C1029.42,274.333 1024.41,276.286 1019.07,276.286 C1015.94,276.286 1013.31,275.472 1011.16,273.845 C1009.14,272.087 1008.13,269.873 1008.13,267.204 C1008.13,262.712 1010.47,258.513 1015.16,254.606 C1019.72,250.7 1024.7,248.747 1030.1,248.747"/>
<path class="Note" d="M1184.09,286.249 C1187.21,286.249 1189.85,287.063 1192,288.691 C1194.02,290.449 1195.03,292.662 1195.03,295.331 C1195.03,299.824 1192.71,304.023 1188.09,307.929 C1183.4,311.835 1178.39,313.788 1173.05,313.788 C1169.93,313.788 1167.29,312.975 1165.14,311.347 C1163.12,309.589 1162.12,307.376 1162.12,304.706 C1162.12,300.214 1164.46,296.015 1169.15,292.109 C1173.7,288.202 1178.68,286.249 1184.09,286.249"/>
<path class="Note" d="M1403.81,273.749 C1406.93,273.749 1409.57,274.562 1411.72,276.19 C1413.74,277.948 1414.75,280.161 1414.75,282.831 C1414.75,287.323 1412.43,291.522 1407.81,295.428 C1403.12,299.335 1398.11,301.288 1392.77,301.288 C1389.65,301.288 1387.01,300.474 1384.86,298.846 C1382.84,297.088 1381.84,294.875 1381.84,292.206 C1381.84,287.713 1384.18,283.514 1388.87,279.608 C1393.42,275.702 1398.4,273.749 1403.81,273.749"/>
<path class="Note" d="M1541.13,261.248 C1544.26,261.248 1546.89,262.062 1549.04,263.689 C1551.06,265.447 1552.07,267.661 1552.07,270.33 C1552.07,274.822 1549.76,279.021 1545.14,282.927 C1540.45,286.834 1535.44,288.787 1530.1,288.787 C1526.97,288.787 1524.34,287.973 1522.19,286.345 C1520.17,284.588 1519.16,282.374 1519.16,279.705 C1519.16,275.213 1521.5,271.013 1526.19,267.107 C1530.75,263.201 1535.73,261.248 1541.13,261.248"/>
<path class="Note" fill="#fc0107" d="M1687.13,255.974 C1687.13,254.867 1686.7,253.923 1685.86,253.142 C1685.01,252.295 1684.03,251.872 1682.93,251.872 C1680.97,251.872 1677.03,253.825 1671.11,257.731 C1664.99,261.703 1661.25,264.535 1659.88,266.227 C1659.16,267.139 1658.81,268.083 1658.81,269.06 C1658.81,270.166 1659.23,271.11 1660.07,271.892 C1660.86,272.738 1661.83,273.161 1663,273.161 C1664.89,273.161 1668.86,271.208 1674.92,267.302 C1680.91,263.395 1684.62,260.563 1686.05,258.806 C1686.77,257.959 1687.13,257.015 1687.13,255.974 M1681.95,248.747 C1687.55,248.747 1690.35,251.156 1690.35,255.974 C1690.35,258.317 1689.66,261.052 1688.3,264.177 C1686.93,267.237 1685.11,269.58 1682.83,271.208 C1677.82,274.593 1671.53,276.286 1663.98,276.286 C1658.38,276.286 1655.58,273.877 1655.58,269.06 C1655.58,266.911 1656.27,264.209 1657.63,260.954 C1658.94,257.829 1660.76,255.453 1663.1,253.825 C1668.11,250.44 1674.4,248.747 1681.95,248.747"/>
<path class="Clef" d="M56.72,224.43 C56.72,224.43 56.9153,224.43 57.3059,224.43 C57.5664,224.365 57.7942,224.332 57.9895,224.332 C65.2812,224.332 71.2708,226.904 75.9583,232.047 C80.6458,237.125 82.9895,243.05 82.9895,249.82 C82.9895,258.219 79.5065,265.055 72.5403,270.328 C70.7174,271.761 68.3411,272.932 65.4114,273.844 C65.7369,278.076 65.8997,281.494 65.8997,284.098 C65.8997,284.619 65.8346,286.507 65.7044,289.762 C65.444,295.817 63.3606,301.057 59.4544,305.484 C55.6783,309.846 50.9908,312.027 45.3919,312.027 C40.1184,312.027 35.6263,310.172 31.9153,306.461 C28.2044,302.685 26.3489,298.128 26.3489,292.789 C26.3489,289.99 27.4231,287.613 29.5716,285.66 C31.7851,283.707 34.3567,282.731 37.2864,282.731 C39.8906,282.731 42.0716,283.74 43.8294,285.758 C45.6523,287.646 46.5638,289.99 46.5638,292.789 C46.5638,295.328 45.6523,297.509 43.8294,299.332 C42.0065,301.155 39.8255,302.067 37.2864,302.067 C36.2447,302.067 35.2356,301.871 34.2591,301.481 C37.1237,305.712 40.9322,307.828 45.6849,307.828 C50.177,307.828 53.8554,306.005 56.72,302.359 C59.7148,298.583 61.3424,294.189 61.6028,289.176 C61.733,286.051 61.7981,284.261 61.7981,283.805 C61.7981,280.159 61.6679,277.164 61.4075,274.82 C58.1523,275.341 55.2552,275.602 52.7161,275.602 C43.6666,275.602 35.9518,272.021 29.5716,264.859 C23.3216,257.633 20.1966,249.039 20.1966,239.078 C20.1966,236.995 20.3919,234.879 20.7825,232.731 C21.1731,230.973 21.6614,229.052 22.2474,226.969 C22.5729,225.797 23.4518,223.909 24.8841,221.305 C25.4049,220.524 25.9908,219.547 26.6419,218.375 C27.2929,217.203 27.7487,216.422 28.0091,216.031 C28.6601,214.729 29.9296,212.971 31.8177,210.758 C32.3385,210.172 32.8756,209.521 33.429,208.805 C33.9824,208.089 34.4544,207.503 34.845,207.047 C35.2356,206.591 35.5286,206.233 35.7239,205.973 C35.9192,205.712 37.3841,203.987 40.1184,200.797 C40.7695,200.146 41.4043,199.446 42.0227,198.697 C42.6412,197.949 43.1458,197.363 43.5364,196.94 C43.927,196.516 44.22,196.207 44.4153,196.012 C42.0716,188.264 40.6067,182.08 40.0208,177.457 C39.5651,173.746 39.3372,168.668 39.3372,162.223 C39.3372,156.559 40.6393,151.253 43.2434,146.305 C45.7825,141.162 49.3307,136.962 53.888,133.707 C54.1484,133.512 54.4739,133.414 54.8645,133.414 C55.3203,133.414 55.6458,133.512 55.8411,133.707 C59.3567,137.939 62.3841,143.44 64.9231,150.211 C67.5273,156.982 68.8294,163.134 68.8294,168.668 C68.8294,174.918 67.332,180.777 64.3372,186.246 C60.9518,192.04 56.5898,198.03 51.2513,204.215 C52.6184,208.512 54.4414,215.25 56.72,224.43 M65.0208,269.84 C68.4062,268.603 71.0429,266.487 72.9309,263.492 C75.0143,260.628 76.0559,257.405 76.0559,253.824 C76.0559,249.202 74.4934,245.1 71.3684,241.52 C68.1783,237.809 64.1093,235.725 59.1614,235.27 C61.9609,249.007 63.914,260.53 65.0208,269.84 M27.2278,247.281 C27.2278,253.727 29.832,259.391 35.0403,264.274 C40.3789,269.026 46.3684,271.402 53.0091,271.402 C55.7434,271.402 58.4127,271.207 61.0169,270.817 C59.9752,260.921 57.9244,249.072 54.8645,235.27 C51.1536,235.66 48.1914,236.962 45.9778,239.176 C43.8294,241.455 42.7552,244.026 42.7552,246.891 C42.7552,251.839 45.3919,255.843 50.6653,258.902 C51.1211,259.358 51.3489,259.846 51.3489,260.367 C51.3489,260.888 51.1211,261.376 50.6653,261.832 C50.2747,262.288 49.7864,262.516 49.2005,262.516 C49.1354,262.516 48.8424,262.451 48.3216,262.32 C44.6106,260.302 41.7461,257.698 39.7278,254.508 C37.8398,251.123 36.8958,247.705 36.8958,244.254 C36.8958,239.762 38.2955,235.693 41.095,232.047 C44.0247,228.401 47.8333,226.057 52.5208,225.016 C50.6979,217.724 49.2005,212.027 48.0286,207.926 C46.9869,209.098 45.7337,210.514 44.2688,212.174 C42.804,213.834 41.9414,214.827 41.6809,215.152 C39.3372,218.212 37.5468,220.589 36.3099,222.281 C34.0963,225.341 32.4687,227.978 31.427,230.192 C30.3203,232.665 29.3437,235.367 28.4974,238.297 C27.651,241.096 27.2278,244.091 27.2278,247.281 M59.845,147.965 C54.9622,150.374 51.1211,153.824 48.3216,158.317 C45.457,162.939 44.0247,167.919 44.0247,173.258 C44.0247,177.945 45.1966,184.261 47.5403,192.203 C52.2278,186.539 55.7434,181.298 58.0872,176.481 C60.5612,171.402 61.7981,166.096 61.7981,160.563 C61.7981,156.396 61.1471,152.197 59.845,147.965"/>
<path class="KeySig" d="M113.12,220.913 L113.12,228.627 C113.12,231.362 113.25,233.543 113.511,235.17 C115.659,233.348 117.189,231.98 118.101,231.069 C119.142,230.027 120.184,228.595 121.226,226.772 C122.267,224.949 122.788,223.126 122.788,221.303 C122.788,219.48 122.397,217.918 121.616,216.616 C120.835,215.314 119.793,214.663 118.491,214.663 C116.929,214.663 115.627,215.249 114.585,216.42 C113.608,217.723 113.12,219.22 113.12,220.913 M109.019,238.784 L107.749,179.311 C108.66,178.79 109.572,178.53 110.483,178.53 C111.395,178.53 112.306,178.79 113.218,179.311 L112.437,213.784 C115.106,211.505 118.166,210.366 121.616,210.366 C124.155,210.366 126.271,211.407 127.964,213.491 C129.657,215.574 130.503,217.95 130.503,220.62 C130.503,222.312 129.95,224.103 128.843,225.991 C127.801,227.749 126.694,229.116 125.522,230.092 C124.871,230.613 123.211,231.915 120.542,233.999 C119.761,234.584 118.833,235.268 117.759,236.049 C116.685,236.831 116.017,237.319 115.757,237.514 C115.301,237.775 114.878,238.295 114.487,239.077 C114.032,239.728 113.511,240.281 112.925,240.737 C112.469,241.127 111.916,241.323 111.265,241.323 C110.614,241.323 110.093,241.095 109.702,240.639 C109.246,240.183 109.019,239.565 109.019,238.784"/>
<path class="TimeSig" d="M178.494,176.196 C180.447,176.196 182.107,175.968 183.475,175.513 C184.842,175.057 185.721,174.829 186.111,174.829 C186.567,174.829 186.925,174.959 187.186,175.22 C187.381,175.415 187.511,175.643 187.576,175.903 C187.576,176.033 187.511,176.229 187.381,176.489 L158.963,209.497 L175.662,209.497 L175.662,196.411 C175.662,195.565 175.89,194.849 176.346,194.263 C177.127,193.612 177.778,193.221 178.299,193.091 C179.145,192.7 180.187,191.789 181.424,190.356 C182.466,189.184 183.703,187.134 185.135,184.204 C185.33,183.813 185.623,183.618 186.014,183.618 C186.795,183.618 187.251,184.074 187.381,184.985 L187.381,209.497 L194.51,209.497 C195.421,209.497 195.942,209.985 196.072,210.962 C196.072,211.938 195.551,212.427 194.51,212.427 L187.381,212.427 L187.381,213.208 C187.381,215.812 188.032,218.026 189.334,219.849 C190.831,221.671 192.589,222.583 194.607,222.583 C195.389,222.583 195.779,222.974 195.779,223.755 C195.779,224.536 195.389,224.927 194.607,224.927 C193.24,224.927 191.027,224.731 187.967,224.341 C185.167,223.885 182.986,223.657 181.424,223.657 C179.796,223.657 177.615,223.885 174.881,224.341 C171.951,224.731 169.77,224.927 168.338,224.927 C167.557,224.927 167.166,224.536 167.166,223.755 C167.166,222.974 167.557,222.583 168.338,222.583 C170.356,222.583 172.114,221.671 173.611,219.849 C174.979,217.961 175.662,215.747 175.662,213.208 L175.662,212.427 L158.963,212.427 C157.856,212.427 157.075,212.166 156.619,211.645 C156.098,211.255 155.838,210.734 155.838,210.083 C155.838,209.888 156.326,209.204 157.303,208.032 C158.41,206.73 159.581,205.135 160.818,203.247 C162.251,201.033 163.618,198.755 164.92,196.411 C166.352,193.742 167.492,190.682 168.338,187.231 C169.315,183.716 169.803,180.135 169.803,176.489 C169.803,175.447 170.259,174.927 171.17,174.927 C171.365,174.927 171.788,175.024 172.44,175.22 C172.635,175.285 173.042,175.382 173.66,175.513 C174.279,175.643 174.783,175.773 175.174,175.903 C176.346,176.099 177.453,176.196 178.494,176.196"/>
<path class="TimeSig" d="M178.494,226.371 C180.447,226.371 182.107,226.143 183.475,225.688 C184.842,225.232 185.721,225.004 186.111,225.004 C186.567,225.004 186.925,225.134 187.186,225.395 C187.381,225.59 187.511,225.818 187.576,226.078 C187.576,226.208 187.511,226.404 187.381,226.664 L158.963,259.672 L175.662,259.672 L175.662,246.586 C175.662,245.74 175.89,245.024 176.346,244.438 C177.127,243.787 177.778,243.396 178.299,243.266 C179.145,242.875 180.187,241.964 181.424,240.531 C182.466,239.36 183.703,237.309 185.135,234.379 C185.33,233.988 185.623,233.793 186.014,233.793 C186.795,233.793 187.251,234.249 187.381,235.16 L187.381,259.672 L194.51,259.672 C195.421,259.672 195.942,260.16 196.072,261.137 C196.072,262.113 195.551,262.602 194.51,262.602 L187.381,262.602 L187.381,263.383 C187.381,265.987 188.032,268.201 189.334,270.024 C190.831,271.846 192.589,272.758 194.607,272.758 C195.389,272.758 195.779,273.149 195.779,273.93 C195.779,274.711 195.389,275.102 194.607,275.102 C193.24,275.102 191.027,274.906 187.967,274.516 C185.167,274.06 182.986,273.832 181.424,273.832 C179.796,273.832 177.615,274.06 174.881,274.516 C171.951,274.906 169.77,275.102 168.338,275.102 C167.557,275.102 167.166,274.711 167.166,273.93 C167.166,273.149 167.557,272.758 168.338,272.758 C170.356,272.758 172.114,271.846 173.611,270.024 C174.979,268.136 175.662,265.922 175.662,263.383 L175.662,262.602 L158.963,262.602 C157.856,262.602 157.075,262.341 156.619,261.82 C156.098,261.43 155.838,260.909 155.838,260.258 C155.838,260.063 156.326,259.379 157.303,258.207 C158.41,256.905 159.581,255.31 160.818,253.422 C162.251,251.208 163.618,248.93 164.92,246.586 C166.352,243.917 167.492,240.857 168.338,237.406 C169.315,233.891 169.803,230.31 169.803,226.664 C169.803,225.623 170.259,225.102 171.17,225.102 C171.365,225.102 171.788,225.199 172.44,225.395 C172.635,225.46 173.042,225.557 173.66,225.688 C174.279,225.818 174.783,225.948 175.174,226.078 C176.346,226.274 177.453,226.371 178.494,226.371"/>
<path class="Beam" fill-rule="evenodd" d="M275.611,150.325 L625.309,112.471 L625.309,125.044 L275.611,162.899 L275.611,150.325 "/>
<path class="Beam" fill-rule="evenodd" d="M922.314,162.122 L1041.05,174.975 L1041.05,187.548 L922.314,174.696 L922.314,162.122 "/>
<path class="Beam" fill-rule="evenodd" d="M1411.5,200.154 L1552.08,193.756 L1552.08,206.269 L1411.5,212.668 L1411.5,200.154 "/>
</svg>
