<?xml version="1.0" encoding="UTF-8" standalone="no"?>
<svg width="1985.1px" height="425.197px" viewBox="0 0 1985.1 425.197"
 xmlns="http://www.w3.org/2000/svg" xmlns:xlink="http://www.w3.org/1999/xlink" version="1.2" baseProfile="tiny">
<title>melody-right-note</title>
<desc>Generated by MuseScore 3.4.2</desc>
<polyline class="StaffLines" fill="none" stroke="#000000" stroke-width="2.00" stroke-linejoin="bevel" points="0,175.011 1985.1,175.011"/>
<polyline class="StaffLines" fill="none" stroke="#000000" stroke-width="2.00" stroke-linejoin="bevel" points="0,200.013 1985.1,200.013"/>
<polyline class="StaffLines" fill="none" stroke="#000000" stroke-width="2.00" stroke-linejoin="bevel" points="0,225.014 1985.1,225.014"/>
<polyline class="StaffLines" fill="none" stroke="#000000" stroke-width="2.00" stroke-linejoin="bevel" points="0,250.016 1985.1,250.016"/>
<polyline class="StaffLines" fill="none" stroke="#000000" stroke-width="2.00" stroke-linejoin="bevel" points="0,275.017 1985.1,275.017"/>
<polyline class="BarLine" fill="none" stroke="#000000" stroke-width="4.00" stroke-linejoin="bevel" points="1148.2,174.011 1148.2,276.017"/>
<polyline class="BarLine" fill="none" stroke="#000000" stroke-width="4.00" stroke-linejoin="bevel" points="1960.6,174.011 1960.6,276.017"/>
<polyline class="BarLine" fill="none" stroke="#000000" stroke-width="12.50" stroke-linejoin="bevel" points="1978.85,174.011 1978.85,276.017"/>
<polyline class="LedgerLine" fill="none" stroke="#000000" stroke-width="4.00" stroke-linecap="square" stroke-linejoin="bevel" points="1177.2,300.019 1225.12,300.019"/>
<polyline class="Stem" fill="none" stroke="#000000" stroke-width="3.25" stroke-linecap="round" stroke-linejoin="bevel" points="277.236,257.821 277.236,156.26"/>
<polyline class="Stem" fill="none" stroke="#000000" stroke-width="3.25" stroke-linecap="round" stroke-linejoin="bevel" points="395.69,232.819 395.69,143.759"/>
<polyline class="Stem" fill="none" stroke="#000000" stroke-width="3.25" stroke-linecap="round" stroke-linejoin="bevel" points="514.145,207.818 514.145,131.258"/>
<polyline class="Stem" fill="none" stroke="#000000" stroke-width="3.25" stroke-linecap="round" stroke-linejoin="bevel" points="632.599,195.317 632.599,118.757"/>
<polyline class="Stem" fill="none" stroke="#000000" stroke-width="3.25" stroke-linecap="round" stroke-linejoin="bevel" points="721.387,217.209 721.387,293.769"/>
<polyline class="Stem" fill="none" stroke="#000000" stroke-width="3.25" stroke-linecap="round" stroke-linejoin="bevel" points="940.58,232.819 940.58,168.761"/>
<polyline class="Stem" fill="none" stroke="#000000" stroke-width="3.25" stroke-linecap="round" stroke-linejoin="bevel" points="1059.03,257.821 1059.03,181.261"/>
<polyline class="Stem" fill="none" stroke="#000000" stroke-width="3.25" stroke-linecap="round" stroke-linejoin="bevel" points="1215.99,295.323 1215.99,212.513"/>
<polyline class="Stem" fill="none" stroke="#000000" stroke-width="3.25" stroke-linecap="round" stroke-linejoin="bevel" points="1429.48,282.822 1429.48,206.263"/>
<polyline class="Stem" fill="none" stroke="#000000" stroke-width="3.25" stroke-linecap="round" stroke-linejoin="bevel" points="1562.91,270.322 1562.91,200.013"/>
<polyline class="Stem" fill="none" stroke="#149e02" stroke-width="3.25" stroke-linecap="round" stroke-linejoin="bevel" points="1697.25,258.676 1697.25,175.011"/>
<path class="Note" d="M267.918,248.747 C271.043,248.747 273.68,249.561 275.828,251.188 C277.846,252.946 278.855,255.16 278.855,257.829 C278.855,262.321 276.544,266.52 271.922,270.427 C267.234,274.333 262.221,276.286 256.883,276.286 C253.758,276.286 251.121,275.472 248.973,273.845 C246.954,272.087 245.945,269.873 245.945,267.204 C245.945,262.712 248.289,258.513 252.976,254.606 C257.534,250.7 262.514,248.747 267.918,248.747"/>
<path class="Note" d="M386.372,223.745 C389.497,223.745 392.134,224.559 394.282,226.187 C396.3,227.945 397.309,230.158 397.309,232.827 C397.309,237.32 394.998,241.519 390.376,245.425 C385.688,249.331 380.675,251.284 375.337,251.284 C372.212,251.284 369.575,250.471 367.427,248.843 C365.408,247.085 364.399,244.872 364.399,242.202 C364.399,237.71 366.743,233.511 371.431,229.605 C375.988,225.699 380.968,223.745 386.372,223.745"/>
<path class="Note" d="M504.826,198.744 C507.951,198.744 510.588,199.558 512.736,201.185 C514.755,202.943 515.764,205.157 515.764,207.826 C515.764,212.318 513.452,216.517 508.83,220.424 C504.143,224.33 499.13,226.283 493.791,226.283 C490.666,226.283 488.029,225.469 485.881,223.842 C483.863,222.084 482.854,219.87 482.854,217.201 C482.854,212.709 485.197,208.509 489.885,204.603 C494.442,200.697 499.423,198.744 504.826,198.744"/>
<path class="Note" d="M623.28,186.243 C626.405,186.243 629.042,187.057 631.19,188.684 C633.209,190.442 634.218,192.656 634.218,195.325 C634.218,199.817 631.907,204.017 627.284,207.923 C622.597,211.829 617.584,213.782 612.245,213.782 C609.12,213.782 606.483,212.968 604.335,211.341 C602.317,209.583 601.308,207.369 601.308,204.7 C601.308,200.208 603.651,196.009 608.339,192.102 C612.896,188.196 617.877,186.243 623.28,186.243"/>
<path class="Note" d="M741.734,198.744 C744.859,198.744 747.496,199.558 749.645,201.185 C751.663,202.943 752.672,205.157 752.672,207.826 C752.672,212.318 750.361,216.517 745.738,220.424 C741.051,224.33 736.038,226.283 730.699,226.283 C727.574,226.283 724.938,225.469 722.789,223.842 C720.771,222.084 719.762,219.87 719.762,217.201 C719.762,212.709 722.106,208.509 726.793,204.603 C731.35,200.697 736.331,198.744 741.734,198.744"/>
<path class="Note" d="M931.261,223.745 C934.386,223.745 937.023,224.559 939.171,226.187 C941.19,227.945 942.199,230.158 942.199,232.827 C942.199,237.32 939.887,241.519 935.265,245.425 C930.578,249.331 925.565,251.284 920.226,251.284 C917.101,251.284 914.464,250.471 912.316,248.843 C910.298,247.085 909.288,244.872 909.288,242.202 C909.288,237.71 911.632,233.511 916.32,229.605 C920.877,225.699 925.857,223.745 931.261,223.745"/>
<path class="Note" d="M1049.72,248.747 C1052.84,248.747 1055.48,249.561 1057.63,251.188 C1059.64,252.946 1060.65,255.16 1060.65,257.829 C1060.65,262.321 1058.34,266.52 1053.72,270.427 C1049.03,274.333 1044.02,276.286 1038.68,276.286 C1035.56,276.286 1032.92,275.472 1030.77,273.845 C1028.75,272.087 1027.74,269.873 1027.74,267.204 C1027.74,262.712 1030.09,258.513 1034.77,254.606 C1039.33,250.7 1044.31,248.747 1049.72,248.747"/>
<path class="Note" d="M1206.67,286.249 C1209.8,286.249 1212.43,287.063 1214.58,288.691 C1216.6,290.449 1217.61,292.662 1217.61,295.331 C1217.61,299.824 1215.3,304.023 1210.68,307.929 C1205.99,311.835 1200.98,313.788 1195.64,313.788 C1192.51,313.788 1189.88,312.975 1187.73,311.347 C1185.71,309.589 1184.7,307.376 1184.7,304.706 C1184.7,300.214 1187.04,296.015 1191.73,292.109 C1196.29,288.202 1201.27,286.249 1206.67,286.249"/>
<path class="Note" d="M1420.16,273.749 C1423.29,273.749 1425.92,274.562 1428.07,276.19 C1430.09,277.948 1431.1,280.161 1431.1,282.831 C1431.1,287.323 1428.79,291.522 1424.17,295.428 C1419.48,299.335 1414.47,301.288 1409.13,301.288 C1406,301.288 1403.37,300.474 1401.22,298.846 C1399.2,297.088 1398.19,294.875 1398.19,292.206 C1398.19,287.713 1400.53,283.514 1405.22,279.608 C1409.78,275.702 1414.76,273.749 1420.16,273.749"/>
<path class="Note" d="M1553.59,261.248 C1556.72,261.248 1559.35,262.062 1561.5,263.689 C1563.52,265.447 1564.53,267.661 1564.53,270.33 C1564.53,274.822 1562.22,279.021 1557.6,282.927 C1552.91,286.834 1547.9,288.787 1542.56,288.787 C1539.43,288.787 1536.8,287.973 1534.65,286.345 C1532.63,284.588 1531.62,282.374 1531.62,279.705 C1531.62,275.213 1533.96,271.013 1538.65,267.107 C1543.21,263.201 1548.19,261.248 1553.59,261.248"/>
<path class="Note" fill="#149e02" d="M1695.69,255.974 C1695.69,254.867 1695.27,253.923 1694.42,253.142 C1693.58,252.295 1692.6,251.872 1691.49,251.872 C1689.54,251.872 1685.6,253.825 1679.68,257.731 C1673.56,261.703 1669.81,264.535 1668.45,266.227 C1667.73,267.139 1667.37,268.083 1667.37,269.06 C1667.37,270.166 1667.8,271.11 1668.64,271.892 C1669.42,272.738 1670.4,273.161 1671.57,273.161 C1673.46,273.161 1677.43,271.208 1683.49,267.302 C1689.47,263.395 1693.19,260.563 1694.62,258.806 C1695.33,257.959 1695.69,257.015 1695.69,255.974 M1690.52,248.747 C1696.12,248.747 1698.92,251.156 1698.92,255.974 C1698.92,258.317 1698.23,261.052 1696.86,264.177 C1695.5,267.237 1693.67,269.58 1691.4,271.208 C1686.38,274.593 1680.1,276.286 1672.55,276.286 C1666.95,276.286 1664.15,273.877 1664.15,269.06 C1664.15,266.911 1664.83,264.209 1666.2,260.954 C1667.5,257.829 1669.33,255.453 1671.67,253.825 C1676.68,250.44 1682.96,248.747 1690.52,248.747"/>
<path class="Clef" d="M56.72,224.43 C56.72,224.43 56.9153,224.43 57.3059,224.43 C57.5664,224.365 57.7942,224.332 57.9895,224.332 C65.2812,224.332 71.2708,226.904 75.9583,232.047 C80.6458,237.125 82.9895,243.05 82.9895,249.82 C82.9895,258.219 79.5065,265.055 72.5403,270.328 C70.7174,271.761 68.3411,272.932 65.4114,273.844 C65.7369,278.076 65.8997,281.494 65.8997,284.098 C65.8997,284.619 65.8346,286.507 65.7044,289.762 C65.444,295.817 63.3606,301.057 59.4544,305.484 C55.6783,309.846 50.9908,312.027 45.3919,312.027 C40.1184,312.027 35.6263,310.172 31.9153,306.461 C28.2044,302.685 26.3489,298.128 26.3489,292.789 C26.3489,289.99 27.4231,287.613 29.5716,285.66 C31.7851,283.707 34.3567,282.731 37.2864,282.731 C39.8906,282.731 42.0716,283.74 43.8294,285.758 C45.6523,287.646 46.5638,289.99 46.5638,292.789 C46.5638,295.328 45.6523,297.509 43.8294,299.332 C42.0065,301.155 39.8255,302.067 37.2864,302.067 C36.2447,302.067 35.2356,301.871 34.2591,301.481 C37.1237,305.712 40.9322,307.828 45.6849,307.828 C50.177,307.828 53.8554,306.005 56.72,302.359 C59.7148,298.583 61.3424,294.189 61.6028,289.176 C61.733,286.051 61.7981,284.261 61.7981,283.805 C61.7981,280.159 61.6679,277.164 61.4075,274.82 C58.1523,275.341 55.2552,275.602 52.7161,275.602 C43.6666,275.602 35.9518,272.021 29.5716,264.859 C23.3216,257.633 20.1966,249.039 20.1966,239.078 C20.1966,236.995 20.3919,234.879 20.7825,232.731 C21.1731,230.973 21.6614,229.052 22.2474,226.969 C22.5729,225.797 23.4518,223.909 24.8841,221.305 C25.4049,220.524 25.9908,219.547 26.6419,218.375 C27.2929,217.203 27.7487,216.422 28.0091,216.031 C28.6601,214.729 29.9296,212.971 31.8177,210.758 C32.3385,210.172 32.8756,209.521 33.429,208.805 C33.9824,208.089 34.4544,207.503 34.845,207.047 C35.2356,206.591 35.5286,206.233 35.7239,205.973 C35.9192,205.712 37.3841,203.987 40.1184,200.797 C40.7695,200.146 41.4043,199.446 42.0227,198.697 C42.6412,197.949 43.1458,197.363 43.5364,196.94 C43.927,196.516 44.22,196.207 44.4153,196.012 C42.0716,188.264 40.6067,182.08 40.0208,177.457 C39.5651,173.746 39.3372,168.668 39.3372,162.223 C39.3372,156.559 40.6393,151.253 43.2434,146.305 C45.7825,141.162 49.3307,136.962 53.888,133.707 C54.1484,133.512 54.4739,133.414 54.8645,133.414 C55.3203,133.414 55.6458,133.512 55.8411,133.707 C59.3567,137.939 62.3841,143.44 64.9231,150.211 C67.5273,156.982 68.8294,163.134 68.8294,168.668 C68.8294,174.918 67.332,180.777 64.3372,186.246 C60.9518,192.04 56.5898,198.03 51.2513,204.215 C52.6184,208.512 54.4414,215.25 56.72,224.43 M65.0208,269.84 C68.4062,268.603 71.0429,266.487 72.9309,263.492 C75.0143,260.628 76.0559,257.405 76.0559,253.824 C76.0559,249.202 74.4934,245.1 71.3684,241.52 C68.1783,237.809 64.1093,235.725 59.1614,235.27 C61.9609,249.007 63.914,260.53 65.0208,269.84 M27.2278,247.281 C27.2278,253.727 29.832,259.391 35.0403,264.274 C40.3789,269.026 46.3684,271.402 53.0091,271.402 C55.7434,271.402 58.4127,271.207 61.0169,270.817 C59.9752,260.921 57.9244,249.072 54.8645,235.27 C51.1536,235.66 48.1914,236.962 45.9778,239.176 C43.8294,241.455 42.7552,244.026 42.7552,246.891 C42.7552,251.839 45.3919,255.843 50.6653,258.902 C51.1211,259.358 51.3489,259.846 51.3489,260.367 C51.3489,260.888 51.1211,261.376 50.6653,261.832 C50.2747,262.288 49.7864,262.516 49.2005,262.516 C49.1354,262.516 48.8424,262.451 48.3216,262.32 C44.6106,260.302 41.7461,257.698 39.7278,254.508 C37.8398,251.123 36.8958,247.705 36.8958,244.254 C36.8958,239.762 38.2955,235.693 41.095,232.047 C44.0247,228.401 47.8333,226.057 52.5208,225.016 C50.6979,217.724 49.2005,212.027 48.0286,207.926 C46.9869,209.098 45.7337,210.514 44.2688,212.174 C42.804,213.834 41.9414,214.827 41.6809,215.152 C39.3372,218.212 37.5468,220.589 36.3099,222.281 C34.0963,225.341 32.4687,227.978 31.427,230.192 C30.3203,232.665 29.3437,235.367 28.4974,238.297 C27.651,241.096 27.2278,244.091 27.2278,247.281 M59.845,147.965 C54.9622,150.374 51.1211,153.824 48.3216,158.317 C45.457,162.939 44.0247,167.919 44.0247,173.258 C44.0247,177.945 45.1966,184.261 47.5403,192.203 C52.2278,186.539 55.7434,181.298 58.0872,176.481 C60.5612,171.402 61.7981,166.096 61.7981,160.563 C61.7981,156.396 61.1471,152.197 59.845,147.965"/>
<path class="KeySig" d="M113.12,220.913 L113.12,228.627 C113.12,231.362 113.25,233.543 113.511,235.17 C115.659,233.348 117.189,231.98 118.101,231.069 C119.142,230.027 120.184,228.595 121.226,226.772 C122.267,224.949 122.788,223.126 122.788,221.303 C122.788,219.48 122.397,217.918 121.616,216.616 C120.835,215.314 119.793,214.663 118.491,214.663 C116.929,214.663 115.627,215.249 114.585,216.42 C113.608,217.723 113.12,219.22 113.12,220.913 M109.019,238.784 L107.749,179.311 C108.66,178.79 109.572,178.53 110.483,178.53 C111.395,178.53 112.306,178.79 113.218,179.311 L112.437,213.784 C115.106,211.505 118.166,210.366 121.616,210.366 C124.155,210.366 126.271,211.407 127.964,213.491 C129.657,215.574 130.503,217.95 130.503,220.62 C130.503,222.312 129.95,224.103 128.843,225.991 C127.801,227.749 126.694,229.116 125.522,230.092 C124.871,230.613 123.211,231.915 120.542,233.999 C119.761,234.584 118.833,235.268 117.759,236.049 C116.685,236.831 116.017,237.319 115.757,237.514 C115.301,237.775 114.878,238.295 114.487,239.077 C114.032,239.728 113.511,240.281 112.925,240.737 C112.469,241.127 111.916,241.323 111.265,241.323 C110.614,241.323 110.093,241.095 109.702,240.639 C109.246,240.183 109.019,239.565 109.019,238.784"/>
<path class="TimeSig" d="M178.494,176.196 C180.447,176.196 182.107,175.968 183.475,175.513 C184.842,175.057 185.721,174.829 186.111,174.829 C186.567,174.829 186.925,174.959 187.186,175.22 C187.381,175.415 187.511,175.643 187.576,175.903 C187.576,176.033 187.511,176.229 187.381,176.489 L158.963,209.497 L175.662,209.497 L175.662,196.411 C175.662,195.565 175.89,194.849 176.346,194.263 C177.127,193.612 177.778,193.221 178.299,193.091 C179.145,192.7 180.187,191.789 181.424,190.356 C182.466,189.184 183.703,187.134 185.135,184.204 C185.33,183.813 185.623,183.618 186.014,183.618 C186.795,183.618 187.251,184.074 187.381,184.985 L187.381,209.497 L194.51,209.497 C195.421,209.497 195.942,209.985 196.072,210.962 C196.072,211.938 195.551,212.427 194.51,212.427 L187.381,212.427 L187.381,213.208 C187.381,215.812 188.032,218.026 189.334,219.849 C190.831,221.671 192.589,222.583 194.607,222.583 C195.389,222.583 195.779,222.974 195.779,223.755 C195.779,224.536 195.389,224.927 194.607,224.927 C193.24,224.927 191.027,224.731 187.967,224.341 C185.167,223.885 182.986,223.657 181.424,223.657 C179.796,223.657 177.615,223.885 174.881,224.341 C171.951,224.731 169.77,224.927 168.338,224.927 C167.557,224.927 167.166,224.536 167.166,223.755 C167.166,222.974 167.557,222.583 168.338,222.583 C170.356,222.583 172.114,221.671 173.611,219.849 C174.979,217.961 175.662,215.747 175.662,213.208 L175.662,212.427 L158.963,212.427 C157.856,212.427 157.075,212.166 156.619,211.645 C156.098,211.255 155.838,210.734 155.838,210.083 C155.838,209.888 156.326,209.204 157.303,208.032 C158.41,206.73 159.581,205.135 160.818,203.247 C162.251,201.033 163.618,198.755 164.92,196.411 C166.352,193.742 167.492,190.682 168.338,187.231 C169.315,183.716 169.803,180.135 169.803,176.489 C169.803,175.447 170.259,174.927 171.17,174.927 C171.365,174.927 171.788,175.024 172.44,175.22 C172.635,175.285 173.042,175.382 173.66,175.513 C174.279,175.643 174.783,175.773 175.174,175.903 C176.346,176.099 177.453,176.196 178.494,176.196"/>
<path class="TimeSig" d="M178.494,226.371 C180.447,226.371 182.107,226.143 183.475,225.688 C184.842,225.232 185.721,225.004 186.111,225.004 C186.567,225.004 186.925,225.134 187.186,225.395 C187.381,225.59 187.511,225.818 187.576,226.078 C187.576,226.208 187.511,226.404 187.381,226.664 L158.963,259.672 L175.662,259.672 L175.662,246.586 C175.662,245.74 175.89,245.024 176.346,244.438 C177.127,243.787 177.778,243.396 178.299,243.266 C179.145,242.875 180.187,241.964 181.424,240.531 C182.466,239.36 183.703,237.309 185.135,234.379 C185.33,233.988 185.623,233.793 186.014,233.793 C186.795,233.793 187.251,234.249 187.381,235.16 L187.381,259.672 L194.51,259.672 C195.421,259.672 195.942,260.16 196.072,261.137 C196.072,262.113 195.551,262.602 194.51,262.602 L187.381,262.602 L187.381,263.383 C187.381,265.987 188.032,268.201 189.334,270.024 C190.831,271.846 192.589,272.758 194.607,272.758 C195.389,272.758 195.779,273.149 195.779,273.93 C195.779,274.711 195.389,275.102 194.607,275.102 C193.24,275.102 191.027,274.906 187.967,274.516 C185.167,274.06 182.986,273.832 181.424,273.832 C179.796,273.832 177.615,274.06 174.881,274.516 C171.951,274.906 169.77,275.102 168.338,275.102 C167.557,275.102 167.166,274.711 167.166,273.93 C167.166,273.149 167.557,272.758 168.338,272.758 C170.356,272.758 172.114,271.846 173.611,270.024 C174.979,268.136 175.662,265.922 175.662,263.383 L175.662,262.602 L158.963,262.602 C157.856,262.602 157.075,262.341 156.619,261.82 C156.098,261.43 155.838,260.909 155.838,260.258 C155.838,260.063 156.326,259.379 157.303,258.207 C158.41,256.905 159.581,255.31 160.818,253.422 C162.251,251.208 163.618,248.93 164.92,246.586 C166.352,243.917 167.492,240.857 168.338,237.406 C169.315,233.891 169.803,230.31 169.803,226.664 C169.803,225.623 170.259,225.102 171.17,225.102 C171.365,225.102 171.788,225.199 172.44,225.395 C172.635,225.46 173.042,225.557 173.66,225.688 C174.279,225.818 174.783,225.948 175.174,226.078 C176.346,226.274 177.453,226.371 178.494,226.371"/>
<path class="Beam" fill-rule="evenodd" d="M275.611,150.318 L634.224,112.472 L634.224,125.043 L275.611,162.888 L275.611,150.318 "/>
<path class="Beam" fill-rule="evenodd" d="M938.954,162.133 L1060.66,174.976 L1060.66,187.547 L938.954,174.703 L938.954,162.133 "/>
<path class="Beam" fill-rule="evenodd" d="M1427.86,200.158 L1564.54,193.755 L1564.54,206.27 L1427.86,212.672 L1427.86,200.158 "/>
</svg>
