<?xml version="1.0" encoding="UTF-8" standalone="no"?>
<svg width="850.392px" height="425.196px" viewBox="0 0 850.392 425.196"
 xmlns="http://www.w3.org/2000/svg" xmlns:xlink="http://www.w3.org/1999/xlink" version="1.2" baseProfile="tiny">
<title>narmour-5</title>
<desc>Generated by MuseScore 3.4.2</desc>
<polyline class="StaffLines" fill="none" stroke="#000000" stroke-width="2.00" stroke-linejoin="bevel" points="0,175.011 850.392,175.011"/>
<polyline class="StaffLines" fill="none" stroke="#000000" stroke-width="2.00" stroke-linejoin="bevel" points="0,200.013 850.392,200.013"/>
<polyline class="StaffLines" fill="none" stroke="#000000" stroke-width="2.00" stroke-linejoin="bevel" points="0,225.014 850.392,225.014"/>
<polyline class="StaffLines" fill="none" stroke="#000000" stroke-width="2.00" stroke-linejoin="bevel" points="0,250.016 850.392,250.016"/>
<polyline class="StaffLines" fill="none" stroke="#000000" stroke-width="2.00" stroke-linejoin="bevel" points="0,275.017 850.392,275.017"/>
<polyline class="BarLine" fill="none" stroke="#000000" stroke-width="4.00" stroke-linejoin="bevel" points="848.392,174.011 848.392,276.017"/>
<path class="Accidental" d="M379.888,220.913 L379.888,228.627 C379.888,231.362 380.018,233.543 380.278,235.17 C382.427,233.348 383.957,231.98 384.868,231.069 C385.91,230.027 386.952,228.595 387.993,226.772 C389.035,224.949 389.556,223.126 389.556,221.303 C389.556,219.48 389.165,217.918 388.384,216.616 C387.603,215.314 386.561,214.663 385.259,214.663 C383.696,214.663 382.394,215.249 381.353,216.42 C380.376,217.723 379.888,219.22 379.888,220.913 M375.786,238.784 L374.517,179.311 C375.428,178.79 376.34,178.53 377.251,178.53 C378.162,178.53 379.074,178.79 379.985,179.311 L379.204,213.784 C381.873,211.505 384.933,210.366 388.384,210.366 C390.923,210.366 393.039,211.407 394.732,213.491 C396.424,215.574 397.271,217.95 397.271,220.62 C397.271,222.312 396.717,224.103 395.61,225.991 C394.569,227.749 393.462,229.116 392.29,230.092 C391.639,230.613 389.979,231.915 387.31,233.999 C386.528,234.584 385.601,235.268 384.526,236.049 C383.452,236.831 382.785,237.319 382.524,237.514 C382.069,237.775 381.646,238.295 381.255,239.077 C380.799,239.728 380.278,240.281 379.692,240.737 C379.237,241.127 378.683,241.323 378.032,241.323 C377.381,241.323 376.86,241.095 376.47,240.639 C376.014,240.183 375.786,239.565 375.786,238.784"/>
<polyline class="LedgerLine" fill="none" stroke="#000000" stroke-width="4.00" stroke-linecap="square" stroke-linejoin="bevel" points="173.761,300.019 221.678,300.019"/>
<polyline class="Stem" fill="none" stroke="#000000" stroke-width="3.25" stroke-linecap="round" stroke-linejoin="bevel" points="212.552,295.323 212.552,212.513"/>
<polyline class="Stem" fill="none" stroke="#000000" stroke-width="3.25" stroke-linecap="round" stroke-linejoin="bevel" points="404.597,229.71 404.597,303.144"/>
<polyline class="Stem" fill="none" stroke="#0000ff" stroke-width="3.25" stroke-linecap="round" stroke-linejoin="bevel" points="655.973,232.819 655.973,156.26"/>
<path class="Note" d="M203.234,286.249 C206.359,286.249 208.996,287.063 211.144,288.691 C213.162,290.449 214.172,292.662 214.172,295.331 C214.172,299.824 211.86,304.023 207.238,307.929 C202.55,311.835 197.537,313.788 192.199,313.788 C189.074,313.788 186.437,312.975 184.289,311.347 C182.271,309.589 181.261,307.376 181.261,304.706 C181.261,300.214 183.605,296.015 188.293,292.109 C192.85,288.202 197.83,286.249 203.234,286.249"/>
<path class="Note" d="M424.944,211.245 C428.069,211.245 430.706,212.058 432.854,213.686 C434.873,215.444 435.882,217.657 435.882,220.327 C435.882,224.819 433.57,229.018 428.948,232.924 C424.261,236.831 419.248,238.784 413.909,238.784 C410.784,238.784 408.147,237.97 405.999,236.342 C403.981,234.584 402.972,232.371 402.972,229.702 C402.972,225.209 405.315,221.01 410.003,217.104 C414.56,213.198 419.541,211.245 424.944,211.245"/>
<path class="Note" fill="#0000ff" d="M646.654,223.745 C649.779,223.745 652.416,224.559 654.564,226.187 C656.583,227.945 657.592,230.158 657.592,232.827 C657.592,237.32 655.281,241.519 650.658,245.425 C645.971,249.331 640.958,251.284 635.619,251.284 C632.494,251.284 629.857,250.471 627.709,248.843 C625.691,247.085 624.682,244.872 624.682,242.202 C624.682,237.71 627.025,233.511 631.713,229.605 C636.27,225.699 641.251,223.745 646.654,223.745"/>
<path class="Clef" d="M56.72,224.43 C56.72,224.43 56.9153,224.43 57.3059,224.43 C57.5664,224.365 57.7942,224.332 57.9895,224.332 C65.2812,224.332 71.2708,226.904 75.9583,232.047 C80.6458,237.125 82.9895,243.05 82.9895,249.82 C82.9895,258.219 79.5065,265.055 72.5403,270.328 C70.7174,271.761 68.3411,272.932 65.4114,273.844 C65.7369,278.076 65.8997,281.494 65.8997,284.098 C65.8997,284.619 65.8346,286.507 65.7044,289.762 C65.444,295.817 63.3606,301.057 59.4544,305.484 C55.6783,309.846 50.9908,312.027 45.3919,312.027 C40.1184,312.027 35.6263,310.172 31.9153,306.461 C28.2044,302.685 26.3489,298.128 26.3489,292.789 C26.3489,289.99 27.4231,287.613 29.5716,285.66 C31.7851,283.707 34.3567,282.731 37.2864,282.731 C39.8906,282.731 42.0716,283.74 43.8294,285.758 C45.6523,287.646 46.5638,289.99 46.5638,292.789 C46.5638,295.328 45.6523,297.509 43.8294,299.332 C42.0065,301.155 39.8255,302.067 37.2864,302.067 C36.2447,302.067 35.2356,301.871 34.2591,301.481 C37.1237,305.712 40.9322,307.828 45.6849,307.828 C50.177,307.828 53.8554,306.005 56.72,302.359 C59.7148,298.583 61.3424,294.189 61.6028,289.176 C61.733,286.051 61.7981,284.261 61.7981,283.805 C61.7981,280.159 61.6679,277.164 61.4075,274.82 C58.1523,275.341 55.2552,275.602 52.7161,275.602 C43.6666,275.602 35.9518,272.021 29.5716,264.859 C23.3216,257.633 20.1966,249.039 20.1966,239.078 C20.1966,236.995 20.3919,234.879 20.7825,232.731 C21.1731,230.973 21.6614,229.052 22.2474,226.969 C22.5729,225.797 23.4518,223.909 24.8841,221.305 C25.4049,220.524 25.9908,219.547 26.6419,218.375 C27.2929,217.203 27.7487,216.422 28.0091,216.031 C28.6601,214.729 29.9296,212.971 31.8177,210.758 C32.3385,210.172 32.8756,209.521 33.429,208.805 C33.9824,208.089 34.4544,207.503 34.845,207.047 C35.2356,206.591 35.5286,206.233 35.7239,205.973 C35.9192,205.712 37.3841,203.987 40.1184,200.797 C40.7695,200.146 41.4043,199.446 42.0227,198.697 C42.6412,197.949 43.1458,197.363 43.5364,196.94 C43.927,196.516 44.22,196.207 44.4153,196.012 C42.0716,188.264 40.6067,182.08 40.0208,177.457 C39.5651,173.746 39.3372,168.668 39.3372,162.223 C39.3372,156.559 40.6393,151.253 43.2434,146.305 C45.7825,141.162 49.3307,136.962 53.888,133.707 C54.1484,133.512 54.4739,133.414 54.8645,133.414 C55.3203,133.414 55.6458,133.512 55.8411,133.707 C59.3567,137.939 62.3841,143.44 64.9231,150.211 C67.5273,156.982 68.8294,163.134 68.8294,168.668 C68.8294,174.918 67.332,180.777 64.3372,186.246 C60.9518,192.04 56.5898,198.03 51.2513,204.215 C52.6184,208.512 54.4414,215.25 56.72,224.43 M65.0208,269.84 C68.4062,268.603 71.0429,266.487 72.9309,263.492 C75.0143,260.628 76.0559,257.405 76.0559,253.824 C76.0559,249.202 74.4934,245.1 71.3684,241.52 C68.1783,237.809 64.1093,235.725 59.1614,235.27 C61.9609,249.007 63.914,260.53 65.0208,269.84 M27.2278,247.281 C27.2278,253.727 29.832,259.391 35.0403,264.274 C40.3789,269.026 46.3684,271.402 53.0091,271.402 C55.7434,271.402 58.4127,271.207 61.0169,270.817 C59.9752,260.921 57.9244,249.072 54.8645,235.27 C51.1536,235.66 48.1914,236.962 45.9778,239.176 C43.8294,241.455 42.7552,244.026 42.7552,246.891 C42.7552,251.839 45.3919,255.843 50.6653,258.902 C51.1211,259.358 51.3489,259.846 51.3489,260.367 C51.3489,260.888 51.1211,261.376 50.6653,261.832 C50.2747,262.288 49.7864,262.516 49.2005,262.516 C49.1354,262.516 48.8424,262.451 48.3216,262.32 C44.6106,260.302 41.7461,257.698 39.7278,254.508 C37.8398,251.123 36.8958,247.705 36.8958,244.254 C36.8958,239.762 38.2955,235.693 41.095,232.047 C44.0247,228.401 47.8333,226.057 52.5208,225.016 C50.6979,217.724 49.2005,212.027 48.0286,207.926 C46.9869,209.098 45.7337,210.514 44.2688,212.174 C42.804,213.834 41.9414,214.827 41.6809,215.152 C39.3372,218.212 37.5468,220.589 36.3099,222.281 C34.0963,225.341 32.4687,227.978 31.427,230.192 C30.3203,232.665 29.3437,235.367 28.4974,238.297 C27.651,241.096 27.2278,244.091 27.2278,247.281 M59.845,147.965 C54.9622,150.374 51.1211,153.824 48.3216,158.317 C45.457,162.939 44.0247,167.919 44.0247,173.258 C44.0247,177.945 45.1966,184.261 47.5403,192.203 C52.2278,186.539 55.7434,181.298 58.0872,176.481 C60.5612,171.402 61.7981,166.096 61.7981,160.563 C61.7981,156.396 61.1471,152.197 59.845,147.965"/>
</svg>
