<?xml version="1.0" encoding="UTF-8" standalone="no"?>
<svg width="1062.99px" height="425.196px" viewBox="0 0 1062.99 425.196"
 xmlns="http://www.w3.org/2000/svg" xmlns:xlink="http://www.w3.org/1999/xlink" version="1.2" baseProfile="tiny">
<title>probe-tone-IV-V-I</title>
<desc>Generated by MuseScore 3.4.2</desc>
<polyline class="StaffLines" fill="none" stroke="#000000" stroke-width="2.00" stroke-linejoin="bevel" points="0,175.011 1062.99,175.011"/>
<polyline class="StaffLines" fill="none" stroke="#000000" stroke-width="2.00" stroke-linejoin="bevel" points="0,200.013 1062.99,200.013"/>
<polyline class="StaffLines" fill="none" stroke="#000000" stroke-width="2.00" stroke-linejoin="bevel" points="0,225.014 1062.99,225.014"/>
<polyline class="StaffLines" fill="none" stroke="#000000" stroke-width="2.00" stroke-linejoin="bevel" points="0,250.016 1062.99,250.016"/>
<polyline class="StaffLines" fill="none" stroke="#000000" stroke-width="2.00" stroke-linejoin="bevel" points="0,275.017 1062.99,275.017"/>
<polyline class="BarLine" fill="none" stroke="#000000" stroke-width="4.00" stroke-linejoin="bevel" points="1060.99,174.011 1060.99,276.017"/>
<polyline class="LedgerLine" fill="none" stroke="#000000" stroke-width="4.00" stroke-linecap="square" stroke-linejoin="bevel" points="502.35,300.019 550.268,300.019"/>
<polyline class="Stem" fill="none" stroke="#000000" stroke-width="3.25" stroke-linecap="round" stroke-linejoin="bevel" points="175.047,257.821 175.047,137.509"/>
<polyline class="Stem" fill="none" stroke="#000000" stroke-width="3.25" stroke-linecap="round" stroke-linejoin="bevel" points="328.429,204.708 328.429,321.895"/>
<polyline class="Stem" fill="none" stroke="#000000" stroke-width="3.25" stroke-linecap="round" stroke-linejoin="bevel" points="541.142,295.323 541.142,137.509"/>
<polyline class="Stem" fill="none" stroke="#0000ff" stroke-width="3.25" stroke-linecap="round" stroke-linejoin="bevel" points="907.237,257.821 907.237,175.011"/>
<path class="Note" d="M165.729,248.747 C168.854,248.747 171.49,249.561 173.639,251.188 C175.657,252.946 176.666,255.16 176.666,257.829 C176.666,262.321 174.355,266.52 169.733,270.427 C165.045,274.333 160.032,276.286 154.694,276.286 C151.569,276.286 148.932,275.472 146.783,273.845 C144.765,272.087 143.756,269.873 143.756,267.204 C143.756,262.712 146.1,258.513 150.787,254.606 C155.345,250.7 160.325,248.747 165.729,248.747"/>
<path class="Note" d="M165.729,223.745 C168.854,223.745 171.49,224.559 173.639,226.187 C175.657,227.945 176.666,230.158 176.666,232.827 C176.666,237.32 174.355,241.519 169.733,245.425 C165.045,249.331 160.032,251.284 154.694,251.284 C151.569,251.284 148.932,250.471 146.783,248.843 C144.765,247.085 143.756,244.872 143.756,242.202 C143.756,237.71 146.1,233.511 150.787,229.605 C155.345,225.699 160.325,223.745 165.729,223.745"/>
<path class="Note" d="M165.729,198.744 C168.854,198.744 171.49,199.558 173.639,201.185 C175.657,202.943 176.666,205.157 176.666,207.826 C176.666,212.318 174.355,216.517 169.733,220.424 C165.045,224.33 160.032,226.283 154.694,226.283 C151.569,226.283 148.932,225.469 146.783,223.842 C144.765,222.084 143.756,219.87 143.756,217.201 C143.756,212.709 146.1,208.509 150.787,204.603 C155.345,200.697 160.325,198.744 165.729,198.744"/>
<path class="Note" d="M348.776,236.246 C351.901,236.246 354.538,237.06 356.686,238.688 C358.705,240.445 359.714,242.659 359.714,245.328 C359.714,249.82 357.402,254.02 352.78,257.926 C348.093,261.832 343.08,263.785 337.741,263.785 C334.616,263.785 331.979,262.971 329.831,261.344 C327.813,259.586 326.804,257.373 326.804,254.703 C326.804,250.211 329.147,246.012 333.835,242.106 C338.392,238.199 343.373,236.246 348.776,236.246"/>
<path class="Note" d="M348.776,211.245 C351.901,211.245 354.538,212.058 356.686,213.686 C358.705,215.444 359.714,217.657 359.714,220.327 C359.714,224.819 357.402,229.018 352.78,232.924 C348.093,236.831 343.08,238.784 337.741,238.784 C334.616,238.784 331.979,237.97 329.831,236.342 C327.813,234.584 326.804,232.371 326.804,229.702 C326.804,225.209 329.147,221.01 333.835,217.104 C338.392,213.198 343.373,211.245 348.776,211.245"/>
<path class="Note" d="M348.776,186.243 C351.901,186.243 354.538,187.057 356.686,188.684 C358.705,190.442 359.714,192.656 359.714,195.325 C359.714,199.817 357.402,204.017 352.78,207.923 C348.093,211.829 343.08,213.782 337.741,213.782 C334.616,213.782 331.979,212.968 329.831,211.341 C327.813,209.583 326.804,207.369 326.804,204.7 C326.804,200.208 329.147,196.009 333.835,192.102 C338.392,188.196 343.373,186.243 348.776,186.243"/>
<path class="Note" d="M531.824,286.249 C534.949,286.249 537.585,287.063 539.734,288.691 C541.752,290.449 542.761,292.662 542.761,295.331 C542.761,299.824 540.45,304.023 535.828,307.929 C531.14,311.835 526.127,313.788 520.788,313.788 C517.663,313.788 515.027,312.975 512.878,311.347 C510.86,309.589 509.851,307.376 509.851,304.706 C509.851,300.214 512.195,296.015 516.882,292.109 C521.44,288.202 526.42,286.249 531.824,286.249"/>
<path class="Note" d="M531.824,261.248 C534.949,261.248 537.585,262.062 539.734,263.689 C541.752,265.447 542.761,267.661 542.761,270.33 C542.761,274.822 540.45,279.021 535.828,282.927 C531.14,286.834 526.127,288.787 520.788,288.787 C517.663,288.787 515.027,287.973 512.878,286.345 C510.86,284.588 509.851,282.374 509.851,279.705 C509.851,275.213 512.195,271.013 516.882,267.107 C521.44,263.201 526.42,261.248 531.824,261.248"/>
<path class="Note" d="M531.824,236.246 C534.949,236.246 537.585,237.06 539.734,238.688 C541.752,240.445 542.761,242.659 542.761,245.328 C542.761,249.82 540.45,254.02 535.828,257.926 C531.14,261.832 526.127,263.785 520.788,263.785 C517.663,263.785 515.027,262.971 512.878,261.344 C510.86,259.586 509.851,257.373 509.851,254.703 C509.851,250.211 512.195,246.012 516.882,242.106 C521.44,238.199 526.42,236.246 531.824,236.246"/>
<path class="Note" d="M531.824,198.744 C534.949,198.744 537.585,199.558 539.734,201.185 C541.752,202.943 542.761,205.157 542.761,207.826 C542.761,212.318 540.45,216.517 535.828,220.424 C531.14,224.33 526.127,226.283 520.788,226.283 C517.663,226.283 515.027,225.469 512.878,223.842 C510.86,222.084 509.851,219.87 509.851,217.201 C509.851,212.709 512.195,208.509 516.882,204.603 C521.44,200.697 526.42,198.744 531.824,198.744"/>
<path class="Note" fill="#0000ff" d="M897.919,248.747 C901.044,248.747 903.68,249.561 905.829,251.188 C907.847,252.946 908.856,255.16 908.856,257.829 C908.856,262.321 906.545,266.52 901.922,270.427 C897.235,274.333 892.222,276.286 886.883,276.286 C883.758,276.286 881.122,275.472 878.973,273.845 C876.955,272.087 875.946,269.873 875.946,267.204 C875.946,262.712 878.29,258.513 882.977,254.606 C887.534,250.7 892.515,248.747 897.919,248.747"/>
<path class="Clef" d="M56.72,224.43 C56.72,224.43 56.9153,224.43 57.3059,224.43 C57.5664,224.365 57.7942,224.332 57.9895,224.332 C65.2812,224.332 71.2708,226.904 75.9583,232.047 C80.6458,237.125 82.9895,243.05 82.9895,249.82 C82.9895,258.219 79.5065,265.055 72.5403,270.328 C70.7174,271.761 68.3411,272.932 65.4114,273.844 C65.7369,278.076 65.8997,281.494 65.8997,284.098 C65.8997,284.619 65.8346,286.507 65.7044,289.762 C65.444,295.817 63.3606,301.057 59.4544,305.484 C55.6783,309.846 50.9908,312.027 45.3919,312.027 C40.1184,312.027 35.6263,310.172 31.9153,306.461 C28.2044,302.685 26.3489,298.128 26.3489,292.789 C26.3489,289.99 27.4231,287.613 29.5716,285.66 C31.7851,283.707 34.3567,282.731 37.2864,282.731 C39.8906,282.731 42.0716,283.74 43.8294,285.758 C45.6523,287.646 46.5638,289.99 46.5638,292.789 C46.5638,295.328 45.6523,297.509 43.8294,299.332 C42.0065,301.155 39.8255,302.067 37.2864,302.067 C36.2447,302.067 35.2356,301.871 34.2591,301.481 C37.1237,305.712 40.9322,307.828 45.6849,307.828 C50.177,307.828 53.8554,306.005 56.72,302.359 C59.7148,298.583 61.3424,294.189 61.6028,289.176 C61.733,286.051 61.7981,284.261 61.7981,283.805 C61.7981,280.159 61.6679,277.164 61.4075,274.82 C58.1523,275.341 55.2552,275.602 52.7161,275.602 C43.6666,275.602 35.9518,272.021 29.5716,264.859 C23.3216,257.633 20.1966,249.039 20.1966,239.078 C20.1966,236.995 20.3919,234.879 20.7825,232.731 C21.1731,230.973 21.6614,229.052 22.2474,226.969 C22.5729,225.797 23.4518,223.909 24.8841,221.305 C25.4049,220.524 25.9908,219.547 26.6419,218.375 C27.2929,217.203 27.7487,216.422 28.0091,216.031 C28.6601,214.729 29.9296,212.971 31.8177,210.758 C32.3385,210.172 32.8756,209.521 33.429,208.805 C33.9824,208.089 34.4544,207.503 34.845,207.047 C35.2356,206.591 35.5286,206.233 35.7239,205.973 C35.9192,205.712 37.3841,203.987 40.1184,200.797 C40.7695,200.146 41.4043,199.446 42.0227,198.697 C42.6412,197.949 43.1458,197.363 43.5364,196.94 C43.927,196.516 44.22,196.207 44.4153,196.012 C42.0716,188.264 40.6067,182.08 40.0208,177.457 C39.5651,173.746 39.3372,168.668 39.3372,162.223 C39.3372,156.559 40.6393,151.253 43.2434,146.305 C45.7825,141.162 49.3307,136.962 53.888,133.707 C54.1484,133.512 54.4739,133.414 54.8645,133.414 C55.3203,133.414 55.6458,133.512 55.8411,133.707 C59.3567,137.939 62.3841,143.44 64.9231,150.211 C67.5273,156.982 68.8294,163.134 68.8294,168.668 C68.8294,174.918 67.332,180.777 64.3372,186.246 C60.9518,192.04 56.5898,198.03 51.2513,204.215 C52.6184,208.512 54.4414,215.25 56.72,224.43 M65.0208,269.84 C68.4062,268.603 71.0429,266.487 72.9309,263.492 C75.0143,260.628 76.0559,257.405 76.0559,253.824 C76.0559,249.202 74.4934,245.1 71.3684,241.52 C68.1783,237.809 64.1093,235.725 59.1614,235.27 C61.9609,249.007 63.914,260.53 65.0208,269.84 M27.2278,247.281 C27.2278,253.727 29.832,259.391 35.0403,264.274 C40.3789,269.026 46.3684,271.402 53.0091,271.402 C55.7434,271.402 58.4127,271.207 61.0169,270.817 C59.9752,260.921 57.9244,249.072 54.8645,235.27 C51.1536,235.66 48.1914,236.962 45.9778,239.176 C43.8294,241.455 42.7552,244.026 42.7552,246.891 C42.7552,251.839 45.3919,255.843 50.6653,258.902 C51.1211,259.358 51.3489,259.846 51.3489,260.367 C51.3489,260.888 51.1211,261.376 50.6653,261.832 C50.2747,262.288 49.7864,262.516 49.2005,262.516 C49.1354,262.516 48.8424,262.451 48.3216,262.32 C44.6106,260.302 41.7461,257.698 39.7278,254.508 C37.8398,251.123 36.8958,247.705 36.8958,244.254 C36.8958,239.762 38.2955,235.693 41.095,232.047 C44.0247,228.401 47.8333,226.057 52.5208,225.016 C50.6979,217.724 49.2005,212.027 48.0286,207.926 C46.9869,209.098 45.7337,210.514 44.2688,212.174 C42.804,213.834 41.9414,214.827 41.6809,215.152 C39.3372,218.212 37.5468,220.589 36.3099,222.281 C34.0963,225.341 32.4687,227.978 31.427,230.192 C30.3203,232.665 29.3437,235.367 28.4974,238.297 C27.651,241.096 27.2278,244.091 27.2278,247.281 M59.845,147.965 C54.9622,150.374 51.1211,153.824 48.3216,158.317 C45.457,162.939 44.0247,167.919 44.0247,173.258 C44.0247,177.945 45.1966,184.261 47.5403,192.203 C52.2278,186.539 55.7434,181.298 58.0872,176.481 C60.5612,171.402 61.7981,166.096 61.7981,160.563 C61.7981,156.396 61.1471,152.197 59.845,147.965"/>
<path class="Rest" d="M692.312,217.202 C692.312,216.03 692.964,214.728 694.266,213.295 C695.242,212.254 696.674,211.017 698.562,209.584 C699.995,208.608 701.395,207.143 702.762,205.19 C704.064,203.302 704.715,201.251 704.715,199.038 C704.715,196.433 703.868,194.122 702.176,192.104 L698.66,187.905 C698.4,187.644 698.27,187.319 698.27,186.928 C698.27,186.538 698.465,186.18 698.855,185.854 C699.311,185.528 699.702,185.366 700.027,185.366 C700.483,185.366 700.841,185.561 701.102,185.952 L716.238,203.92 C716.889,204.767 717.215,205.613 717.215,206.459 C717.215,207.631 716.564,208.933 715.262,210.366 C714.415,211.277 713.016,212.514 711.062,214.077 C709.565,214.988 708.133,216.453 706.766,218.471 C705.464,220.359 704.812,222.41 704.812,224.624 C704.812,227.358 705.594,229.669 707.156,231.557 L715.555,241.42 C715.75,241.616 715.913,241.941 716.043,242.397 C716.043,242.853 715.88,243.243 715.555,243.569 C715.099,243.894 714.708,244.057 714.383,244.057 C714.253,244.057 713.732,243.699 712.82,242.983 C711.844,242.202 710.542,241.453 708.914,240.737 C707.091,240.021 705.301,239.663 703.543,239.663 C701.915,239.663 700.581,240.118 699.539,241.03 C698.628,241.941 698.172,243.699 698.172,246.303 C698.172,250.275 699.116,253.4 701.004,255.678 C701.199,255.939 701.232,256.264 701.102,256.655 C700.971,256.915 700.743,257.045 700.418,257.045 C699.962,257.045 698.953,255.874 697.391,253.53 C695.763,251.056 694.233,248.224 692.801,245.034 C691.303,241.648 690.555,238.849 690.555,236.635 C690.555,233.836 691.889,232.436 694.559,232.436 C697.618,232.436 701.59,233.478 706.473,235.561 L693.289,219.741 C692.638,218.894 692.312,218.048 692.312,217.202"/>
</svg>
