<?xml version="1.0" encoding="UTF-8" standalone="no"?>
<svg width="850.392px" height="425.196px" viewBox="0 0 850.392 425.196"
 xmlns="http://www.w3.org/2000/svg" xmlns:xlink="http://www.w3.org/1999/xlink" version="1.2" baseProfile="tiny">
<title>probe-tone-major-chord-2</title>
<desc>Generated by MuseScore 3.4.2</desc>
<polyline class="StaffLines" fill="none" stroke="#000000" stroke-width="2.00" stroke-linejoin="bevel" points="0,175.011 850.392,175.011"/>
<polyline class="StaffLines" fill="none" stroke="#000000" stroke-width="2.00" stroke-linejoin="bevel" points="0,200.013 850.392,200.013"/>
<polyline class="StaffLines" fill="none" stroke="#000000" stroke-width="2.00" stroke-linejoin="bevel" points="0,225.014 850.392,225.014"/>
<polyline class="StaffLines" fill="none" stroke="#000000" stroke-width="2.00" stroke-linejoin="bevel" points="0,250.016 850.392,250.016"/>
<polyline class="StaffLines" fill="none" stroke="#000000" stroke-width="2.00" stroke-linejoin="bevel" points="0,275.017 850.392,275.017"/>
<polyline class="BarLine" fill="none" stroke="#000000" stroke-width="4.00" stroke-linejoin="bevel" points="848.392,174.011 848.392,276.017"/>
<path class="Accidental" d="M663.65,331.171 C663.65,332.408 663.031,333.027 661.794,333.027 C660.557,333.027 659.939,332.408 659.939,331.171 L659.939,316.718 L651.638,319.843 L651.638,335.663 C651.638,336.9 651.02,337.519 649.783,337.519 C648.546,337.519 647.927,336.9 647.927,335.663 L647.927,321.113 L644.802,322.285 C644.737,322.35 644.477,322.382 644.021,322.382 C643.5,322.382 643.044,322.187 642.654,321.796 C642.263,321.406 642.068,320.95 642.068,320.429 L642.068,314.374 C642.068,313.398 642.491,312.779 643.337,312.519 L647.927,310.956 L647.927,294.941 L644.802,296.015 C644.737,296.08 644.477,296.113 644.021,296.113 C643.5,296.113 643.044,295.917 642.654,295.527 C642.263,295.136 642.068,294.68 642.068,294.16 L642.068,288.105 C642.068,287.193 642.491,286.607 643.337,286.347 L647.927,284.589 L647.927,268.867 C647.927,267.63 648.546,267.011 649.783,267.011 C651.02,267.011 651.638,267.63 651.638,268.867 L651.638,283.32 L659.939,280.195 L659.939,264.374 C659.939,263.137 660.557,262.519 661.794,262.519 C663.031,262.519 663.65,263.137 663.65,264.374 L663.65,278.925 L666.872,277.753 C666.937,277.688 667.165,277.656 667.556,277.656 C668.012,277.656 668.5,277.851 669.021,278.242 C669.411,278.632 669.607,279.088 669.607,279.609 L669.607,285.663 C669.607,286.575 669.151,287.193 668.24,287.519 L663.65,289.081 L663.65,305.097 L666.872,304.023 C666.937,303.958 667.165,303.925 667.556,303.925 C668.012,303.925 668.5,304.12 669.021,304.511 C669.411,304.902 669.607,305.357 669.607,305.878 L669.607,311.933 C669.607,312.779 669.151,313.365 668.24,313.691 L663.65,315.449 L663.65,331.171 M659.939,290.546 L651.638,293.476 L651.638,309.492 L659.939,306.562 L659.939,290.546 "/>
<polyline class="LedgerLine" fill="none" stroke="#000000" stroke-width="4.00" stroke-linecap="square" stroke-linejoin="bevel" points="173.761,300.019 221.678,300.019"/>
<polyline class="LedgerLine" fill="none" stroke="#000000" stroke-width="4.00" stroke-linecap="square" stroke-linejoin="bevel" points="672.609,300.019 720.526,300.019"/>
<polyline class="Stem" fill="none" stroke="#000000" stroke-width="3.25" stroke-linecap="round" stroke-linejoin="bevel" points="212.552,295.323 212.552,165.635"/>
<polyline class="Stem" fill="none" stroke="#0000ff" stroke-width="3.25" stroke-linecap="round" stroke-linejoin="bevel" points="711.4,295.323 711.4,212.513"/>
<path class="Note" d="M203.234,286.249 C206.359,286.249 208.996,287.063 211.144,288.691 C213.162,290.449 214.172,292.662 214.172,295.331 C214.172,299.824 211.86,304.023 207.238,307.929 C202.55,311.835 197.537,313.788 192.199,313.788 C189.074,313.788 186.437,312.975 184.289,311.347 C182.271,309.589 181.261,307.376 181.261,304.706 C181.261,300.214 183.605,296.015 188.293,292.109 C192.85,288.202 197.83,286.249 203.234,286.249"/>
<path class="Note" d="M203.234,261.248 C206.359,261.248 208.996,262.062 211.144,263.689 C213.162,265.447 214.172,267.661 214.172,270.33 C214.172,274.822 211.86,279.021 207.238,282.927 C202.55,286.834 197.537,288.787 192.199,288.787 C189.074,288.787 186.437,287.973 184.289,286.345 C182.271,284.588 181.261,282.374 181.261,279.705 C181.261,275.213 183.605,271.013 188.293,267.107 C192.85,263.201 197.83,261.248 203.234,261.248"/>
<path class="Note" d="M203.234,236.246 C206.359,236.246 208.996,237.06 211.144,238.688 C213.162,240.445 214.172,242.659 214.172,245.328 C214.172,249.82 211.86,254.02 207.238,257.926 C202.55,261.832 197.537,263.785 192.199,263.785 C189.074,263.785 186.437,262.971 184.289,261.344 C182.271,259.586 181.261,257.373 181.261,254.703 C181.261,250.211 183.605,246.012 188.293,242.106 C192.85,238.199 197.83,236.246 203.234,236.246"/>
<path class="Note" fill="#0000ff" d="M702.082,286.249 C705.207,286.249 707.844,287.063 709.992,288.691 C712.01,290.449 713.019,292.662 713.019,295.331 C713.019,299.824 710.708,304.023 706.086,307.929 C701.398,311.835 696.385,313.788 691.047,313.788 C687.922,313.788 685.285,312.975 683.137,311.347 C681.118,309.589 680.109,307.376 680.109,304.706 C680.109,300.214 682.453,296.015 687.14,292.109 C691.698,288.202 696.678,286.249 702.082,286.249"/>
<path class="Clef" d="M56.72,224.43 C56.72,224.43 56.9153,224.43 57.3059,224.43 C57.5664,224.365 57.7942,224.332 57.9895,224.332 C65.2812,224.332 71.2708,226.904 75.9583,232.047 C80.6458,237.125 82.9895,243.05 82.9895,249.82 C82.9895,258.219 79.5065,265.055 72.5403,270.328 C70.7174,271.761 68.3411,272.932 65.4114,273.844 C65.7369,278.076 65.8997,281.494 65.8997,284.098 C65.8997,284.619 65.8346,286.507 65.7044,289.762 C65.444,295.817 63.3606,301.057 59.4544,305.484 C55.6783,309.846 50.9908,312.027 45.3919,312.027 C40.1184,312.027 35.6263,310.172 31.9153,306.461 C28.2044,302.685 26.3489,298.128 26.3489,292.789 C26.3489,289.99 27.4231,287.613 29.5716,285.66 C31.7851,283.707 34.3567,282.731 37.2864,282.731 C39.8906,282.731 42.0716,283.74 43.8294,285.758 C45.6523,287.646 46.5638,289.99 46.5638,292.789 C46.5638,295.328 45.6523,297.509 43.8294,299.332 C42.0065,301.155 39.8255,302.067 37.2864,302.067 C36.2447,302.067 35.2356,301.871 34.2591,301.481 C37.1237,305.712 40.9322,307.828 45.6849,307.828 C50.177,307.828 53.8554,306.005 56.72,302.359 C59.7148,298.583 61.3424,294.189 61.6028,289.176 C61.733,286.051 61.7981,284.261 61.7981,283.805 C61.7981,280.159 61.6679,277.164 61.4075,274.82 C58.1523,275.341 55.2552,275.602 52.7161,275.602 C43.6666,275.602 35.9518,272.021 29.5716,264.859 C23.3216,257.633 20.1966,249.039 20.1966,239.078 C20.1966,236.995 20.3919,234.879 20.7825,232.731 C21.1731,230.973 21.6614,229.052 22.2474,226.969 C22.5729,225.797 23.4518,223.909 24.8841,221.305 C25.4049,220.524 25.9908,219.547 26.6419,218.375 C27.2929,217.203 27.7487,216.422 28.0091,216.031 C28.6601,214.729 29.9296,212.971 31.8177,210.758 C32.3385,210.172 32.8756,209.521 33.429,208.805 C33.9824,208.089 34.4544,207.503 34.845,207.047 C35.2356,206.591 35.5286,206.233 35.7239,205.973 C35.9192,205.712 37.3841,203.987 40.1184,200.797 C40.7695,200.146 41.4043,199.446 42.0227,198.697 C42.6412,197.949 43.1458,197.363 43.5364,196.94 C43.927,196.516 44.22,196.207 44.4153,196.012 C42.0716,188.264 40.6067,182.08 40.0208,177.457 C39.5651,173.746 39.3372,168.668 39.3372,162.223 C39.3372,156.559 40.6393,151.253 43.2434,146.305 C45.7825,141.162 49.3307,136.962 53.888,133.707 C54.1484,133.512 54.4739,133.414 54.8645,133.414 C55.3203,133.414 55.6458,133.512 55.8411,133.707 C59.3567,137.939 62.3841,143.44 64.9231,150.211 C67.5273,156.982 68.8294,163.134 68.8294,168.668 C68.8294,174.918 67.332,180.777 64.3372,186.246 C60.9518,192.04 56.5898,198.03 51.2513,204.215 C52.6184,208.512 54.4414,215.25 56.72,224.43 M65.0208,269.84 C68.4062,268.603 71.0429,266.487 72.9309,263.492 C75.0143,260.628 76.0559,257.405 76.0559,253.824 C76.0559,249.202 74.4934,245.1 71.3684,241.52 C68.1783,237.809 64.1093,235.725 59.1614,235.27 C61.9609,249.007 63.914,260.53 65.0208,269.84 M27.2278,247.281 C27.2278,253.727 29.832,259.391 35.0403,264.274 C40.3789,269.026 46.3684,271.402 53.0091,271.402 C55.7434,271.402 58.4127,271.207 61.0169,270.817 C59.9752,260.921 57.9244,249.072 54.8645,235.27 C51.1536,235.66 48.1914,236.962 45.9778,239.176 C43.8294,241.455 42.7552,244.026 42.7552,246.891 C42.7552,251.839 45.3919,255.843 50.6653,258.902 C51.1211,259.358 51.3489,259.846 51.3489,260.367 C51.3489,260.888 51.1211,261.376 50.6653,261.832 C50.2747,262.288 49.7864,262.516 49.2005,262.516 C49.1354,262.516 48.8424,262.451 48.3216,262.32 C44.6106,260.302 41.7461,257.698 39.7278,254.508 C37.8398,251.123 36.8958,247.705 36.8958,244.254 C36.8958,239.762 38.2955,235.693 41.095,232.047 C44.0247,228.401 47.8333,226.057 52.5208,225.016 C50.6979,217.724 49.2005,212.027 48.0286,207.926 C46.9869,209.098 45.7337,210.514 44.2688,212.174 C42.804,213.834 41.9414,214.827 41.6809,215.152 C39.3372,218.212 37.5468,220.589 36.3099,222.281 C34.0963,225.341 32.4687,227.978 31.427,230.192 C30.3203,232.665 29.3437,235.367 28.4974,238.297 C27.651,241.096 27.2278,244.091 27.2278,247.281 M59.845,147.965 C54.9622,150.374 51.1211,153.824 48.3216,158.317 C45.457,162.939 44.0247,167.919 44.0247,173.258 C44.0247,177.945 45.1966,184.261 47.5403,192.203 C52.2278,186.539 55.7434,181.298 58.0872,176.481 C60.5612,171.402 61.7981,166.096 61.7981,160.563 C61.7981,156.396 61.1471,152.197 59.845,147.965"/>
<path class="Rest" d="M346.958,217.202 C346.958,216.03 347.609,214.728 348.911,213.295 C349.888,212.254 351.32,211.017 353.208,209.584 C354.64,208.608 356.04,207.143 357.407,205.19 C358.709,203.302 359.36,201.251 359.36,199.038 C359.36,196.433 358.514,194.122 356.821,192.104 L353.306,187.905 C353.045,187.644 352.915,187.319 352.915,186.928 C352.915,186.538 353.11,186.18 353.501,185.854 C353.957,185.528 354.347,185.366 354.673,185.366 C355.129,185.366 355.487,185.561 355.747,185.952 L370.884,203.92 C371.535,204.767 371.86,205.613 371.86,206.459 C371.86,207.631 371.209,208.933 369.907,210.366 C369.061,211.277 367.661,212.514 365.708,214.077 C364.211,214.988 362.778,216.453 361.411,218.471 C360.109,220.359 359.458,222.41 359.458,224.624 C359.458,227.358 360.239,229.669 361.802,231.557 L370.2,241.42 C370.396,241.616 370.558,241.941 370.689,242.397 C370.689,242.853 370.526,243.243 370.2,243.569 C369.745,243.894 369.354,244.057 369.028,244.057 C368.898,244.057 368.377,243.699 367.466,242.983 C366.489,242.202 365.187,241.453 363.56,240.737 C361.737,240.021 359.946,239.663 358.189,239.663 C356.561,239.663 355.226,240.118 354.185,241.03 C353.273,241.941 352.817,243.699 352.817,246.303 C352.817,250.275 353.761,253.4 355.649,255.678 C355.845,255.939 355.877,256.264 355.747,256.655 C355.617,256.915 355.389,257.045 355.064,257.045 C354.608,257.045 353.599,255.874 352.036,253.53 C350.409,251.056 348.879,248.224 347.446,245.034 C345.949,241.648 345.2,238.849 345.2,236.635 C345.2,233.836 346.535,232.436 349.204,232.436 C352.264,232.436 356.235,233.478 361.118,235.561 L347.935,219.741 C347.284,218.894 346.958,218.048 346.958,217.202"/>
<path class="Rest" d="M513.241,217.202 C513.241,216.03 513.892,214.728 515.194,213.295 C516.17,212.254 517.603,211.017 519.491,209.584 C520.923,208.608 522.323,207.143 523.69,205.19 C524.992,203.302 525.643,201.251 525.643,199.038 C525.643,196.433 524.797,194.122 523.104,192.104 L519.588,187.905 C519.328,187.644 519.198,187.319 519.198,186.928 C519.198,186.538 519.393,186.18 519.784,185.854 C520.239,185.528 520.63,185.366 520.955,185.366 C521.411,185.366 521.769,185.561 522.03,185.952 L537.166,203.92 C537.817,204.767 538.143,205.613 538.143,206.459 C538.143,207.631 537.492,208.933 536.19,210.366 C535.344,211.277 533.944,212.514 531.991,214.077 C530.493,214.988 529.061,216.453 527.694,218.471 C526.392,220.359 525.741,222.41 525.741,224.624 C525.741,227.358 526.522,229.669 528.084,231.557 L536.483,241.42 C536.678,241.616 536.841,241.941 536.971,242.397 C536.971,242.853 536.808,243.243 536.483,243.569 C536.027,243.894 535.636,244.057 535.311,244.057 C535.181,244.057 534.66,243.699 533.748,242.983 C532.772,242.202 531.47,241.453 529.842,240.737 C528.019,240.021 526.229,239.663 524.471,239.663 C522.844,239.663 521.509,240.118 520.467,241.03 C519.556,241.941 519.1,243.699 519.1,246.303 C519.1,250.275 520.044,253.4 521.932,255.678 C522.127,255.939 522.16,256.264 522.03,256.655 C521.899,256.915 521.672,257.045 521.346,257.045 C520.89,257.045 519.881,255.874 518.319,253.53 C516.691,251.056 515.161,248.224 513.729,245.034 C512.232,241.648 511.483,238.849 511.483,236.635 C511.483,233.836 512.817,232.436 515.487,232.436 C518.547,232.436 522.518,233.478 527.401,235.561 L514.217,219.741 C513.566,218.894 513.241,218.048 513.241,217.202"/>
</svg>
