<?xml version="1.0" encoding="UTF-8" standalone="no"?>
<svg width="1700.79px" height="425.197px" viewBox="0 0 1700.79 425.197"
 xmlns="http://www.w3.org/2000/svg" xmlns:xlink="http://www.w3.org/1999/xlink" version="1.2" baseProfile="tiny">
<title>probe-tone-major-scale</title>
<desc>Generated by MuseScore 3.4.2</desc>
<polyline class="StaffLines" fill="none" stroke="#000000" stroke-width="2.00" stroke-linejoin="bevel" points="0,175.011 1700.79,175.011"/>
<polyline class="StaffLines" fill="none" stroke="#000000" stroke-width="2.00" stroke-linejoin="bevel" points="0,200.013 1700.79,200.013"/>
<polyline class="StaffLines" fill="none" stroke="#000000" stroke-width="2.00" stroke-linejoin="bevel" points="0,225.014 1700.79,225.014"/>
<polyline class="StaffLines" fill="none" stroke="#000000" stroke-width="2.00" stroke-linejoin="bevel" points="0,250.016 1700.79,250.016"/>
<polyline class="StaffLines" fill="none" stroke="#000000" stroke-width="2.00" stroke-linejoin="bevel" points="0,275.017 1700.79,275.017"/>
<polyline class="BarLine" fill="none" stroke="#000000" stroke-width="4.00" stroke-linejoin="bevel" points="1698.79,174.011 1698.79,276.017"/>
<polyline class="LedgerLine" fill="none" stroke="#000000" stroke-width="4.00" stroke-linecap="square" stroke-linejoin="bevel" points="136.256,300.019 184.173,300.019"/>
<polyline class="Stem" fill="none" stroke="#000000" stroke-width="3.25" stroke-linecap="round" stroke-linejoin="bevel" points="175.047,295.323 175.047,212.513"/>
<polyline class="Stem" fill="none" stroke="#000000" stroke-width="3.25" stroke-linecap="round" stroke-linejoin="bevel" points="321.559,282.822 321.559,200.013"/>
<polyline class="Stem" fill="none" stroke="#000000" stroke-width="3.25" stroke-linecap="round" stroke-linejoin="bevel" points="468.072,270.322 468.072,187.512"/>
<polyline class="Stem" fill="none" stroke="#000000" stroke-width="3.25" stroke-linecap="round" stroke-linejoin="bevel" points="614.584,257.821 614.584,175.011"/>
<polyline class="Stem" fill="none" stroke="#000000" stroke-width="3.25" stroke-linecap="round" stroke-linejoin="bevel" points="761.097,245.32 761.097,165.635"/>
<polyline class="Stem" fill="none" stroke="#000000" stroke-width="3.25" stroke-linecap="round" stroke-linejoin="bevel" points="907.609,232.819 907.609,156.26"/>
<polyline class="Stem" fill="none" stroke="#000000" stroke-width="3.25" stroke-linecap="round" stroke-linejoin="bevel" points="1024.46,229.71 1024.46,303.144"/>
<polyline class="Stem" fill="none" stroke="#000000" stroke-width="3.25" stroke-linecap="round" stroke-linejoin="bevel" points="1170.97,217.209 1170.97,293.769"/>
<polyline class="Stem" fill="none" stroke="#0000ff" stroke-width="3.25" stroke-linecap="round" stroke-linejoin="bevel" points="1581.57,257.821 1581.57,175.011"/>
<path class="Note" d="M165.729,286.249 C168.854,286.249 171.49,287.063 173.639,288.691 C175.657,290.449 176.666,292.662 176.666,295.331 C176.666,299.824 174.355,304.023 169.733,307.929 C165.045,311.835 160.032,313.788 154.693,313.788 C151.568,313.788 148.932,312.975 146.783,311.347 C144.765,309.589 143.756,307.376 143.756,304.706 C143.756,300.214 146.1,296.015 150.787,292.109 C155.345,288.202 160.325,286.249 165.729,286.249"/>
<path class="Note" d="M312.241,273.749 C315.366,273.749 318.003,274.562 320.151,276.19 C322.169,277.948 323.179,280.161 323.179,282.831 C323.179,287.323 320.867,291.522 316.245,295.428 C311.557,299.335 306.544,301.288 301.206,301.288 C298.081,301.288 295.444,300.474 293.296,298.846 C291.277,297.088 290.268,294.875 290.268,292.206 C290.268,287.713 292.612,283.514 297.3,279.608 C301.857,275.702 306.837,273.749 312.241,273.749"/>
<path class="Note" d="M458.753,261.248 C461.878,261.248 464.515,262.062 466.664,263.689 C468.682,265.447 469.691,267.661 469.691,270.33 C469.691,274.822 467.38,279.021 462.757,282.927 C458.07,286.834 453.057,288.787 447.718,288.787 C444.593,288.787 441.957,287.973 439.808,286.345 C437.79,284.588 436.781,282.374 436.781,279.705 C436.781,275.213 439.124,271.013 443.812,267.107 C448.369,263.201 453.35,261.248 458.753,261.248"/>
<path class="Note" d="M605.266,248.747 C608.391,248.747 611.027,249.561 613.176,251.188 C615.194,252.946 616.203,255.16 616.203,257.829 C616.203,262.321 613.892,266.52 609.27,270.427 C604.582,274.333 599.569,276.286 594.231,276.286 C591.106,276.286 588.469,275.472 586.32,273.845 C584.302,272.087 583.293,269.873 583.293,267.204 C583.293,262.712 585.637,258.513 590.324,254.606 C594.882,250.7 599.862,248.747 605.266,248.747"/>
<path class="Note" d="M751.778,236.246 C754.903,236.246 757.54,237.06 759.688,238.688 C761.707,240.445 762.716,242.659 762.716,245.328 C762.716,249.82 760.404,254.02 755.782,257.926 C751.095,261.832 746.082,263.785 740.743,263.785 C737.618,263.785 734.981,262.971 732.833,261.344 C730.815,259.586 729.805,257.373 729.805,254.703 C729.805,250.211 732.149,246.012 736.837,242.106 C741.394,238.199 746.374,236.246 751.778,236.246"/>
<path class="Note" d="M898.291,223.745 C901.416,223.745 904.052,224.559 906.201,226.187 C908.219,227.945 909.228,230.158 909.228,232.827 C909.228,237.32 906.917,241.519 902.294,245.425 C897.607,249.331 892.594,251.284 887.255,251.284 C884.13,251.284 881.494,250.471 879.345,248.843 C877.327,247.085 876.318,244.872 876.318,242.202 C876.318,237.71 878.662,233.511 883.349,229.605 C887.906,225.699 892.887,223.745 898.291,223.745"/>
<path class="Note" d="M1044.8,211.245 C1047.93,211.245 1050.56,212.058 1052.71,213.686 C1054.73,215.444 1055.74,217.657 1055.74,220.327 C1055.74,224.819 1053.43,229.018 1048.81,232.924 C1044.12,236.831 1039.11,238.784 1033.77,238.784 C1030.64,238.784 1028.01,237.97 1025.86,236.342 C1023.84,234.584 1022.83,232.371 1022.83,229.702 C1022.83,225.209 1025.17,221.01 1029.86,217.104 C1034.42,213.198 1039.4,211.245 1044.8,211.245"/>
<path class="Note" d="M1191.32,198.744 C1194.44,198.744 1197.08,199.558 1199.23,201.185 C1201.24,202.943 1202.25,205.157 1202.25,207.826 C1202.25,212.318 1199.94,216.517 1195.32,220.424 C1190.63,224.33 1185.62,226.283 1180.28,226.283 C1177.16,226.283 1174.52,225.469 1172.37,223.842 C1170.35,222.084 1169.34,219.87 1169.34,217.201 C1169.34,212.709 1171.69,208.509 1176.37,204.603 C1180.93,200.697 1185.91,198.744 1191.32,198.744"/>
<path class="Note" fill="#0000ff" d="M1572.25,248.747 C1575.37,248.747 1578.01,249.561 1580.16,251.188 C1582.18,252.946 1583.18,255.16 1583.18,257.829 C1583.18,262.321 1580.87,266.52 1576.25,270.427 C1571.56,274.333 1566.55,276.286 1561.21,276.286 C1558.09,276.286 1555.45,275.472 1553.3,273.845 C1551.28,272.087 1550.27,269.873 1550.27,267.204 C1550.27,262.712 1552.62,258.513 1557.31,254.606 C1561.86,250.7 1566.84,248.747 1572.25,248.747"/>
<path class="Clef" d="M56.72,224.43 C56.72,224.43 56.9153,224.43 57.3059,224.43 C57.5664,224.365 57.7942,224.332 57.9895,224.332 C65.2812,224.332 71.2708,226.904 75.9583,232.047 C80.6458,237.125 82.9895,243.05 82.9895,249.82 C82.9895,258.219 79.5065,265.055 72.5403,270.328 C70.7174,271.761 68.3411,272.932 65.4114,273.844 C65.7369,278.076 65.8997,281.494 65.8997,284.098 C65.8997,284.619 65.8346,286.507 65.7044,289.762 C65.444,295.817 63.3606,301.057 59.4544,305.484 C55.6783,309.846 50.9908,312.027 45.3919,312.027 C40.1184,312.027 35.6263,310.172 31.9153,306.461 C28.2044,302.685 26.3489,298.128 26.3489,292.789 C26.3489,289.99 27.4231,287.613 29.5716,285.66 C31.7851,283.707 34.3567,282.731 37.2864,282.731 C39.8906,282.731 42.0716,283.74 43.8294,285.758 C45.6523,287.646 46.5638,289.99 46.5638,292.789 C46.5638,295.328 45.6523,297.509 43.8294,299.332 C42.0065,301.155 39.8255,302.067 37.2864,302.067 C36.2447,302.067 35.2356,301.871 34.2591,301.481 C37.1237,305.712 40.9322,307.828 45.6849,307.828 C50.177,307.828 53.8554,306.005 56.72,302.359 C59.7148,298.583 61.3424,294.189 61.6028,289.176 C61.733,286.051 61.7981,284.261 61.7981,283.805 C61.7981,280.159 61.6679,277.164 61.4075,274.82 C58.1523,275.341 55.2552,275.602 52.7161,275.602 C43.6666,275.602 35.9518,272.021 29.5716,264.859 C23.3216,257.633 20.1966,249.039 20.1966,239.078 C20.1966,236.995 20.3919,234.879 20.7825,232.731 C21.1731,230.973 21.6614,229.052 22.2474,226.969 C22.5729,225.797 23.4518,223.909 24.8841,221.305 C25.4049,220.524 25.9908,219.547 26.6419,218.375 C27.2929,217.203 27.7487,216.422 28.0091,216.031 C28.6601,214.729 29.9296,212.971 31.8177,210.758 C32.3385,210.172 32.8756,209.521 33.429,208.805 C33.9824,208.089 34.4544,207.503 34.845,207.047 C35.2356,206.591 35.5286,206.233 35.7239,205.973 C35.9192,205.712 37.3841,203.987 40.1184,200.797 C40.7695,200.146 41.4043,199.446 42.0227,198.697 C42.6412,197.949 43.1458,197.363 43.5364,196.94 C43.927,196.516 44.22,196.207 44.4153,196.012 C42.0716,188.264 40.6067,182.08 40.0208,177.457 C39.5651,173.746 39.3372,168.668 39.3372,162.223 C39.3372,156.559 40.6393,151.253 43.2434,146.305 C45.7825,141.162 49.3307,136.962 53.888,133.707 C54.1484,133.512 54.4739,133.414 54.8645,133.414 C55.3203,133.414 55.6458,133.512 55.8411,133.707 C59.3567,137.939 62.3841,143.44 64.9231,150.211 C67.5273,156.982 68.8294,163.134 68.8294,168.668 C68.8294,174.918 67.332,180.777 64.3372,186.246 C60.9518,192.04 56.5898,198.03 51.2513,204.215 C52.6184,208.512 54.4414,215.25 56.72,224.43 M65.0208,269.84 C68.4062,268.603 71.0429,266.487 72.9309,263.492 C75.0143,260.628 76.0559,257.405 76.0559,253.824 C76.0559,249.202 74.4934,245.1 71.3684,241.52 C68.1783,237.809 64.1093,235.725 59.1614,235.27 C61.9609,249.007 63.914,260.53 65.0208,269.84 M27.2278,247.281 C27.2278,253.727 29.832,259.391 35.0403,264.274 C40.3789,269.026 46.3684,271.402 53.0091,271.402 C55.7434,271.402 58.4127,271.207 61.0169,270.817 C59.9752,260.921 57.9244,249.072 54.8645,235.27 C51.1536,235.66 48.1914,236.962 45.9778,239.176 C43.8294,241.455 42.7552,244.026 42.7552,246.891 C42.7552,251.839 45.3919,255.843 50.6653,258.902 C51.1211,259.358 51.3489,259.846 51.3489,260.367 C51.3489,260.888 51.1211,261.376 50.6653,261.832 C50.2747,262.288 49.7864,262.516 49.2005,262.516 C49.1354,262.516 48.8424,262.451 48.3216,262.32 C44.6106,260.302 41.7461,257.698 39.7278,254.508 C37.8398,251.123 36.8958,247.705 36.8958,244.254 C36.8958,239.762 38.2955,235.693 41.095,232.047 C44.0247,228.401 47.8333,226.057 52.5208,225.016 C50.6979,217.724 49.2005,212.027 48.0286,207.926 C46.9869,209.098 45.7337,210.514 44.2688,212.174 C42.804,213.834 41.9414,214.827 41.6809,215.152 C39.3372,218.212 37.5468,220.589 36.3099,222.281 C34.0963,225.341 32.4687,227.978 31.427,230.192 C30.3203,232.665 29.3437,235.367 28.4974,238.297 C27.651,241.096 27.2278,244.091 27.2278,247.281 M59.845,147.965 C54.9622,150.374 51.1211,153.824 48.3216,158.317 C45.457,162.939 44.0247,167.919 44.0247,173.258 C44.0247,177.945 45.1966,184.261 47.5403,192.203 C52.2278,186.539 55.7434,181.298 58.0872,176.481 C60.5612,171.402 61.7981,166.096 61.7981,160.563 C61.7981,156.396 61.1471,152.197 59.845,147.965"/>
<path class="Rest" d="M1352.38,225.014 L1316.83,225.014 C1316.18,225.014 1315.85,224.689 1315.85,224.038 L1315.85,210.366 C1315.85,209.715 1316.18,209.389 1316.83,209.389 L1352.38,209.389 C1353.03,209.389 1353.35,209.715 1353.35,210.366 L1353.35,224.038 C1353.35,224.689 1353.03,225.014 1352.38,225.014"/>
</svg>
