<?xml version="1.0" encoding="utf-8"?>
<!-- Generator: Adobe Illustrator 19.2.0, SVG Export Plug-In . SVG Version: 6.00 Build 0)  -->
<svg version="1.1" id="Art" xmlns="http://www.w3.org/2000/svg" xmlns:xlink="http://www.w3.org/1999/xlink" x="0px" y="0px"
	 viewBox="0 0 521 521" style="enable-background:new 0 0 521 521;" xml:space="preserve">
<style type="text/css">
	.st0{fill:#231F20;}
</style>
<path id="XMLID_1145_" class="st0" d="M396.6,151.2H119.9c-3,0-5.4,2.4-5.4,5.4v207.8c0,3,2.4,5.4,5.4,5.4h276.7
	c3,0,5.4-2.4,5.4-5.4V156.6C402,153.6,399.6,151.2,396.6,151.2z M231.8,176.6c6.9,0,12.4,5.6,12.4,12.4s-5.6,12.4-12.4,12.4
	s-12.4-5.6-12.4-12.4S224.9,176.6,231.8,176.6z M196.5,176.6c6.9,0,12.4,5.6,12.4,12.4s-5.6,12.4-12.4,12.4
	c-6.9,0-12.4-5.6-12.4-12.4S189.7,176.6,196.5,176.6z M161.3,176.6c6.9,0,12.4,5.6,12.4,12.4s-5.6,12.4-12.4,12.4
	c-6.9,0-12.4-5.6-12.4-12.4S154.4,176.6,161.3,176.6z M173.9,333.4c0,3-2.4,5.4-5.4,5.4h-15.9c-3,0-5.4-2.4-5.4-5.4v-20.6
	c0-3,2.4-5.4,5.4-5.4h15.9c3,0,5.4,2.4,5.4,5.4V333.4z M173.9,289.6c0,3-2.4,5.4-5.4,5.4h-15.9c-3,0-5.4-2.4-5.4-5.4V269
	c0-3,2.4-5.4,5.4-5.4h15.9c3,0,5.4,2.4,5.4,5.4V289.6z M213,333.4c0,3-2.4,5.4-5.4,5.4h-0.1h-15.9h-0.1c-3,0-5.4-2.4-5.4-5.4v-20.6
	c0-3,2.4-5.4,5.4-5.4h0.1h15.9h0.1c3,0,5.4,2.4,5.4,5.4V333.4z M213,289.6c0,3-2.4,5.4-5.4,5.4h-0.1h-15.9h-0.1
	c-3,0-5.4-2.4-5.4-5.4V269c0-3,2.4-5.4,5.4-5.4h0.1h15.9h0.1c3,0,5.4,2.4,5.4,5.4V289.6z M252.1,333.4c0,3-2.4,5.4-5.4,5.4h-15.9
	c-3,0-5.4-2.4-5.4-5.4v-20.6c0-3,2.4-5.4,5.4-5.4h15.9c3,0,5.4,2.4,5.4,5.4V333.4z M252.1,289.6c0,3-2.4,5.4-5.4,5.4h-15.9
	c-3,0-5.4-2.4-5.4-5.4V269c0-3,2.4-5.4,5.4-5.4h15.9c3,0,5.4,2.4,5.4,5.4V289.6z M291.3,333.4c0,3-2.4,5.4-5.4,5.4H270
	c-3,0-5.4-2.4-5.4-5.4v-20.6c0-3,2.4-5.4,5.4-5.4h15.9c3,0,5.4,2.4,5.4,5.4V333.4z M291.3,289.6c0,3-2.4,5.4-5.4,5.4H270
	c-3,0-5.4-2.4-5.4-5.4V269c0-3,2.4-5.4,5.4-5.4h15.9c3,0,5.4,2.4,5.4,5.4V289.6z M290.5,234.6h-15.9c-2.7,4.2-7.4,7-12.8,7
	s-10.1-2.8-12.8-7h-94c-3.4,0-6.2-2.8-6.2-6.2c0-3.4,2.8-6.2,6.2-6.2h92.3c1.9-6.2,7.7-10.8,14.5-10.8s12.6,4.5,14.5,10.8h14.2
	c3.4,0,6.2,2.8,6.2,6.2C296.7,231.8,294,234.6,290.5,234.6z M330.5,333.4c0,3-2.4,5.4-5.4,5.4h-15.9c-3,0-5.4-2.4-5.4-5.4v-20.6
	c0-3,2.4-5.4,5.4-5.4h15.9c3,0,5.4,2.4,5.4,5.4V333.4z M330.5,289.6c0,3-2.4,5.4-5.4,5.4h-15.9c-3,0-5.4-2.4-5.4-5.4V269
	c0-3,2.4-5.4,5.4-5.4h15.9c3,0,5.4,2.4,5.4,5.4V289.6z M369.7,333.4c0,3-2.4,5.4-5.4,5.4h-15.9c-3,0-5.4-2.4-5.4-5.4v-20.6
	c0-3,2.4-5.4,5.4-5.4h15.9c3,0,5.4,2.4,5.4,5.4V333.4z M369.7,289.6c0,3-2.4,5.4-5.4,5.4h-15.9c-3,0-5.4-2.4-5.4-5.4V269
	c0-3,2.4-5.4,5.4-5.4h15.9c3,0,5.4,2.4,5.4,5.4V289.6z M341.8,235.1c-16.3,0-29.5-13.3-29.5-29.5s13.3-29.5,29.5-29.5
	c16.3,0,29.5,13.3,29.5,29.5S358.1,235.1,341.8,235.1z"/>
</svg>
