<?xml version="1.0" encoding="utf-8"?>
<!-- Generator: Adobe Illustrator 19.2.0, SVG Export Plug-In . SVG Version: 6.00 Build 0)  -->
<svg version="1.1" id="Art" xmlns="http://www.w3.org/2000/svg" xmlns:xlink="http://www.w3.org/1999/xlink" x="0px" y="0px"
	 viewBox="0 0 521 521" style="enable-background:new 0 0 521 521;" xml:space="preserve">
<style type="text/css">
	.st0{fill:#231F20;}
</style>
<path id="XMLID_1065_" class="st0" d="M369.2,162.8l-20.4-12.4c0.5-7.2-1.9-14.2-6.6-19.7c-4.8-5.6-11.5-9-18.9-9.5
	c-7.4-0.6-14.5,1.8-20.1,6.6c-4.3,3.7-7.2,8.4-8.7,13.8l-24.7,64.8L99.7,325.3c-2.3,1.6-3.3,4.7-2.3,7.3c0.9,2.4,3.3,4,5.8,4
	c0.2,0,0.5,0,0.7,0c0.5-0.1,35.7-4.1,80.3-10.6c11.1,7.4,23.6,12.5,36.8,15.1l-7.8,7.1c-1.4,1.2-2.1,3-2,4.8
	c0.1,1.8,0.9,3.5,2.3,4.7l20.1,16H213c-3.4,0-6.2,2.8-6.2,6.2s2.8,6.2,6.2,6.2H273c3.4,0,6.2-2.8,6.2-6.2s-2.8-6.2-6.2-6.2h-19.4
	l-26.6-21.2l10.5-9.5c1.3,0,2.5,0.1,3.8,0.1c53.4,0,98.8-41.3,102.8-95.4c0-0.1,0-0.1,0-0.2c0,0,0,0,0,0l0-0.4
	c0.1-1.7,0.2-3.5,0.2-5.2l2.6-58.4c0.2-4.9,4.2-8.7,9-8.8l10-0.2c2.8-0.1,5.2-2,5.9-4.6C372.7,167.1,371.5,164.3,369.2,162.8z"/>
</svg>
