<?xml version="1.0" encoding="utf-8"?>
<!-- Generator: Adobe Illustrator 19.2.0, SVG Export Plug-In . SVG Version: 6.00 Build 0)  -->
<svg version="1.1" id="Art" xmlns="http://www.w3.org/2000/svg" xmlns:xlink="http://www.w3.org/1999/xlink" x="0px" y="0px"
	 viewBox="0 0 521 521" style="enable-background:new 0 0 521 521;" xml:space="preserve">
<style type="text/css">
	.st0{fill:#231F20;}
</style>
<path id="XMLID_1102_" class="st0" d="M340.5,251.6l-43.8-22.7c-6.2-3.2-13.1-4.9-20-4.9H268l-8.8-74.8c-0.9-7.6-7.3-13.3-14.9-13.3
	h0c-8.3,0-15,6.7-15,15V234v58v9.7c-1-1.2-2.3-2.2-3.6-2.9l-33.2-18.9c-9-5.1-20.3-3.4-27.3,4.2h0c-0.6,0.6-0.7,1.5-0.3,2.2
	l54.7,96.7c2.5,4.5,7.3,7.2,12.4,7.2h7.2h13.4h71.7c4.8,0,8.9-3.4,9.8-8.2l19.4-103.7C355.5,267.5,350.2,256.7,340.5,251.6z"/>
</svg>
