<?xml version="1.0" encoding="utf-8"?>
<!-- Generator: Adobe Illustrator 19.2.0, SVG Export Plug-In . SVG Version: 6.00 Build 0)  -->
<svg version="1.1" id="Art" xmlns="http://www.w3.org/2000/svg" xmlns:xlink="http://www.w3.org/1999/xlink" x="0px" y="0px"
	 viewBox="0 0 521 521" style="enable-background:new 0 0 521 521;" xml:space="preserve">
<style type="text/css">
	.st0{fill:#231F20;}
</style>
<path id="XMLID_1132_" class="st0" d="M370.7,118.8l-64.1,64.1c-6.9-1.8-14.4-0.8-20.7,3l-8.3-8.3l6.3-6.3c2.4-2.4,2.4-6.3,0-8.7h0
	c-2.4-2.4-6.3-2.4-8.7,0L120.6,317.2c-2.4,2.4-2.4,6.3,0,8.7v0c2.4,2.4,6.3,2.4,8.7,0l3.4-3.4l8.3,8.3c-3.8,6.3-4.9,13.8-3,20.7
	l-16.7,16.7l34.1,34.1l249.4-249.4L370.7,118.8z M268.9,186.2l8.3,8.3c-3.4,5.6-4.6,12.2-3.5,18.4c-6.3-1.1-12.9,0.1-18.4,3.5
	l-8.3-8.3L268.9,186.2z M163.3,291.9l8.3,8.3c-3.4,5.6-4.6,12.2-3.5,18.4c-6.3-1.1-12.9,0.1-18.4,3.5l-8.3-8.3L163.3,291.9z
	 M173.6,354.8c-5.6,5.6-14.6,5.6-20.1,0c-0.2-0.2-0.5-0.5-0.7-0.8c-1.5-1.7-2.5-3.6-3-5.7c-0.8-3.1-0.6-6.4,0.7-9.4
	c0.7-1.6,1.7-3,2.9-4.3c1.3-1.3,2.7-2.2,4.3-2.9c3-1.3,6.3-1.6,9.4-0.7c2,0.5,4,1.5,5.7,3c0.3,0.2,0.5,0.4,0.8,0.7
	C179.1,340.2,179.1,349.2,173.6,354.8z M204.2,324.1c-5.6,5.6-14.6,5.6-20.1,0c-0.2-0.2-0.5-0.5-0.7-0.8c-1.5-1.7-2.5-3.6-3-5.7
	c-0.8-3.1-0.6-6.4,0.7-9.4c0.7-1.6,1.7-3,2.9-4.3c1.3-1.3,2.7-2.2,4.3-2.9c3-1.3,6.3-1.6,9.4-0.7c2,0.5,4,1.5,5.7,3
	c0.3,0.2,0.5,0.4,0.8,0.7C209.8,309.5,209.8,318.6,204.2,324.1z M212.9,276.5l-12,12c-6.9-1.8-14.4-0.8-20.7,3l-8.3-8.3l35.7-35.7
	l8.3,8.3C212.1,262.1,211.1,269.6,212.9,276.5z M238.3,216.9l8.3,8.3c-3.4,5.6-4.6,12.2-3.5,18.4c-6.3-1.1-12.9,0.1-18.4,3.5
	l-8.3-8.3L238.3,216.9z M248.6,279.8c-5.6,5.6-14.6,5.6-20.1,0c-0.2-0.2-0.5-0.5-0.7-0.8c-1.5-1.7-2.5-3.6-3-5.7
	c-0.8-3.1-0.6-6.4,0.7-9.4c0.7-1.6,1.7-3,2.9-4.3s2.7-2.2,4.3-2.9c3-1.3,6.3-1.6,9.4-0.7c2,0.5,4,1.5,5.7,3c0.3,0.2,0.5,0.4,0.8,0.7
	C254.1,265.2,254.1,274.2,248.6,279.8z M279.2,249.1c-5.6,5.6-14.6,5.6-20.1,0c-0.2-0.2-0.5-0.5-0.7-0.8c-1.5-1.7-2.5-3.6-3-5.7
	c-0.8-3.1-0.6-6.4,0.7-9.4c0.7-1.6,1.7-3,2.9-4.3c1.3-1.3,2.7-2.2,4.3-2.9c3-1.3,6.3-1.6,9.4-0.7c2,0.5,4,1.5,5.7,3
	c0.3,0.2,0.5,0.4,0.8,0.7C284.8,234.5,284.8,243.6,279.2,249.1z M309.8,218.5c-5.6,5.6-14.6,5.6-20.1,0c-0.2-0.2-0.5-0.5-0.7-0.8
	c-1.5-1.7-2.5-3.6-3-5.7c-0.8-3.1-0.6-6.4,0.7-9.4c0.7-1.6,1.7-3,2.9-4.3c1.3-1.3,2.7-2.2,4.3-2.9c3-1.3,6.3-1.6,9.4-0.7
	c2,0.5,4,1.5,5.7,3c0.3,0.2,0.5,0.4,0.8,0.7C315.4,203.9,315.4,212.9,309.8,218.5z M363,167.1l-6.7-6.7c-2.4-2.4-2.4-6.3,0-8.7
	s6.3-2.4,8.7,0l6.7,6.7c2.4,2.4,2.4,6.3,0,8.7S365.4,169.5,363,167.1z"/>
</svg>
