<?xml version="1.0" encoding="utf-8"?>
<!-- Generator: Adobe Illustrator 19.2.0, SVG Export Plug-In . SVG Version: 6.00 Build 0)  -->
<svg version="1.1" id="Art" xmlns="http://www.w3.org/2000/svg" xmlns:xlink="http://www.w3.org/1999/xlink" x="0px" y="0px"
	 viewBox="0 0 521 521" style="enable-background:new 0 0 521 521;" xml:space="preserve">
<path id="XMLID_1212_" d="M233.6,258.1c-6.6,0-12,5.4-12,12c0,6.6,5.4,12,12,12c6.6,0,12-5.4,12-12
	C245.6,263.5,240.2,258.1,233.6,258.1z M291.4,258.1c-6.6,0-12,5.4-12,12c0,6.6,5.4,12,12,12c6.6,0,12-5.4,12-12
	C303.5,263.5,298.1,258.1,291.4,258.1z M262.5,164.1c-53.1,0-96.4,43.2-96.4,96.4s43.2,96.4,96.4,96.4s96.4-43.2,96.4-96.4
	S315.6,164.1,262.5,164.1z M262.5,344.4c-46.3,0-83.9-37.6-83.9-83.9c0-2.5,0.1-5,0.3-7.4c26.6-7.5,47.8-27.6,56.9-53.5
	c14.6,25.7,42.2,43,73.9,43c11.7,0,22.8-2.4,32.9-6.7c2.4,7.8,3.7,16,3.7,24.6C346.4,306.8,308.8,344.4,262.5,344.4z"/>
</svg>
