<?xml version="1.0" encoding="utf-8"?>
<!-- Generator: Adobe Illustrator 19.2.0, SVG Export Plug-In . SVG Version: 6.00 Build 0)  -->
<svg version="1.1" id="Art" xmlns="http://www.w3.org/2000/svg" xmlns:xlink="http://www.w3.org/1999/xlink" x="0px" y="0px"
	 viewBox="0 0 521 521" style="enable-background:new 0 0 521 521;" xml:space="preserve">
<style type="text/css">
	.st0{fill:#231F20;}
</style>
<path id="XMLID_239_" class="st0" d="M382.5,209.1c0-14.7-13.3-26.4-28.6-23.6c-9.5,1.8-17.2,9.3-19,18.8
	c-1.5,7.8,0.8,15.1,5.3,20.4c-13.5,4.8-27.8-8-49.6-28.9c-20.3-19.5-43.1-41.4-71.4-45.8c-2.2-0.3-3.9-2.3-3.9-4.6l0,0l0.2-14.6
	h-8.3h-20.5h-9l1.7,16.2h0l21.7,224.8c0.4,3.7-2.5,6.8-6.2,6.8h-3.5h-6.2v6.2v0v6.2h6.2h26.5h27.4h17.6h6.2V385v0v-6.2h-6.2h-4.3
	c-3.7,0-6.7-3.3-6.2-7c8.6-67.8,80.8-117.4,97.9-128.2c10.7-6.2,19.1-11.6,24.5-16.9c1.4-1.3,2.6-2.7,3.7-4.3
	c0.4-0.6,0.7-1.1,1.1-1.7c0,0,0-0.1,0.1-0.1c0.1-0.3,0.3-0.5,0.4-0.8l0,0C381.6,216.4,382.5,212.9,382.5,209.1z M232.4,316.9
	c0,1.2-0.4,2.4-1,3.4c-1.7,2.6-3.4,5.3-4.9,8.1c-3.1,5.6-11.7,3.4-11.7-3.1l0.5-135.7c0-2.9,2.7-5.1,5.5-4.5
	c2.9,0.6,5.7,1.4,8.5,2.4c1.9,0.7,3.2,2.4,3.2,4.4V316.9z M261.4,278.4c0,5.1-2.1,10-5.8,13.5c-0.1,0.1-0.1,0.1-0.2,0.2
	c-4,3.8-10.5,1-10.5-4.5v-86.6c0-2.8,3-4.4,5.4-3c3.1,2,6.2,4,9.2,6.2c1.2,0.9,1.9,2.3,1.9,3.8V278.4z M290.3,262.8
	c0,1.2-0.6,2.2-1.5,2.9c-3.2,2.1-6.3,4.3-9.4,6.6c-2.3,1.7-5.5,0-5.5-2.8v-44c0-4,4.7-6.2,7.7-3.6l0.1,0.1c3,2.5,5.9,4.9,8.7,7.2
	V262.8z M313.7,250.1c-1.9,1.1-3.8,2.2-5.7,3.4c-2.3,1.4-5.3-0.3-5.3-3v-5.9c0-2.6,2.8-4.3,5.1-3.1c1.7,0.9,3.4,1.7,5.1,2.3
	c0,0,0,0,0.1,0C315.9,244.8,316.3,248.6,313.7,250.1z"/>
</svg>
