<?xml version="1.0" encoding="utf-8"?>
<!-- Generator: Adobe Illustrator 19.2.0, SVG Export Plug-In . SVG Version: 6.00 Build 0)  -->
<svg version="1.1" id="Art" xmlns="http://www.w3.org/2000/svg" xmlns:xlink="http://www.w3.org/1999/xlink" x="0px" y="0px"
	 viewBox="0 0 521 521" style="enable-background:new 0 0 521 521;" xml:space="preserve">
<style type="text/css">
	.st0{fill:#231F20;}
</style>
<path id="XMLID_1119_" class="st0" d="M260.5,286.2c17.1,0,30.7-13.8,30.7-30.8l0.1-61.6c0-17.1-13.8-30.8-30.8-30.8
	c-17.1,0-30.8,13.8-30.8,30.8v61.6C229.7,272.4,243.4,286.2,260.5,286.2z M314.9,255.4c0,30.8-26.1,52.4-54.4,52.4
	s-54.4-21.6-54.4-52.4h-17.5c0,35,27.9,64,61.6,69v33.7h20.5v-33.7c33.7-4.9,61.6-33.9,61.6-69H314.9z"/>
</svg>
