<?xml version="1.0" encoding="utf-8"?>
<!-- Generator: Adobe Illustrator 19.2.0, SVG Export Plug-In . SVG Version: 6.00 Build 0)  -->
<svg version="1.1" id="Art" xmlns="http://www.w3.org/2000/svg" xmlns:xlink="http://www.w3.org/1999/xlink" x="0px" y="0px"
	 viewBox="0 0 521 521" style="enable-background:new 0 0 521 521;" xml:space="preserve">
<style type="text/css">
	.st0{fill:#231F20;}
</style>
<g id="XMLID_1_">
	<polygon id="XMLID_2_" class="st0" points="272.3,164.1 248.7,164.1 248.7,281.8 230.8,281.8 230.8,356.9 290.2,356.9 290.2,281.8 
		272.3,281.8 	"/>
	<polygon id="XMLID_3_" class="st0" points="320.5,281.8 302.5,281.8 302.5,356.9 362,356.9 362,164.1 320.5,164.1 	"/>
	<polygon id="XMLID_4_" class="st0" points="200.5,164.1 159,164.1 159,356.9 218.5,356.9 218.5,281.8 200.5,281.8 	"/>
	<path id="XMLID_12_" class="st0" d="M218.5,356.9H159V164.1h41.5v117.7h18V356.9z M290.2,356.9h-59.5v-75.1h18V164.1h23.5v117.7h18
		V356.9z M362,356.9h-59.5v-75.1h18V164.1H362V356.9z"/>
</g>
</svg>
