<?xml version="1.0" encoding="utf-8"?>
<!-- Generator: Adobe Illustrator 19.2.0, SVG Export Plug-In . SVG Version: 6.00 Build 0)  -->
<svg version="1.1" id="Art" xmlns="http://www.w3.org/2000/svg" xmlns:xlink="http://www.w3.org/1999/xlink" x="0px" y="0px"
	 viewBox="0 0 521 521" style="enable-background:new 0 0 521 521;" xml:space="preserve">
<style type="text/css">
	.st0{fill:#231F20;}
</style>
<path id="XMLID_1093_" class="st0" d="M425.7,169.6c-9.5-9.5-25-9.5-34.5,0l-58,58l-98.7-98.7l-8.8,8.8c6.7,6.7,16.8,22.2,9.6,51.3
	c-7.8,31.6-33.1,69-75.2,111.1l-22.4,22.4c-7.9,7.9-12.3,18.4-12.3,29.6c0,11.2,4.4,21.7,12.3,29.6c8.2,8.2,18.9,12.2,29.6,12.2
	c10.7,0,21.4-4.1,29.6-12.2l59.6-59.6l16.9,16.9l-11.6,11.6c-6.4-2.9-14.2-1.7-19.5,3.5c-6.8,6.8-6.8,17.8,0,24.6
	c3.4,3.4,7.9,5.1,12.3,5.1s8.9-1.7,12.3-5.1c5.2-5.2,6.4-12.9,3.6-19.3l155.4-155.4C435.2,194.6,435.2,179.1,425.7,169.6z
	 M187.9,372.9c-11.4,11.4-30.1,11.4-41.5,0c-11.4-11.4-11.4-30.1,0-41.5l13.4-13.4l41.5,41.5L187.9,372.9z M247.4,313.4l-37.3,37.3
	l-41.5-41.5l0.3-0.3c13.5-13.5,26.5-25.3,39-35.3l39.6,39.6L247.4,313.4L247.4,313.4z M256.3,304.5L217.8,266
	c22.6-16.8,43.4-27.7,62.2-32.3c21-5.2,34.9-1.4,43.5,3.7L256.3,304.5z M282,330.1l-16.9-16.9l6.3-6.3l16.9,16.9L282,330.1z
	 M416.9,195.3L297.1,315l-16.9-16.9l87.8-87.8l32-32c4.6-4.6,12.2-4.6,16.9,0C421.5,183.1,421.5,190.6,416.9,195.3z"/>
</svg>
