<?xml version="1.0" encoding="utf-8"?>
<!-- Generator: Adobe Illustrator 19.2.0, SVG Export Plug-In . SVG Version: 6.00 Build 0)  -->
<svg version="1.1" id="Art" xmlns="http://www.w3.org/2000/svg" xmlns:xlink="http://www.w3.org/1999/xlink" x="0px" y="0px"
	 viewBox="0 0 521 521" style="enable-background:new 0 0 521 521;" xml:space="preserve">
<style type="text/css">
	.st0{fill:#231F20;}
</style>
<path id="XMLID_264_" class="st0" d="M374.1,252.3c-3.8-25.1-7.8-51-28.2-51c-24.1,0-29.8,37.7-35.9,77.6c-4,26.1-9.4,62-20.2,62
	c-12,0-16.7-51.1-19.8-85c-4.9-53.7-9.6-104.5-36.3-104.5c-26,0-31.4,42.5-37.1,87.6c-3.4,26.7-8.5,67-19,67
	c-10.8,0-14.7-22-18.5-43.3c-4.6-25.7-9.7-54.6-29.9-60.3c-3.9-1.1-7.7,1.9-7.7,6v0.3c0,2.8,1.9,5,4.5,5.9
	c11.7,3.9,16.1,23.6,20.8,50.3c4.7,26.4,9.5,53.6,30.8,53.6c21.4,0,26-36.1,31.3-77.9c4.1-32.4,9.8-76.7,24.8-76.7
	c15.3,0,20.3,53.8,23.9,93.2c4.7,51.7,8.8,96.3,32.2,96.3c21.5,0,26.6-33.6,32.6-72.6c4.5-29.9,10.2-67,23.5-67
	c9.7,0,12.8,20.5,15.9,40.4c4,26.1,8.9,58,32.7,63.4c3.8,0.9,7.5-2.1,7.5-6v-0.3c0-2.8-2-5.3-4.7-6
	C382.8,301.8,378.5,280.9,374.1,252.3z"/>
</svg>
