<?xml version="1.0" encoding="utf-8"?>
<!-- Generator: Adobe Illustrator 19.2.0, SVG Export Plug-In . SVG Version: 6.00 Build 0)  -->
<svg version="1.1" id="Art" xmlns="http://www.w3.org/2000/svg" xmlns:xlink="http://www.w3.org/1999/xlink" x="0px" y="0px"
	 viewBox="0 0 521 521" style="enable-background:new 0 0 521 521;" xml:space="preserve">
<style type="text/css">
	.st0{fill:#231F20;}
</style>
<path id="XMLID_1076_" class="st0" d="M266.7,306.4c31.7-3.1,56.6-30,56.6-62.5c0-19.4-18.6-92.6-19.3-95.7l-1.2-4.7h-36h-12.5h-36
	l-1.2,4.7c-0.8,3.1-19.3,76.3-19.3,95.7c0,32.5,24.9,59.3,56.6,62.5v0.3v50.4c-16.4,1.5-37.8,7.8-37.8,7.8l0,0h0v12.5h88.2V365h0
	l0,0c0,0-21.5-6.3-37.8-7.8v-50.4V306.4z"/>
</svg>
