<?xml version="1.0" encoding="UTF-8" standalone="no"?>
<!-- Created with Inkscape (http://www.inkscape.org/) -->
<svg
   xmlns:dc="http://purl.org/dc/elements/1.1/"
   xmlns:cc="http://web.resource.org/cc/"
   xmlns:rdf="http://www.w3.org/1999/02/22-rdf-syntax-ns#"
   xmlns:svg="http://www.w3.org/2000/svg"
   xmlns="http://www.w3.org/2000/svg"
   xmlns:xlink="http://www.w3.org/1999/xlink"
   xmlns:sodipodi="http://sodipodi.sourceforge.net/DTD/sodipodi-0.dtd"
   xmlns:inkscape="http://www.inkscape.org/namespaces/inkscape"
   id="svg2"
   sodipodi:version="0.32"
   inkscape:version="0.45.1"
   width="2770"
   height="1550"
   version="1.0"
   sodipodi:docbase="C:\Documents and Settings\Tech U\Desktop"
   sodipodi:docname="Band-pass_filter.svg"
   inkscape:output_extension="org.inkscape.output.svg.inkscape">
  <metadata
     id="metadata7">
    <rdf:RDF>
      <cc:Work
         rdf:about="">
        <dc:format>image/svg+xml</dc:format>
        <dc:type
           rdf:resource="http://purl.org/dc/dcmitype/StillImage" />
      </cc:Work>
    </rdf:RDF>
  </metadata>
  <defs
     id="defs5">
    <linearGradient
       id="linearGradient12224">
      <stop
         style="stop-color:#7fd5a1;stop-opacity:0.87628865;"
         offset="0"
         id="stop12226" />
      <stop
         style="stop-color:#808080;stop-opacity:0;"
         offset="1"
         id="stop12228" />
    </linearGradient>
    <marker
       inkscape:stockid="Arrow1Sstart"
       orient="auto"
       refY="0.0"
       refX="0.0"
       id="Arrow1Sstart"
       style="overflow:visible">
      <path
         id="path8087"
         d="M 0.0,0.0 L 5.0,-5.0 L -12.5,0.0 L 5.0,5.0 L 0.0,0.0 z "
         style="fill-rule:evenodd;stroke:#000000;stroke-width:1.0pt;marker-start:none"
         transform="scale(0.2) translate(6,0)" />
    </marker>
    <marker
       inkscape:stockid="Arrow1Send"
       orient="auto"
       refY="0.0"
       refX="0.0"
       id="Arrow1Send"
       style="overflow:visible;">
      <path
         id="path8090"
         d="M 0.0,0.0 L 5.0,-5.0 L -12.5,0.0 L 5.0,5.0 L 0.0,0.0 z "
         style="fill-rule:evenodd;stroke:#000000;stroke-width:1.0pt;marker-start:none;"
         transform="scale(0.2) rotate(180) translate(6,0)" />
    </marker>
    <marker
       inkscape:stockid="Arrow2Mend"
       orient="auto"
       refY="0.0"
       refX="0.0"
       id="Arrow2Mend"
       style="overflow:visible;">
      <path
         id="path8102"
         style="font-size:12.0;fill-rule:evenodd;stroke-width:0.62500000;stroke-linejoin:round;"
         d="M 8.7185878,4.0337352 L -2.2072895,0.016013256 L 8.7185884,-4.0017078 C 6.9730900,-1.6296469 6.9831476,1.6157441 8.7185878,4.0337352 z "
         transform="scale(0.6) rotate(180) translate(0,0)" />
    </marker>
    <marker
       inkscape:stockid="Arrow1Lend"
       orient="auto"
       refY="0.0"
       refX="0.0"
       id="Arrow1Lend"
       style="overflow:visible;">
      <path
         id="path8078"
         d="M 0.0,0.0 L 5.0,-5.0 L -12.5,0.0 L 5.0,5.0 L 0.0,0.0 z "
         style="fill-rule:evenodd;stroke:#000000;stroke-width:1.0pt;marker-start:none;"
         transform="scale(0.8) rotate(180) translate(12.5,0)" />
    </marker>
    <marker
       inkscape:stockid="Arrow1Mstart"
       orient="auto"
       refY="0.0"
       refX="0.0"
       id="Arrow1Mstart"
       style="overflow:visible">
      <path
         id="path8081"
         d="M 0.0,0.0 L 5.0,-5.0 L -12.5,0.0 L 5.0,5.0 L 0.0,0.0 z "
         style="fill-rule:evenodd;stroke:#000000;stroke-width:1.0pt;marker-start:none"
         transform="scale(0.4) translate(10,0)" />
    </marker>
    <marker
       inkscape:stockid="Arrow1Mend"
       orient="auto"
       refY="0.0"
       refX="0.0"
       id="Arrow1Mend"
       style="overflow:visible;">
      <path
         id="path8084"
         d="M 0.0,0.0 L 5.0,-5.0 L -12.5,0.0 L 5.0,5.0 L 0.0,0.0 z "
         style="fill-rule:evenodd;stroke:#000000;stroke-width:1.0pt;marker-start:none;"
         transform="scale(0.4) rotate(180) translate(10,0)" />
    </marker>
    <marker
       inkscape:stockid="Arrow2Mstart"
       orient="auto"
       refY="0.0"
       refX="0.0"
       id="Arrow2Mstart"
       style="overflow:visible">
      <path
         id="path8099"
         style="font-size:12.0;fill-rule:evenodd;stroke-width:0.62500000;stroke-linejoin:round"
         d="M 8.7185878,4.0337352 L -2.2072895,0.016013256 L 8.7185884,-4.0017078 C 6.9730900,-1.6296469 6.9831476,1.6157441 8.7185878,4.0337352 z "
         transform="scale(0.6) translate(0,0)" />
    </marker>
    <marker
       inkscape:stockid="Arrow2Lend"
       orient="auto"
       refY="0.0"
       refX="0.0"
       id="Arrow2Lend"
       style="overflow:visible;">
      <path
         id="path8096"
         style="font-size:12.0;fill-rule:evenodd;stroke-width:0.62500000;stroke-linejoin:round;"
         d="M 8.7185878,4.0337352 L -2.2072895,0.016013256 L 8.7185884,-4.0017078 C 6.9730900,-1.6296469 6.9831476,1.6157441 8.7185878,4.0337352 z "
         transform="scale(1.1) rotate(180) translate(1,0)" />
    </marker>
    <marker
       inkscape:stockid="Arrow2Lstart"
       orient="auto"
       refY="0.0"
       refX="0.0"
       id="Arrow2Lstart"
       style="overflow:visible">
      <path
         id="path8093"
         style="font-size:12.0;fill-rule:evenodd;stroke-width:0.62500000;stroke-linejoin:round"
         d="M 8.7185878,4.0337352 L -2.2072895,0.016013256 L 8.7185884,-4.0017078 C 6.9730900,-1.6296469 6.9831476,1.6157441 8.7185878,4.0337352 z "
         transform="scale(1.1) translate(1,0)" />
    </marker>
    <linearGradient
       inkscape:collect="always"
       xlink:href="#linearGradient12224"
       id="linearGradient12230"
       x1="947.53644"
       y1="526.09491"
       x2="1620.7117"
       y2="933.39417"
       gradientUnits="userSpaceOnUse" />
  </defs>
  <sodipodi:namedview
     inkscape:window-height="744"
     inkscape:window-width="1280"
     inkscape:pageshadow="2"
     inkscape:pageopacity="0.0"
     guidetolerance="10.0"
     gridtolerance="10.0"
     objecttolerance="10.0"
     borderopacity="1.0"
     bordercolor="#666666"
     pagecolor="#ffffff"
     id="base"
     inkscape:zoom="0.35354839"
     inkscape:cx="1385"
     inkscape:cy="890.33561"
     inkscape:window-x="-4"
     inkscape:window-y="-4"
     inkscape:current-layer="svg2" />
  <path
     style="fill:none;fill-rule:evenodd;stroke:#000000;stroke-width:15;stroke-linecap:butt;stroke-linejoin:miter;stroke-opacity:1;stroke-miterlimit:4;stroke-dasharray:none;marker-end:url(#Arrow1Send);marker-start:url(#Arrow1Sstart)"
     d="M 200.82117,33.941606 L 195.16423,1286.9526 L 2279.7445,1281.2956"
     id="path2240" />
  <path
     style="fill:url(#linearGradient12230);fill-rule:evenodd;stroke:#000000;stroke-width:6;stroke-linecap:butt;stroke-linejoin:miter;stroke-opacity:1;stroke-miterlimit:4;stroke-dasharray:none;fill-opacity:1.0"
     d="M 577.0073,1289.781 L 967.33577,277.18978 L 1493.4307,274.36131 L 1883.7591,1289.781"
     id="path3217" />
  <path
     style="fill:#0000ff;fill-rule:evenodd;stroke:#0000ff;stroke-width:5;stroke-linecap:butt;stroke-linejoin:miter;stroke-opacity:1;stroke-miterlimit:4;stroke-dasharray:10,5;stroke-dashoffset:0"
     d="M 896.62409,166.87956 L 899.45255,1281.2956"
     id="path4188" />
  <path
     style="fill:#0000ff;fill-rule:evenodd;stroke:#0000ff;stroke-width:5;stroke-linecap:butt;stroke-linejoin:miter;stroke-miterlimit:4;stroke-dasharray:10, 5;stroke-dashoffset:0;stroke-opacity:1"
     d="M 1565.5566,161.22263 L 1568.385,1275.6387"
     id="path5159" />
  <path
     style="fill:#ff0000;fill-rule:evenodd;stroke:#ff0000;stroke-width:6;stroke-linecap:butt;stroke-linejoin:miter;stroke-opacity:1;stroke-miterlimit:4;stroke-dasharray:36,6;stroke-dashoffset:0"
     d="M 1236.0401,172.5365 L 1236.0401,1284.1241"
     id="path6130" />
  <path
     style="fill:none;fill-rule:evenodd;stroke:#000000;stroke-width:10;stroke-linecap:butt;stroke-linejoin:miter;stroke-opacity:1;stroke-miterlimit:4;stroke-dasharray:none;marker-start:url(#Arrow2Mstart);marker-end:url(#Arrow1Mend)"
     d="M 907.93795,1168.1569 L 1552.8285,1168.1569"
     id="path7101"
     sodipodi:nodetypes="cc" />
  <path
     style="font-size:12px;font-style:normal;font-weight:normal;fill:#000000;fill-opacity:1;stroke:none;stroke-width:1px;stroke-linecap:butt;stroke-linejoin:miter;stroke-opacity:1;font-family:Charis SIL"
     d="M 987.09741,1080.6309 L 987.09741,1107.3398 L 1002.9177,1107.3398 C 1008.2237,1107.3399 1012.1543,1106.2412 1014.7097,1104.0439 C 1017.265,1101.8467 1018.5427,1098.4857 1018.5427,1093.9609 C 1018.5427,1089.4037 1017.265,1086.0427 1014.7097,1083.8779 C 1012.1543,1081.7132 1008.2237,1080.6309 1002.9177,1080.6309 L 987.09741,1080.6309 z M 987.09741,1050.6504 L 987.09741,1072.623 L 1001.697,1072.623 C 1006.5147,1072.6231 1010.1036,1071.7198 1012.4636,1069.9131 C 1014.8236,1068.1065 1016.0036,1065.3477 1016.0037,1061.6367 C 1016.0036,1057.9584 1014.8236,1055.2077 1012.4636,1053.3848 C 1010.1036,1051.5619 1006.5147,1050.6505 1001.697,1050.6504 L 987.09741,1050.6504 z M 977.23413,1042.5449 L 1002.4294,1042.5449 C 1009.9489,1042.545 1015.7432,1044.1075 1019.8123,1047.2324 C 1023.8812,1050.3575 1025.9157,1054.8008 1025.9158,1060.5625 C 1025.9157,1065.0222 1024.874,1068.5704 1022.7908,1071.207 C 1020.7074,1073.8438 1017.6475,1075.4877 1013.6111,1076.1387 C 1018.4613,1077.1804 1022.2292,1079.3532 1024.9148,1082.6572 C 1027.6003,1085.9613 1028.9431,1090.0873 1028.9431,1095.0352 C 1028.9431,1101.5456 1026.7295,1106.5749 1022.3025,1110.123 C 1017.8754,1113.6712 1011.5765,1115.4453 1003.406,1115.4453 L 977.23413,1115.4453 L 977.23413,1042.5449 z M 1070.2517,1087.9551 C 1062.9926,1087.9551 1057.9633,1088.7852 1055.1638,1090.4453 C 1052.3643,1092.1055 1050.9646,1094.9375 1050.9646,1098.9414 C 1050.9646,1102.1315 1052.0144,1104.6624 1054.114,1106.5342 C 1056.2136,1108.4059 1059.07,1109.3418 1062.6833,1109.3418 C 1067.6638,1109.3418 1071.6596,1107.5759 1074.6707,1104.0439 C 1077.6817,1100.5121 1079.1872,1095.8164 1079.1873,1089.957 L 1079.1873,1087.9551 L 1070.2517,1087.9551 z M 1088.1716,1084.2441 L 1088.1716,1115.4453 L 1079.1873,1115.4453 L 1079.1873,1107.1445 C 1077.1364,1110.4648 1074.5811,1112.9144 1071.5212,1114.4932 C 1068.4613,1116.0719 1064.7178,1116.8613 1060.2908,1116.8613 C 1054.6918,1116.8613 1050.2403,1115.2907 1046.9363,1112.1494 C 1043.6322,1109.0081 1041.9802,1104.8008 1041.9802,1099.5273 C 1041.9802,1093.375 1044.0391,1088.7364 1048.157,1085.6113 C 1052.2748,1082.4864 1058.419,1080.9239 1066.5896,1080.9238 L 1079.1873,1080.9238 L 1079.1873,1080.0449 C 1079.1872,1075.9108 1077.8282,1072.7126 1075.1101,1070.4502 C 1072.392,1068.1879 1068.5752,1067.0567 1063.6599,1067.0566 C 1060.5349,1067.0567 1057.4913,1067.431 1054.5291,1068.1797 C 1051.5668,1068.9284 1048.7185,1070.0515 1045.9841,1071.5488 L 1045.9841,1063.248 C 1049.2719,1061.9786 1052.462,1061.0264 1055.5544,1060.3916 C 1058.6469,1059.7569 1061.6579,1059.4395 1064.5876,1059.4395 C 1072.4978,1059.4395 1078.406,1061.4903 1082.3123,1065.5918 C 1086.2185,1069.6934 1088.1716,1075.9108 1088.1716,1084.2441 L 1088.1716,1084.2441 z M 1152.1853,1082.4375 L 1152.1853,1115.4453 L 1143.2009,1115.4453 L 1143.2009,1082.7305 C 1143.2009,1077.5547 1142.1918,1073.681 1140.1736,1071.1094 C 1138.1553,1068.5378 1135.128,1067.252 1131.0916,1067.252 C 1126.2413,1067.252 1122.4164,1068.7982 1119.6169,1071.8906 C 1116.8174,1074.9831 1115.4177,1079.1986 1115.4177,1084.5371 L 1115.4177,1115.4453 L 1106.3845,1115.4453 L 1106.3845,1060.7578 L 1115.4177,1060.7578 L 1115.4177,1069.2539 C 1117.5661,1065.9662 1120.0971,1063.5085 1123.0105,1061.8809 C 1125.9239,1060.2533 1129.2849,1059.4395 1133.0935,1059.4395 C 1139.376,1059.4395 1144.1286,1061.3845 1147.3513,1065.2744 C 1150.5739,1069.1644 1152.1852,1074.8855 1152.1853,1082.4375 L 1152.1853,1082.4375 z M 1206.1892,1069.0586 L 1206.1892,1039.4688 L 1215.1736,1039.4688 L 1215.1736,1115.4453 L 1206.1892,1115.4453 L 1206.1892,1107.2422 C 1204.3011,1110.4974 1201.9167,1112.9144 1199.0359,1114.4932 C 1196.155,1116.0719 1192.6963,1116.8613 1188.6599,1116.8613 C 1182.0518,1116.8613 1176.6726,1114.2246 1172.5222,1108.9512 C 1168.3718,1103.6777 1166.2966,1096.7442 1166.2966,1088.1504 C 1166.2966,1079.5567 1168.3718,1072.6231 1172.5222,1067.3496 C 1176.6726,1062.0762 1182.0518,1059.4395 1188.6599,1059.4395 C 1192.6963,1059.4395 1196.155,1060.2289 1199.0359,1061.8076 C 1201.9167,1063.3864 1204.3011,1065.8034 1206.1892,1069.0586 L 1206.1892,1069.0586 z M 1175.574,1088.1504 C 1175.574,1094.7585 1176.933,1099.9424 1179.6511,1103.7021 C 1182.3692,1107.4619 1186.1045,1109.3418 1190.8572,1109.3418 C 1195.6097,1109.3418 1199.3532,1107.4619 1202.0876,1103.7021 C 1204.822,1099.9424 1206.1892,1094.7585 1206.1892,1088.1504 C 1206.1892,1081.5424 1204.822,1076.3584 1202.0876,1072.5986 C 1199.3532,1068.8389 1195.6097,1066.959 1190.8572,1066.959 C 1186.1045,1066.959 1182.3692,1068.8389 1179.6511,1072.5986 C 1176.933,1076.3584 1175.574,1081.5424 1175.574,1088.1504 L 1175.574,1088.1504 z M 1228.4548,1060.7578 L 1237.4392,1060.7578 L 1248.6697,1103.4336 L 1259.8513,1060.7578 L 1270.447,1060.7578 L 1281.6775,1103.4336 L 1292.8591,1060.7578 L 1301.8435,1060.7578 L 1287.5369,1115.4453 L 1276.9412,1115.4453 L 1265.1736,1070.6211 L 1253.3572,1115.4453 L 1242.7615,1115.4453 L 1228.4548,1060.7578 z M 1315.5154,1060.7578 L 1324.4998,1060.7578 L 1324.4998,1115.4453 L 1315.5154,1115.4453 L 1315.5154,1060.7578 z M 1315.5154,1039.4688 L 1324.4998,1039.4688 L 1324.4998,1050.8457 L 1315.5154,1050.8457 L 1315.5154,1039.4688 z M 1379.2361,1069.0586 L 1379.2361,1039.4688 L 1388.2205,1039.4688 L 1388.2205,1115.4453 L 1379.2361,1115.4453 L 1379.2361,1107.2422 C 1377.348,1110.4974 1374.9636,1112.9144 1372.0828,1114.4932 C 1369.2019,1116.0719 1365.7432,1116.8613 1361.7068,1116.8613 C 1355.0987,1116.8613 1349.7195,1114.2246 1345.5691,1108.9512 C 1341.4187,1103.6777 1339.3435,1096.7442 1339.3435,1088.1504 C 1339.3435,1079.5567 1341.4187,1072.6231 1345.5691,1067.3496 C 1349.7195,1062.0762 1355.0987,1059.4395 1361.7068,1059.4395 C 1365.7432,1059.4395 1369.2019,1060.2289 1372.0828,1061.8076 C 1374.9636,1063.3864 1377.348,1065.8034 1379.2361,1069.0586 L 1379.2361,1069.0586 z M 1348.6208,1088.1504 C 1348.6208,1094.7585 1349.9799,1099.9424 1352.698,1103.7021 C 1355.4161,1107.4619 1359.1514,1109.3418 1363.9041,1109.3418 C 1368.6566,1109.3418 1372.4001,1107.4619 1375.1345,1103.7021 C 1377.8689,1099.9424 1379.236,1094.7585 1379.2361,1088.1504 C 1379.236,1081.5424 1377.8689,1076.3584 1375.1345,1072.5986 C 1372.4001,1068.8389 1368.6566,1066.959 1363.9041,1066.959 C 1359.1514,1066.959 1355.4161,1068.8389 1352.698,1072.5986 C 1349.9799,1076.3584 1348.6208,1081.5424 1348.6208,1088.1504 L 1348.6208,1088.1504 z M 1415.613,1045.2305 L 1415.613,1060.7578 L 1434.1189,1060.7578 L 1434.1189,1067.7402 L 1415.613,1067.7402 L 1415.613,1097.4277 C 1415.613,1101.8874 1416.2234,1104.752 1417.4441,1106.0215 C 1418.6648,1107.291 1421.1469,1107.9258 1424.8904,1107.9258 L 1434.1189,1107.9258 L 1434.1189,1115.4453 L 1424.8904,1115.4453 C 1417.9568,1115.4453 1413.1716,1114.1514 1410.5349,1111.5635 C 1407.8982,1108.9756 1406.5798,1104.2637 1406.5798,1097.4277 L 1406.5798,1067.7402 L 1399.988,1067.7402 L 1399.988,1060.7578 L 1406.5798,1060.7578 L 1406.5798,1045.2305 L 1415.613,1045.2305 z M 1491.4431,1082.4375 L 1491.4431,1115.4453 L 1482.4587,1115.4453 L 1482.4587,1082.7305 C 1482.4587,1077.5547 1481.4496,1073.681 1479.4314,1071.1094 C 1477.4131,1068.5378 1474.3858,1067.252 1470.3494,1067.252 C 1465.4991,1067.252 1461.6742,1068.7982 1458.8748,1071.8906 C 1456.0753,1074.9831 1454.6755,1079.1986 1454.6755,1084.5371 L 1454.6755,1115.4453 L 1445.6423,1115.4453 L 1445.6423,1039.4688 L 1454.6755,1039.4688 L 1454.6755,1069.2539 C 1456.824,1065.9662 1459.3549,1063.5085 1462.2683,1061.8809 C 1465.1817,1060.2533 1468.5427,1059.4395 1472.3513,1059.4395 C 1478.6338,1059.4395 1483.3864,1061.3845 1486.6091,1065.2744 C 1489.8317,1069.1644 1491.4431,1074.8855 1491.4431,1082.4375 L 1491.4431,1082.4375 z "
     id="text8276" />
  <path
     style="font-size:12px;font-style:normal;font-weight:normal;fill:#0000ff;fill-opacity:1;stroke:none;stroke-width:1px;stroke-linecap:butt;stroke-linejoin:miter;stroke-opacity:1;font-family:Charis SIL"
     d="M 854.01154,1317.1653 L 895.90607,1317.1653 L 895.90607,1325.4661 L 863.87482,1325.4661 L 863.87482,1346.9504 L 892.78107,1346.9504 L 892.78107,1355.2512 L 863.87482,1355.2512 L 863.87482,1390.0657 L 854.01154,1390.0657 L 854.01154,1317.1653 z M 914.21661,1381.7649 L 930.3299,1381.7649 L 930.3299,1326.1497 L 912.8006,1329.6653 L 912.8006,1320.6809 L 930.23224,1317.1653 L 940.09552,1317.1653 L 940.09552,1381.7649 L 956.2088,1381.7649 L 956.2088,1390.0657 L 914.21661,1390.0657 L 914.21661,1381.7649 z "
     id="text8281" />
  <path
     style="font-size:12px;font-style:normal;font-weight:normal;fill:#0000ff;fill-opacity:1;stroke:none;stroke-width:1px;stroke-linecap:butt;stroke-linejoin:miter;stroke-opacity:1;font-family:Charis SIL"
     d="M 1521.6721,1310.3368 L 1563.5667,1310.3368 L 1563.5667,1318.6376 L 1531.5354,1318.6376 L 1531.5354,1340.1219 L 1560.4417,1340.1219 L 1560.4417,1348.4227 L 1531.5354,1348.4227 L 1531.5354,1383.2372 L 1521.6721,1383.2372 L 1521.6721,1310.3368 z M 1588.6643,1374.9364 L 1623.0881,1374.9364 L 1623.0881,1383.2372 L 1576.7991,1383.2372 L 1576.7991,1374.9364 C 1580.5426,1371.0627 1585.6451,1365.8625 1592.1067,1359.3358 C 1598.5682,1352.8092 1602.6291,1348.6018 1604.2893,1346.7137 C 1607.4468,1343.1656 1609.6522,1340.1627 1610.9055,1337.705 C 1612.1587,1335.2473 1612.7854,1332.8303 1612.7854,1330.454 C 1612.7854,1326.5803 1611.4263,1323.4228 1608.7083,1320.9813 C 1605.9901,1318.54 1602.4501,1317.3193 1598.0881,1317.3192 C 1594.9957,1317.3193 1591.7323,1317.8564 1588.2981,1318.9305 C 1584.8638,1320.0048 1581.1936,1321.6324 1577.2874,1323.8134 L 1577.2874,1313.8524 C 1581.2587,1312.2574 1584.9696,1311.053 1588.4202,1310.2391 C 1591.8707,1309.4254 1595.0282,1309.0185 1597.8928,1309.0184 C 1605.4449,1309.0185 1611.467,1310.9065 1615.9592,1314.6825 C 1620.4514,1318.4586 1622.6975,1323.5042 1622.6975,1329.8192 C 1622.6975,1332.8141 1622.1359,1335.6542 1621.0129,1338.3397 C 1619.8898,1341.0253 1617.8472,1344.191 1614.885,1347.8368 C 1614.0712,1348.7808 1611.4833,1351.5071 1607.1213,1356.0155 C 1602.7593,1360.524 1596.607,1366.8309 1588.6643,1374.9364 L 1588.6643,1374.9364 z "
     id="text8286" />
  <path
     style="font-size:12px;font-style:normal;font-weight:normal;fill:#000000;fill-opacity:1;stroke:none;stroke-width:1px;stroke-linecap:butt;stroke-linejoin:miter;stroke-opacity:1;font-family:Charis SIL"
     d="M 1963.2955,1318.9176 L 1963.2955,1326.3883 L 1954.7018,1326.3883 C 1951.4791,1326.3884 1949.2411,1327.0394 1947.9879,1328.3414 C 1946.7346,1329.6436 1946.108,1331.9873 1946.108,1335.3727 L 1946.108,1340.2067 L 1960.903,1340.2067 L 1960.903,1347.1891 L 1946.108,1347.1891 L 1946.108,1394.8942 L 1937.0748,1394.8942 L 1937.0748,1347.1891 L 1928.4811,1347.1891 L 1928.4811,1340.2067 L 1937.0748,1340.2067 L 1937.0748,1336.3981 C 1937.0748,1330.3109 1938.4908,1325.8757 1941.3229,1323.0924 C 1944.1549,1320.3093 1948.6471,1318.9177 1954.7994,1318.9176 L 1963.2955,1318.9176 z M 1992.3483,1319.0153 C 1987.9863,1326.5023 1984.7473,1333.9079 1982.6315,1341.2321 C 1980.5156,1348.5563 1979.4576,1355.9782 1979.4576,1363.4977 C 1979.4576,1371.0172 1980.5237,1378.4635 1982.6559,1385.8365 C 1984.788,1393.2096 1988.0188,1400.6233 1992.3483,1408.0778 L 1984.5358,1408.0778 C 1979.6529,1400.428 1975.999,1392.9085 1973.5739,1385.5192 C 1971.1487,1378.1299 1969.9361,1370.7894 1969.9362,1363.4977 C 1969.9361,1356.2386 1971.1406,1348.9307 1973.5494,1341.5739 C 1975.9583,1334.2171 1979.6204,1326.6976 1984.5358,1319.0153 L 1992.3483,1319.0153 z M 2009.4869,1318.9176 L 2018.5201,1318.9176 L 2018.5201,1363.7906 L 2045.3268,1340.2067 L 2056.8014,1340.2067 L 2027.7975,1365.7926 L 2058.0221,1394.8942 L 2046.3033,1394.8942 L 2018.5201,1368.1852 L 2018.5201,1394.8942 L 2009.4869,1394.8942 L 2009.4869,1318.9176 z M 2068.2272,1321.9938 L 2078.0905,1321.9938 L 2078.0905,1351.8766 L 2113.9303,1351.8766 L 2113.9303,1321.9938 L 2123.7936,1321.9938 L 2123.7936,1394.8942 L 2113.9303,1394.8942 L 2113.9303,1360.1774 L 2078.0905,1360.1774 L 2078.0905,1394.8942 L 2068.2272,1394.8942 L 2068.2272,1321.9938 z M 2139.1256,1340.2067 L 2181.8014,1340.2067 L 2181.8014,1348.4098 L 2148.0123,1387.7164 L 2181.8014,1387.7164 L 2181.8014,1394.8942 L 2137.9049,1394.8942 L 2137.9049,1386.691 L 2171.694,1347.3844 L 2139.1256,1347.3844 L 2139.1256,1340.2067 z M 2194.1549,1319.0153 L 2201.9674,1319.0153 C 2206.8502,1326.6976 2210.5042,1334.2171 2212.9293,1341.5739 C 2215.3544,1348.9307 2216.567,1356.2386 2216.567,1363.4977 C 2216.567,1370.7894 2215.3544,1378.1299 2212.9293,1385.5192 C 2210.5042,1392.9085 2206.8502,1400.428 2201.9674,1408.0778 L 2194.1549,1408.0778 C 2198.4843,1400.6233 2201.7151,1393.2096 2203.8473,1385.8365 C 2205.9794,1378.4635 2207.0455,1371.0172 2207.0455,1363.4977 C 2207.0455,1355.9782 2205.9794,1348.5563 2203.8473,1341.2321 C 2201.7151,1333.9079 2198.4843,1326.5023 2194.1549,1319.0153 L 2194.1549,1319.0153 z "
     id="text8291" />
  <path
     transform="matrix(0,-1,1,0,0,0)"
     style="font-size:12px;font-style:normal;font-weight:normal;fill:#000000;fill-opacity:1;stroke:none;stroke-width:1px;stroke-linecap:butt;stroke-linejoin:miter;stroke-opacity:1;font-family:Charis SIL"
     d="M -1145.9554,120.11542 C -1153.2146,120.11544 -1158.2439,120.94552 -1161.0433,122.60565 C -1163.8428,124.26583 -1165.2426,127.09786 -1165.2426,131.10175 C -1165.2426,134.29186 -1164.1928,136.82279 -1162.0931,138.69452 C -1159.9936,140.56627 -1157.1371,141.50214 -1153.5238,141.50214 C -1148.5434,141.50214 -1144.5476,139.73619 -1141.5365,136.20428 C -1138.5255,132.6724 -1137.0199,127.97677 -1137.0199,122.11737 L -1137.0199,120.11542 L -1145.9554,120.11542 z M -1128.0355,116.40448 L -1128.0355,147.60565 L -1137.0199,147.60565 L -1137.0199,139.30487 C -1139.0707,142.62519 -1141.6261,145.07473 -1144.6859,146.6535 C -1147.7458,148.23228 -1151.4893,149.02167 -1155.9164,149.02167 C -1161.5154,149.02167 -1165.9669,147.45103 -1169.2709,144.30975 C -1172.5749,141.16848 -1174.2269,136.96113 -1174.2269,131.68768 C -1174.2269,125.53536 -1172.168,120.89669 -1168.0502,117.77167 C -1163.9323,114.6467 -1157.7881,113.0842 -1149.6176,113.08417 L -1137.0199,113.08417 L -1137.0199,112.20526 C -1137.0199,108.07119 -1138.379,104.87295 -1141.097,102.61053 C -1143.8152,100.34821 -1147.6319,99.217028 -1152.5472,99.21698 C -1155.6723,99.217028 -1158.7159,99.591377 -1161.6781,100.34003 C -1164.6404,101.08877 -1167.4887,102.21182 -1170.223,103.70917 L -1170.223,95.408386 C -1166.9353,94.138908 -1163.7452,93.186761 -1160.6527,92.551941 C -1157.5603,91.917231 -1154.5492,91.599848 -1151.6195,91.599792 C -1143.7094,91.599848 -1137.8012,93.650628 -1133.8949,97.752136 C -1129.9887,101.85374 -1128.0356,108.07119 -1128.0355,116.40448 L -1128.0355,116.40448 z M -1066.9027,103.4162 C -1064.6567,99.379789 -1061.9711,96.401276 -1058.8461,94.480652 C -1055.7211,92.560134 -1052.0428,91.599848 -1047.8109,91.599792 C -1042.1144,91.599848 -1037.7198,93.593662 -1034.6273,97.581238 C -1031.535,101.56891 -1029.9887,107.24111 -1029.9886,114.59784 L -1029.9886,147.60565 L -1039.0219,147.60565 L -1039.0219,114.89081 C -1039.0219,109.64996 -1039.9497,105.75999 -1041.8051,103.22089 C -1043.6606,100.68187 -1046.4926,99.412341 -1050.3011,99.412292 C -1054.9562,99.412341 -1058.6345,100.95856 -1061.3363,104.05096 C -1064.0382,107.14345 -1065.3891,111.35894 -1065.389,116.69745 L -1065.389,147.60565 L -1074.4222,147.60565 L -1074.4222,114.89081 C -1074.4223,109.61741 -1075.35,105.7193 -1077.2054,103.19647 C -1079.061,100.67373 -1081.9255,99.412341 -1085.7992,99.412292 C -1090.3891,99.412341 -1094.0349,100.9667 -1096.7367,104.07538 C -1099.4385,107.18414 -1100.7894,111.3915 -1100.7894,116.69745 L -1100.7894,147.60565 L -1109.8226,147.60565 L -1109.8226,92.918152 L -1100.7894,92.918152 L -1100.7894,101.41425 C -1098.7387,98.061431 -1096.281,95.587475 -1093.4164,93.992371 C -1090.5518,92.397374 -1087.1501,91.599848 -1083.2113,91.599792 C -1079.24,91.599848 -1075.8627,92.608962 -1073.0795,94.627136 C -1070.2963,96.645416 -1068.2374,99.575101 -1066.9027,103.4162 L -1066.9027,103.4162 z M -1003.3285,139.40253 L -1003.3285,168.40643 L -1012.3617,168.40643 L -1012.3617,92.918152 L -1003.3285,92.918152 L -1003.3285,101.21893 C -1001.4405,97.963774 -999.05605,95.546785 -996.17517,93.967957 C -993.29434,92.389236 -989.85196,91.599848 -985.84802,91.599792 C -979.20744,91.599848 -973.81194,94.236565 -969.6615,99.509949 C -965.51116,104.78343 -963.43597,111.71702 -963.43591,120.31073 C -963.43597,128.9045 -965.51116,135.83809 -969.6615,141.11151 C -973.81194,146.38495 -979.20744,149.02167 -985.84802,149.02167 C -989.85196,149.02167 -993.29434,148.23228 -996.17517,146.6535 C -999.05605,145.07473 -1001.4405,142.65774 -1003.3285,139.40253 L -1003.3285,139.40253 z M -972.76208,120.31073 C -972.76213,113.70269 -974.12118,108.51878 -976.83923,104.75897 C -979.55737,100.99925 -983.29272,99.119372 -988.04529,99.119324 C -992.79792,99.119372 -996.53327,100.99925 -999.25134,104.75897 C -1001.9695,108.51878 -1003.3285,113.70269 -1003.3285,120.31073 C -1003.3285,126.91882 -1001.9695,132.10274 -999.25134,135.86249 C -996.53327,139.62226 -992.79792,141.50214 -988.04529,141.50214 C -983.29272,141.50214 -979.55737,139.62226 -976.83923,135.86249 C -974.12118,132.10274 -972.76213,126.91882 -972.76208,120.31073 L -972.76208,120.31073 z M -948.54333,71.629089 L -939.55896,71.629089 L -939.55896,147.60565 L -948.54333,147.60565 L -948.54333,71.629089 z M -920.80896,92.918152 L -911.82458,92.918152 L -911.82458,147.60565 L -920.80896,147.60565 L -920.80896,92.918152 z M -920.80896,71.629089 L -911.82458,71.629089 L -911.82458,83.006042 L -920.80896,83.006042 L -920.80896,71.629089 z M -884.18787,77.390808 L -884.18787,92.918152 L -865.68201,92.918152 L -865.68201,99.900574 L -884.18787,99.900574 L -884.18787,129.58807 C -884.18788,134.04772 -883.57753,136.9123 -882.35681,138.18182 C -881.13613,139.45136 -878.65404,140.08613 -874.91052,140.08612 L -865.68201,140.08612 L -865.68201,147.60565 L -874.91052,147.60565 C -881.84414,147.60565 -886.62929,146.31171 -889.26599,143.72382 C -891.90272,141.13593 -893.22108,136.42402 -893.22107,129.58807 L -893.22107,99.900574 L -899.81287,99.900574 L -899.81287,92.918152 L -893.22107,92.918152 L -893.22107,77.390808 L -884.18787,77.390808 z M -854.74451,126.02362 L -854.74451,92.918152 L -845.76013,92.918152 L -845.76013,125.68182 C -845.76015,130.85762 -844.75104,134.73945 -842.73279,137.32733 C -840.71458,139.91523 -837.68724,141.20917 -833.65076,141.20917 C -828.80053,141.20917 -824.96753,139.66295 -822.15173,136.5705 C -819.33602,133.47806 -817.92815,129.26257 -817.9281,123.92401 L -817.9281,92.918152 L -808.94373,92.918152 L -808.94373,147.60565 L -817.9281,147.60565 L -817.9281,139.20721 C -820.10913,142.52753 -822.64006,144.99335 -825.52087,146.60468 C -828.40177,148.216 -831.74649,149.02167 -835.55505,149.02167 C -841.83763,149.02167 -846.6065,147.06854 -849.86169,143.16229 C -853.11691,139.25605 -854.74452,133.54317 -854.74451,126.02362 L -854.74451,126.02362 z M -754.35388,101.21893 L -754.35388,71.629089 L -745.36951,71.629089 L -745.36951,147.60565 L -754.35388,147.60565 L -754.35388,139.40253 C -756.24195,142.65774 -758.62638,145.07473 -761.5072,146.6535 C -764.3881,148.23228 -767.84675,149.02167 -771.88318,149.02167 C -778.49127,149.02167 -783.8705,146.38495 -788.02087,141.11151 C -792.17127,135.83809 -794.24647,128.9045 -794.24646,120.31073 C -794.24647,111.71702 -792.17127,104.78343 -788.02087,99.509949 C -783.8705,94.236565 -778.49127,91.599848 -771.88318,91.599792 C -767.84675,91.599848 -764.3881,92.389236 -761.5072,93.967957 C -758.62638,95.546785 -756.24195,97.963774 -754.35388,101.21893 L -754.35388,101.21893 z M -784.96912,120.31073 C -784.96913,126.91882 -783.61008,132.10274 -780.89197,135.86249 C -778.17389,139.62226 -774.43854,141.50214 -769.68591,141.50214 C -764.93334,141.50214 -761.18986,139.62226 -758.45544,135.86249 C -755.72111,132.10274 -754.35393,126.91882 -754.35388,120.31073 C -754.35393,113.70269 -755.72111,108.51878 -758.45544,104.75897 C -761.18986,100.99925 -764.93334,99.119372 -769.68591,99.119324 C -774.43854,99.119372 -778.17389,100.99925 -780.89197,104.75897 C -783.61008,108.51878 -784.96913,113.70269 -784.96912,120.31073 L -784.96912,120.31073 z M -680.0863,118.01581 L -680.0863,122.41034 L -721.3949,122.41034 C -721.00429,128.59525 -719.14068,133.30716 -715.80408,136.54608 C -712.46751,139.78502 -707.82071,141.40449 -701.86365,141.40448 C -698.41316,141.40449 -695.06844,140.98131 -691.82947,140.13495 C -688.59058,139.2886 -685.37607,138.01907 -682.18591,136.32635 L -682.18591,144.82245 C -685.40862,146.18964 -688.71265,147.2313 -692.09802,147.94745 C -695.48348,148.66359 -698.91772,149.02167 -702.40076,149.02167 C -711.12474,149.02167 -718.03391,146.48261 -723.1283,141.40448 C -728.22271,136.32637 -730.7699,129.45788 -730.7699,120.79901 C -730.7699,111.84722 -728.35291,104.74274 -723.51892,99.485535 C -718.68495,94.228427 -712.16641,91.599848 -703.96326,91.599792 C -696.60653,91.599848 -690.78785,93.96801 -686.5072,98.704285 C -682.22666,103.44066 -680.08636,109.87783 -680.0863,118.01581 L -680.0863,118.01581 z M -689.07068,115.37909 C -689.13583,110.46376 -690.51115,106.54124 -693.19666,103.61151 C -695.88224,100.68187 -699.43855,99.217028 -703.8656,99.21698 C -708.87865,99.217028 -712.89069,100.63304 -715.90173,103.46503 C -718.91282,106.2971 -720.64622,110.28473 -721.10193,115.42792 L -689.07068,115.37909 z M -611.92224,71.726746 C -616.28425,79.213793 -619.52318,86.619385 -621.63904,93.943542 C -623.75494,101.26781 -624.81288,108.68968 -624.81287,116.20917 C -624.81288,123.72872 -623.7468,131.175 -621.61462,138.54803 C -619.48249,145.92108 -616.25169,153.33481 -611.92224,160.78925 L -619.73474,160.78925 C -624.61757,153.1395 -628.27154,145.61998 -630.69666,138.23065 C -633.1218,130.84135 -634.33436,123.50086 -634.33435,116.20917 C -634.33436,108.95009 -633.12993,101.64216 -630.72107,94.285339 C -628.31223,86.928629 -624.65012,79.409105 -619.73474,71.726746 L -611.92224,71.726746 z M -558.45544,101.21893 L -558.45544,71.629089 L -549.47107,71.629089 L -549.47107,147.60565 L -558.45544,147.60565 L -558.45544,139.40253 C -560.34351,142.65774 -562.72795,145.07473 -565.60876,146.6535 C -568.48966,148.23228 -571.94831,149.02167 -575.98474,149.02167 C -582.59284,149.02167 -587.97206,146.38495 -592.12244,141.11151 C -596.27283,135.83809 -598.34803,128.9045 -598.34802,120.31073 C -598.34803,111.71702 -596.27283,104.78343 -592.12244,99.509949 C -587.97206,94.236565 -582.59284,91.599848 -575.98474,91.599792 C -571.94831,91.599848 -568.48966,92.389236 -565.60876,93.967957 C -562.72795,95.546785 -560.34351,97.963774 -558.45544,101.21893 L -558.45544,101.21893 z M -589.07068,120.31073 C -589.07069,126.91882 -587.71165,132.10274 -584.99353,135.86249 C -582.27545,139.62226 -578.54011,141.50214 -573.78748,141.50214 C -569.03491,141.50214 -565.29142,139.62226 -562.55701,135.86249 C -559.82268,132.10274 -558.45549,126.91882 -558.45544,120.31073 C -558.45549,113.70269 -559.82268,108.51878 -562.55701,104.75897 C -565.29142,100.99925 -569.03491,99.119372 -573.78748,99.119324 C -578.54011,99.119372 -582.27545,100.99925 -584.99353,104.75897 C -587.71165,108.51878 -589.07069,113.70269 -589.07068,120.31073 L -589.07068,120.31073 z M -520.7113,112.7912 L -520.7113,139.50018 L -504.89099,139.50018 C -499.58504,139.50019 -495.65438,138.40156 -493.099,136.20428 C -490.54371,134.00703 -489.26604,130.64603 -489.26599,126.12128 C -489.26604,121.56401 -490.54371,118.20301 -493.099,116.03827 C -495.65438,113.87359 -499.58504,112.79123 -504.89099,112.7912 L -520.7113,112.7912 z M -520.7113,82.81073 L -520.7113,104.78339 L -506.11169,104.78339 C -501.29403,104.78343 -497.70516,103.88011 -495.34509,102.07343 C -492.98511,100.26683 -491.8051,97.508046 -491.80505,93.797058 C -491.8051,90.11873 -492.98511,87.368082 -495.34509,85.545105 C -497.70516,83.722252 -501.29403,82.810795 -506.11169,82.81073 L -520.7113,82.81073 z M -530.57458,74.705261 L -505.37927,74.705261 C -497.85978,74.705334 -492.06552,76.267833 -487.99646,79.392761 C -483.92751,82.517826 -481.893,86.961181 -481.89294,92.722839 C -481.893,97.182525 -482.93467,100.7307 -485.01794,103.36737 C -487.10133,106.00413 -490.16122,107.64801 -494.19763,108.29901 C -489.34742,109.34072 -485.57952,111.51357 -482.89392,114.81757 C -480.20843,118.12163 -478.86566,122.2476 -478.8656,127.1955 C -478.86566,133.70593 -481.0792,138.73522 -485.50623,142.28339 C -489.93336,145.83157 -496.23218,147.60565 -504.40271,147.60565 L -530.57458,147.60565 L -530.57458,74.705261 z M -386.48279,77.097839 L -386.48279,86.71698 C -390.22633,84.926678 -393.75822,83.592044 -397.07849,82.713074 C -400.39884,81.834233 -403.60522,81.394781 -406.69763,81.394714 C -412.06875,81.394781 -416.211,82.436446 -419.12439,84.519714 C -422.03782,86.603109 -423.49452,89.565345 -423.49451,93.406433 C -423.49452,96.62914 -422.5261,99.062406 -420.58923,100.70624 C -418.65241,102.35016 -414.98216,103.67666 -409.57849,104.68573 L -403.62146,105.90643 C -396.26473,107.30621 -390.83668,109.77203 -387.33728,113.30389 C -383.83799,116.83583 -382.08831,121.56401 -382.08826,127.48846 C -382.08831,134.55228 -384.45648,139.90709 -389.19275,143.55292 C -393.92912,147.19875 -400.87085,149.02167 -410.01794,149.02167 C -413.46849,149.02167 -417.13874,148.63104 -421.02869,147.84979 C -424.91868,147.06854 -428.94699,145.91295 -433.11365,144.383 L -433.11365,134.22675 C -429.10975,136.47285 -425.18723,138.16556 -421.34607,139.30487 C -417.50495,140.4442 -413.72891,141.01386 -410.01794,141.01385 C -404.38647,141.01386 -400.04077,139.90709 -396.98083,137.69354 C -393.92099,135.48001 -392.39104,132.32246 -392.39099,128.22089 C -392.39104,124.64018 -393.48967,121.8407 -395.68689,119.82245 C -397.8842,117.80425 -401.48934,116.29058 -406.50232,115.28143 L -412.50818,114.10956 C -419.86497,112.64475 -425.18723,110.34983 -428.47498,107.22479 C -431.76274,104.09984 -433.40662,99.754137 -433.40662,94.187683 C -433.40662,87.74243 -431.13612,82.664311 -426.59509,78.953308 C -422.0541,75.242443 -415.79596,73.386976 -407.82068,73.386902 C -404.40275,73.386976 -400.91968,73.696221 -397.37146,74.314636 C -393.82333,74.933198 -390.19378,75.860932 -386.48279,77.097839 L -386.48279,77.097839 z M -356.84412,82.81073 L -356.84412,110.20331 L -344.44177,110.20331 C -339.85197,110.20335 -336.30379,109.0152 -333.79724,106.63885 C -331.29078,104.2626 -330.03752,100.87718 -330.03748,96.482605 C -330.03752,92.120681 -331.29078,88.751544 -333.79724,86.375183 C -336.30379,83.998945 -339.85197,82.810795 -344.44177,82.81073 L -356.84412,82.81073 z M -366.7074,74.705261 L -344.44177,74.705261 C -336.27124,74.705334 -330.09449,76.552663 -325.9115,80.247253 C -321.72861,83.941979 -319.63714,89.353757 -319.63708,96.482605 C -319.63714,103.67666 -321.72861,109.11285 -325.9115,112.7912 C -330.09449,116.46962 -336.27124,118.30881 -344.44177,118.30878 L -356.84412,118.30878 L -356.84412,147.60565 L -366.7074,147.60565 L -366.7074,74.705261 z M -306.35583,74.705261 L -296.49255,74.705261 L -296.49255,139.30487 L -260.99451,139.30487 L -260.99451,147.60565 L -306.35583,147.60565 L -306.35583,74.705261 z M -252.49841,71.726746 L -244.68591,71.726746 C -239.80312,79.409105 -236.14915,86.928629 -233.724,94.285339 C -231.2989,101.64216 -230.08633,108.95009 -230.0863,116.20917 C -230.08633,123.50086 -231.2989,130.84135 -233.724,138.23065 C -236.14915,145.61998 -239.80312,153.1395 -244.68591,160.78925 L -252.49841,160.78925 C -248.169,153.33481 -244.93821,145.92108 -242.80603,138.54803 C -240.67389,131.175 -239.60781,123.72872 -239.60779,116.20917 C -239.60781,108.68968 -240.67389,101.26781 -242.80603,93.943542 C -244.93821,86.619385 -248.169,79.213793 -252.49841,71.726746 L -252.49841,71.726746 z "
     id="text8296" />
  <path
     style="fill:none;fill-rule:evenodd;stroke:#000000;stroke-width:8;stroke-linecap:butt;stroke-linejoin:miter;stroke-opacity:1;stroke-miterlimit:4;stroke-dasharray:8,16;stroke-dashoffset:0"
     d="M 197.9927,274.36131 L 2214.6898,268.70438"
     id="path8301" />
  <path
     style="fill:none;fill-rule:evenodd;stroke:#000000;stroke-width:8;stroke-linecap:butt;stroke-linejoin:miter;stroke-miterlimit:4;stroke-dasharray:8, 16;stroke-dashoffset:0;stroke-opacity:1"
     d="M 203.0675,468.90511 L 2233.9069,463.24818"
     id="path9272"
     sodipodi:nodetypes="cc" />
  <path
     style="fill:none;fill-rule:evenodd;stroke:#000000;stroke-width:5;stroke-linecap:butt;stroke-linejoin:miter;marker-start:url(#Arrow1Mstart);marker-end:url(#Arrow1Mend);stroke-miterlimit:4;stroke-dasharray:none;stroke-opacity:1"
     d="M 1962.6131,268.70438 L 1962.6131,463.86861"
     id="path9274"
     sodipodi:nodetypes="cc" />
  <path
     style="font-size:80px;font-style:normal;font-weight:normal;fill:#000000;fill-opacity:1;stroke:none;stroke-width:1px;stroke-linecap:butt;stroke-linejoin:miter;stroke-opacity:1;font-family:Charis SIL"
     d="M 2033.0156,365.77002 C 2036.7916,366.57734 2039.7408,368.25703 2041.8633,370.80908 C 2043.9856,373.36119 2045.0468,376.51223 2045.0469,380.26221 C 2045.0468,386.01743 2043.0677,390.47055 2039.1094,393.62158 C 2035.151,396.77262 2029.526,398.34814 2022.2344,398.34814 C 2019.7864,398.34814 2017.2669,398.10726 2014.6758,397.62549 C 2012.0846,397.14372 2009.4088,396.42106 2006.6484,395.45752 L 2006.6484,387.84033 C 2008.8359,389.11638 2011.2318,390.07992 2013.8359,390.73096 C 2016.4401,391.382 2019.1614,391.70753 2022,391.70752 C 2026.9479,391.70753 2030.7174,390.73096 2033.3086,388.77783 C 2035.8997,386.82472 2037.1953,383.98618 2037.1953,380.26221 C 2037.1953,376.82473 2035.9908,374.13593 2033.582,372.1958 C 2031.1731,370.25572 2027.8203,369.28567 2023.5234,369.28564 L 2016.7266,369.28564 L 2016.7266,362.80127 L 2023.8359,362.80127 C 2027.7161,362.8013 2030.6849,362.02657 2032.7422,360.47705 C 2034.7994,358.92761 2035.8281,356.69454 2035.8281,353.77783 C 2035.8281,350.78309 2034.7669,348.48491 2032.6445,346.8833 C 2030.5221,345.28179 2027.4817,344.48101 2023.5234,344.48096 C 2021.362,344.48101 2019.0443,344.71538 2016.5703,345.18408 C 2014.0963,345.65288 2011.375,346.38205 2008.4063,347.37158 L 2008.4063,340.34033 C 2011.401,339.50706 2014.207,338.88206 2016.8242,338.46533 C 2019.4414,338.04872 2021.9088,337.84039 2024.2266,337.84033 C 2030.2161,337.84039 2034.9557,339.20107 2038.4453,341.92236 C 2041.9349,344.64377 2043.6796,348.32215 2043.6797,352.95752 C 2043.6796,356.18673 2042.7552,358.91459 2040.9063,361.14111 C 2039.0573,363.36771 2036.427,364.91068 2033.0156,365.77002 L 2033.0156,365.77002 z M 2087.8203,360.10596 L 2087.8203,336.43408 L 2095.0078,336.43408 L 2095.0078,397.21533 L 2087.8203,397.21533 L 2087.8203,390.65283 C 2086.3099,393.257 2084.4023,395.19059 2082.0977,396.45361 C 2079.7929,397.71663 2077.026,398.34814 2073.7969,398.34814 C 2068.5104,398.34814 2064.207,396.23877 2060.8867,392.02002 C 2057.5664,387.80128 2055.9062,382.25441 2055.9063,375.37939 C 2055.9062,368.50442 2057.5664,362.95755 2060.8867,358.73877 C 2064.207,354.52006 2068.5104,352.41069 2073.7969,352.41064 C 2077.026,352.41069 2079.7929,353.0422 2082.0977,354.30518 C 2084.4023,355.56824 2086.3099,357.50183 2087.8203,360.10596 L 2087.8203,360.10596 z M 2063.3281,375.37939 C 2063.3281,380.66587 2064.4154,384.813 2066.5898,387.8208 C 2068.7643,390.82862 2071.7526,392.33252 2075.5547,392.33252 C 2079.3567,392.33252 2082.3515,390.82862 2084.5391,387.8208 C 2086.7265,384.813 2087.8203,380.66587 2087.8203,375.37939 C 2087.8203,370.09296 2086.7265,365.94583 2084.5391,362.93799 C 2082.3515,359.93021 2079.3567,358.42631 2075.5547,358.42627 C 2071.7526,358.42631 2068.7643,359.93021 2066.5898,362.93799 C 2064.4154,365.94583 2063.3281,370.09296 2063.3281,375.37939 L 2063.3281,375.37939 z M 2118.0156,369.36377 L 2118.0156,390.73096 L 2130.6719,390.73096 C 2134.9166,390.73096 2138.0612,389.85206 2140.1055,388.09424 C 2142.1497,386.33644 2143.1718,383.64764 2143.1719,380.02783 C 2143.1718,376.38202 2142.1497,373.69322 2140.1055,371.96143 C 2138.0612,370.22968 2134.9166,369.3638 2130.6719,369.36377 L 2118.0156,369.36377 z M 2118.0156,345.37939 L 2118.0156,362.95752 L 2129.6953,362.95752 C 2133.5494,362.95755 2136.4205,362.2349 2138.3086,360.78955 C 2140.1966,359.34428 2141.1406,357.13725 2141.1406,354.16846 C 2141.1406,351.22579 2140.1966,349.02528 2138.3086,347.56689 C 2136.4205,346.10861 2133.5494,345.37945 2129.6953,345.37939 L 2118.0156,345.37939 z M 2110.125,338.89502 L 2130.2813,338.89502 C 2136.2968,338.89508 2140.9323,340.14508 2144.1875,342.64502 C 2147.4427,345.14507 2149.0703,348.69976 2149.0703,353.30908 C 2149.0703,356.87683 2148.2369,359.71537 2146.5703,361.82471 C 2144.9036,363.93412 2142.4557,365.24922 2139.2266,365.77002 C 2143.1067,366.60338 2146.121,368.34166 2148.2695,370.98486 C 2150.4179,373.62812 2151.4921,376.92889 2151.4922,380.88721 C 2151.4921,386.09555 2149.7213,390.11898 2146.1797,392.95752 C 2142.638,395.79606 2137.5989,397.21533 2131.0625,397.21533 L 2110.125,397.21533 L 2110.125,338.89502 z "
     id="text10249" />
  <path
     style="font-size:12px;font-style:normal;font-weight:normal;fill:#ff0000;fill-opacity:1;stroke:none;stroke-width:1px;stroke-linecap:butt;stroke-linejoin:miter;stroke-opacity:1;font-family:Charis SIL"
     d="M 1183.4276,60.924438 L 1225.3221,60.924438 L 1225.3221,69.22522 L 1193.2909,69.22522 L 1193.2909,90.709595 L 1222.1971,90.709595 L 1222.1971,99.010376 L 1193.2909,99.010376 L 1193.2909,133.82483 L 1183.4276,133.82483 L 1183.4276,60.924438 z M 1280.0096,81.236938 L 1280.0096,89.635376 C 1277.4705,88.235682 1274.9233,87.185878 1272.368,86.485962 C 1269.8127,85.78614 1267.2329,85.436206 1264.6288,85.436157 C 1258.8019,85.436206 1254.2772,87.283534 1251.0546,90.978149 C 1247.8319,94.67285 1246.2206,99.856764 1246.2206,106.52991 C 1246.2206,113.2031 1247.8319,118.38702 1251.0546,122.08167 C 1254.2772,125.77633 1258.8019,127.62366 1264.6288,127.62366 C 1267.2329,127.62366 1269.8127,127.27373 1272.368,126.57385 C 1274.9233,125.87399 1277.4705,124.82419 1280.0096,123.42444 L 1280.0096,131.72522 C 1277.5031,132.8971 1274.9071,133.776 1272.2216,134.36194 C 1269.536,134.94787 1266.6795,135.24084 1263.6522,135.24084 C 1255.4165,135.24084 1248.8736,132.65296 1244.0233,127.47717 C 1239.173,122.3014 1236.7479,115.31899 1236.7479,106.52991 C 1236.7479,97.610673 1239.1975,90.595706 1244.0966,85.484985 C 1248.9956,80.374362 1255.7095,77.819026 1264.2382,77.81897 C 1267.0051,77.819026 1269.7069,78.103856 1272.3436,78.673462 C 1274.9803,79.243178 1277.5356,80.097669 1280.0096,81.236938 L 1280.0096,81.236938 z "
     id="text10255" />
</svg>
