<svg width="749" height="374" xmlns="http://www.w3.org/2000/svg" xmlns:xlink="http://www.w3.org/1999/xlink" overflow="hidden"><defs><clipPath id="clip0"><rect x="88" y="236" width="749" height="374"/></clipPath><clipPath id="clip1"><rect x="88" y="237" width="749" height="373"/></clipPath><clipPath id="clip2"><rect x="88" y="237" width="750" height="373"/></clipPath><clipPath id="clip3"><rect x="88" y="237" width="750" height="373"/></clipPath><clipPath id="clip4"><rect x="220" y="270" width="584" height="237"/></clipPath><clipPath id="clip5"><rect x="220" y="270" width="584" height="237"/></clipPath><clipPath id="clip6"><rect x="88" y="237" width="750" height="373"/></clipPath><clipPath id="clip7"><rect x="88" y="237" width="750" height="373"/></clipPath><clipPath id="clip8"><rect x="88" y="237" width="750" height="373"/></clipPath><clipPath id="clip9"><rect x="88" y="237" width="750" height="373"/></clipPath><clipPath id="clip10"><rect x="88" y="237" width="750" height="373"/></clipPath><clipPath id="clip11"><rect x="88" y="237" width="750" height="373"/></clipPath><clipPath id="clip12"><rect x="88" y="237" width="750" height="373"/></clipPath><clipPath id="clip13"><rect x="88" y="237" width="750" height="373"/></clipPath><clipPath id="clip14"><rect x="88" y="237" width="750" height="373"/></clipPath><clipPath id="clip15"><rect x="88" y="237" width="750" height="373"/></clipPath><clipPath id="clip16"><rect x="88" y="237" width="750" height="373"/></clipPath><clipPath id="clip17"><rect x="88" y="237" width="750" height="373"/></clipPath><clipPath id="clip18"><rect x="88" y="237" width="750" height="373"/></clipPath><clipPath id="clip19"><rect x="88" y="237" width="750" height="373"/></clipPath><clipPath id="clip20"><rect x="88" y="237" width="750" height="373"/></clipPath><clipPath id="clip21"><rect x="88" y="237" width="750" height="373"/></clipPath><clipPath id="clip22"><rect x="88" y="237" width="750" height="373"/></clipPath><clipPath id="clip23"><rect x="88" y="237" width="750" height="373"/></clipPath><clipPath id="clip24"><rect x="88" y="237" width="750" height="373"/></clipPath><clipPath id="clip25"><rect x="88" y="237" width="750" height="373"/></clipPath><clipPath id="clip26"><rect x="88" y="237" width="750" height="373"/></clipPath><clipPath id="clip27"><rect x="88" y="237" width="750" height="373"/></clipPath><clipPath id="clip28"><rect x="88" y="237" width="750" height="373"/></clipPath><clipPath id="clip29"><rect x="88" y="237" width="750" height="373"/></clipPath><clipPath id="clip30"><rect x="88" y="237" width="750" height="373"/></clipPath><clipPath id="clip31"><rect x="88" y="237" width="750" height="373"/></clipPath></defs><g clip-path="url(#clip0)" transform="translate(-88 -236)"><g clip-path="url(#clip1)"><g clip-path="url(#clip2)"><g clip-path="url(#clip3)"><path d="M0 0 746 0 746 373 0 373Z" fill="#FFFFFF" fill-rule="nonzero" fill-opacity="1" transform="matrix(1.00402 0 0 1 88 237)"/><path d="M0 0 746 0 746 373 0 373Z" stroke="#FFFFFF" stroke-width="2.67086" stroke-linecap="round" stroke-linejoin="round" stroke-miterlimit="10" stroke-opacity="1" fill="#FFFFFF" fill-rule="nonzero" fill-opacity="1" transform="matrix(1.00402 0 0 1 88 237)"/><g clip-path="url(#clip4)"><path d="M131.793 33.1556 712.844 33.1556 712.844 269.389 131.793 269.389Z" fill="#FFFFFF" fill-rule="nonzero" fill-opacity="1" transform="matrix(1.00402 0 0 1 88 237)"/></g><g clip-path="url(#clip5)"><path d="M158.203 258.659 158.203 43.8851 158.203 258.659 181.158 258.659 181.158 151.272 181.158 258.659 204.137 258.659 204.137 187.076 204.137 258.659 227.093 258.659 227.093 204.966 227.093 258.659 250.071 258.659 250.071 215.695 250.071 258.659 273.027 258.659 273.027 222.856 273.027 258.659 296.005 258.659 296.005 227.967 296.005 258.659 318.961 258.659 318.961 231.813 318.961 258.659 341.94 258.659 341.94 234.783 341.94 258.659 364.895 258.659 364.895 237.177 364.895 258.659 387.874 258.659 387.874 239.134 387.874 258.659 410.83 258.659 410.83 240.746 410.83 258.659 433.808 258.659 433.808 242.128 433.808 258.659 456.764 258.659 456.764 243.302 456.764 258.659 479.742 258.659 479.742 244.338 479.742 258.659 502.698 258.659 502.698 245.236 502.698 258.659 525.677 258.659 525.677 246.019 525.677 258.659 548.632 258.659 548.632 246.733 548.632 258.659 571.611 258.659 571.611 247.354 571.611 258.659 594.567 258.659 594.567 247.907 594.567 258.659 617.522 258.659 617.522 248.436 617.522 258.659 640.501 258.659 640.501 248.897 640.501 258.659 663.456 258.659 663.456 249.311 663.456 258.659 686.435 258.659 686.435 249.703 686.435 258.659" stroke="#000000" stroke-width="2.46364" stroke-linecap="butt" stroke-linejoin="round" stroke-miterlimit="10" stroke-opacity="1" fill="none" fill-rule="nonzero" transform="matrix(1.00402 0 0 1 88 237)"/></g><g clip-path="url(#clip6)"><path d="M131.793 269.389 131.793 33.1556" stroke="#000000" stroke-width="2.46364" stroke-linecap="butt" stroke-linejoin="round" stroke-miterlimit="10" stroke-opacity="1" fill="none" fill-rule="nonzero" transform="matrix(1.00402 0 0 1 88 237)"/></g><g clip-path="url(#clip7)"><text fill="#000000" fill-opacity="1" font-family="Arial,Arial_MSFontService,sans-serif" font-style="normal" font-variant="normal" font-weight="400" font-stretch="normal" font-size="12" text-anchor="start" direction="ltr" writing-mode="lr-tb" unicode-bidi="normal" text-decoration="none" transform="matrix(2.31173 0 0 2.30247 153.884 506)">0.00</text></g><g clip-path="url(#clip8)"><text fill="#000000" fill-opacity="1" font-family="Arial,Arial_MSFontService,sans-serif" font-style="normal" font-variant="normal" font-weight="400" font-stretch="normal" font-size="12" text-anchor="start" direction="ltr" writing-mode="lr-tb" unicode-bidi="normal" text-decoration="none" transform="matrix(2.31173 0 0 2.30247 153.884 452)">0.25</text></g><g clip-path="url(#clip9)"><text fill="#000000" fill-opacity="1" font-family="Arial,Arial_MSFontService,sans-serif" font-style="normal" font-variant="normal" font-weight="400" font-stretch="normal" font-size="12" text-anchor="start" direction="ltr" writing-mode="lr-tb" unicode-bidi="normal" text-decoration="none" transform="matrix(2.31173 0 0 2.30247 153.884 398)">0.50</text></g><g clip-path="url(#clip10)"><text fill="#000000" fill-opacity="1" font-family="Arial,Arial_MSFontService,sans-serif" font-style="normal" font-variant="normal" font-weight="400" font-stretch="normal" font-size="12" text-anchor="start" direction="ltr" writing-mode="lr-tb" unicode-bidi="normal" text-decoration="none" transform="matrix(2.31173 0 0 2.30247 153.884 344)">0.75</text></g><g clip-path="url(#clip11)"><text fill="#000000" fill-opacity="1" font-family="Arial,Arial_MSFontService,sans-serif" font-style="normal" font-variant="normal" font-weight="400" font-stretch="normal" font-size="12" text-anchor="start" direction="ltr" writing-mode="lr-tb" unicode-bidi="normal" text-decoration="none" transform="matrix(2.31173 0 0 2.30247 153.884 291)">1.00</text></g><g clip-path="url(#clip12)"><path d="M124.909 258.659 131.793 258.659" stroke="#333333" stroke-width="2.67086" stroke-linecap="butt" stroke-linejoin="round" stroke-miterlimit="10" stroke-opacity="1" fill="none" fill-rule="nonzero" transform="matrix(1.00402 0 0 1 88 237)"/></g><g clip-path="url(#clip13)"><path d="M124.909 204.966 131.793 204.966" stroke="#333333" stroke-width="2.67086" stroke-linecap="butt" stroke-linejoin="round" stroke-miterlimit="10" stroke-opacity="1" fill="none" fill-rule="nonzero" transform="matrix(1.00402 0 0 1 88 237)"/></g><g clip-path="url(#clip14)"><path d="M124.909 151.272 131.793 151.272" stroke="#333333" stroke-width="2.67086" stroke-linecap="butt" stroke-linejoin="round" stroke-miterlimit="10" stroke-opacity="1" fill="none" fill-rule="nonzero" transform="matrix(1.00402 0 0 1 88 237)"/></g><g clip-path="url(#clip15)"><path d="M124.909 97.5787 131.793 97.5787" stroke="#333333" stroke-width="2.67086" stroke-linecap="butt" stroke-linejoin="round" stroke-miterlimit="10" stroke-opacity="1" fill="none" fill-rule="nonzero" transform="matrix(1.00402 0 0 1 88 237)"/></g><g clip-path="url(#clip16)"><path d="M124.909 43.8851 131.793 43.8851" stroke="#333333" stroke-width="2.67086" stroke-linecap="butt" stroke-linejoin="round" stroke-miterlimit="10" stroke-opacity="1" fill="none" fill-rule="nonzero" transform="matrix(1.00402 0 0 1 88 237)"/></g><g clip-path="url(#clip17)"><path d="M131.793 269.389 712.844 269.389" stroke="#000000" stroke-width="2.46364" stroke-linecap="butt" stroke-linejoin="round" stroke-miterlimit="10" stroke-opacity="1" fill="none" fill-rule="nonzero" transform="matrix(1.00402 0 0 1 88 237)"/></g><g clip-path="url(#clip18)"><path d="M135.247 276.273 135.247 269.389" stroke="#333333" stroke-width="2.67086" stroke-linecap="butt" stroke-linejoin="round" stroke-miterlimit="10" stroke-opacity="1" fill="none" fill-rule="nonzero" transform="matrix(1.00402 0 0 1 88 237)"/></g><g clip-path="url(#clip19)"><path d="M250.071 276.273 250.071 269.389" stroke="#333333" stroke-width="2.67086" stroke-linecap="butt" stroke-linejoin="round" stroke-miterlimit="10" stroke-opacity="1" fill="none" fill-rule="nonzero" transform="matrix(1.00402 0 0 1 88 237)"/></g><g clip-path="url(#clip20)"><path d="M364.895 276.273 364.895 269.389" stroke="#333333" stroke-width="2.67086" stroke-linecap="butt" stroke-linejoin="round" stroke-miterlimit="10" stroke-opacity="1" fill="none" fill-rule="nonzero" transform="matrix(1.00402 0 0 1 88 237)"/></g><g clip-path="url(#clip21)"><path d="M479.742 276.273 479.742 269.389" stroke="#333333" stroke-width="2.67086" stroke-linecap="butt" stroke-linejoin="round" stroke-miterlimit="10" stroke-opacity="1" fill="none" fill-rule="nonzero" transform="matrix(1.00402 0 0 1 88 237)"/></g><g clip-path="url(#clip22)"><path d="M594.567 276.273 594.567 269.389" stroke="#333333" stroke-width="2.67086" stroke-linecap="butt" stroke-linejoin="round" stroke-miterlimit="10" stroke-opacity="1" fill="none" fill-rule="nonzero" transform="matrix(1.00402 0 0 1 88 237)"/></g><g clip-path="url(#clip23)"><path d="M709.391 276.273 709.391 269.389" stroke="#333333" stroke-width="2.67086" stroke-linecap="butt" stroke-linejoin="round" stroke-miterlimit="10" stroke-opacity="1" fill="none" fill-rule="nonzero" transform="matrix(1.00402 0 0 1 88 237)"/></g><g clip-path="url(#clip24)"><text fill="#000000" fill-opacity="1" font-family="Arial,Arial_MSFontService,sans-serif" font-style="normal" font-variant="normal" font-weight="400" font-stretch="normal" font-size="12" text-anchor="start" direction="ltr" writing-mode="lr-tb" unicode-bidi="normal" text-decoration="none" transform="matrix(2.31173 0 0 2.30247 216.07 539)">0</text></g><g clip-path="url(#clip25)"><text fill="#000000" fill-opacity="1" font-family="Arial,Arial_MSFontService,sans-serif" font-style="normal" font-variant="normal" font-weight="400" font-stretch="normal" font-size="12" text-anchor="start" direction="ltr" writing-mode="lr-tb" unicode-bidi="normal" text-decoration="none" transform="matrix(2.31173 0 0 2.30247 308.215 539)">1000</text></g><g clip-path="url(#clip26)"><text fill="#000000" fill-opacity="1" font-family="Arial,Arial_MSFontService,sans-serif" font-style="normal" font-variant="normal" font-weight="400" font-stretch="normal" font-size="12" text-anchor="start" direction="ltr" writing-mode="lr-tb" unicode-bidi="normal" text-decoration="none" transform="matrix(2.31173 0 0 2.30247 423.524 539)">2000</text></g><g clip-path="url(#clip27)"><text fill="#000000" fill-opacity="1" font-family="Arial,Arial_MSFontService,sans-serif" font-style="normal" font-variant="normal" font-weight="400" font-stretch="normal" font-size="12" text-anchor="start" direction="ltr" writing-mode="lr-tb" unicode-bidi="normal" text-decoration="none" transform="matrix(2.31173 0 0 2.30247 538.81 539)">3000</text></g><g clip-path="url(#clip28)"><text fill="#000000" fill-opacity="1" font-family="Arial,Arial_MSFontService,sans-serif" font-style="normal" font-variant="normal" font-weight="400" font-stretch="normal" font-size="12" text-anchor="start" direction="ltr" writing-mode="lr-tb" unicode-bidi="normal" text-decoration="none" transform="matrix(2.31173 0 0 2.30247 654.096 539)">4000</text></g><g clip-path="url(#clip29)"><text fill="#000000" fill-opacity="1" font-family="Arial,Arial_MSFontService,sans-serif" font-style="normal" font-variant="normal" font-weight="400" font-stretch="normal" font-size="12" text-anchor="start" direction="ltr" writing-mode="lr-tb" unicode-bidi="normal" text-decoration="none" transform="matrix(2.31173 0 0 2.30247 769.405 539)">5000</text></g><g clip-path="url(#clip30)"><text fill="#000000" fill-opacity="1" font-family="Arial,Arial_MSFontService,sans-serif" font-style="normal" font-variant="normal" font-weight="400" font-stretch="normal" font-size="12" text-anchor="start" direction="ltr" writing-mode="lr-tb" unicode-bidi="normal" text-decoration="none" transform="matrix(2.31173 0 0 2.30247 416.45 571)">Frequency (Hz)</text></g><g clip-path="url(#clip31)"><text fill="#000000" fill-opacity="1" font-family="Arial,Arial_MSFontService,sans-serif" font-style="normal" font-variant="normal" font-weight="400" font-stretch="normal" font-size="12" text-anchor="start" direction="ltr" writing-mode="lr-tb" unicode-bidi="normal" text-decoration="none" transform="matrix(1.41552e-16 -2.30247 2.31173 1.40985e-16 141.147 450)">Amplitude</text></g></g></g></g></g></svg>