<svg width="505" height="317" xmlns="http://www.w3.org/2000/svg" xmlns:xlink="http://www.w3.org/1999/xlink" overflow="hidden"><defs><clipPath id="clip0"><rect x="88" y="229" width="505" height="317"/></clipPath><clipPath id="clip1"><rect x="88" y="230" width="505" height="316"/></clipPath><clipPath id="clip2"><rect x="88" y="230" width="505" height="316"/></clipPath><clipPath id="clip3"><rect x="88" y="230" width="505" height="316"/></clipPath><clipPath id="clip4"><rect x="173" y="240" width="410" height="242"/></clipPath><clipPath id="clip5"><rect x="173" y="240" width="410" height="242"/></clipPath><clipPath id="clip6"><rect x="88" y="230" width="505" height="316"/></clipPath><clipPath id="clip7"><rect x="88" y="230" width="505" height="316"/></clipPath><clipPath id="clip8"><rect x="88" y="230" width="505" height="316"/></clipPath><clipPath id="clip9"><rect x="88" y="230" width="505" height="316"/></clipPath><clipPath id="clip10"><rect x="88" y="230" width="505" height="316"/></clipPath><clipPath id="clip11"><rect x="88" y="230" width="505" height="316"/></clipPath><clipPath id="clip12"><rect x="88" y="230" width="505" height="316"/></clipPath><clipPath id="clip13"><rect x="88" y="230" width="505" height="316"/></clipPath><clipPath id="clip14"><rect x="88" y="230" width="505" height="316"/></clipPath><clipPath id="clip15"><rect x="88" y="230" width="505" height="316"/></clipPath><clipPath id="clip16"><rect x="88" y="230" width="505" height="316"/></clipPath><clipPath id="clip17"><rect x="88" y="230" width="505" height="316"/></clipPath><clipPath id="clip18"><rect x="88" y="230" width="505" height="316"/></clipPath><clipPath id="clip19"><rect x="88" y="230" width="505" height="316"/></clipPath><clipPath id="clip20"><rect x="88" y="230" width="505" height="316"/></clipPath><clipPath id="clip21"><rect x="88" y="230" width="505" height="316"/></clipPath><clipPath id="clip22"><rect x="88" y="230" width="505" height="316"/></clipPath><clipPath id="clip23"><rect x="88" y="230" width="505" height="316"/></clipPath><clipPath id="clip24"><rect x="88" y="230" width="505" height="316"/></clipPath><clipPath id="clip25"><rect x="88" y="230" width="505" height="316"/></clipPath><clipPath id="clip26"><rect x="88" y="230" width="505" height="316"/></clipPath><clipPath id="clip27"><rect x="88" y="230" width="505" height="316"/></clipPath></defs><g clip-path="url(#clip0)" transform="translate(-88 -229)"><g clip-path="url(#clip1)"><g clip-path="url(#clip2)"><g clip-path="url(#clip3)"><path d="M0 0 505 0 505 315.625 0 315.625Z" fill="#FFFFFF" fill-rule="nonzero" fill-opacity="1" transform="matrix(1 0 0 1.00119 88 230)"/><path d="M0 0 505 0 505 315.625 0 315.625Z" stroke="#FFFFFF" stroke-width="2.03403" stroke-linecap="round" stroke-linejoin="round" stroke-miterlimit="10" stroke-opacity="1" fill="#FFFFFF" fill-rule="nonzero" fill-opacity="1" transform="matrix(1 0 0 1.00119 88 230)"/><g clip-path="url(#clip4)"><path d="M85.6045 10.4858 494.532 10.4858 494.532 251.501 85.6045 251.501Z" fill="#FFFFFF" fill-rule="nonzero" fill-opacity="1" transform="matrix(1 0 0 1.00119 88 230)"/></g><g clip-path="url(#clip5)"><path d="M104.191 240.541 104.191 21.445 104.191 240.541 115.115 240.541 115.115 130.984 115.115 240.541 126.057 240.541 126.057 167.509 126.057 240.541 136.981 240.541 136.981 185.763 136.981 240.541 147.923 240.541 147.923 196.722 147.923 240.541 158.847 240.541 158.847 204.016 158.847 240.541 169.789 240.541 169.789 209.242 169.789 240.541 180.73 240.541 180.73 213.152 180.73 240.541 191.655 240.541 191.655 216.186 191.655 240.541 202.596 240.541 202.596 218.623 202.596 240.541 213.52 240.541 213.52 220.622 213.52 240.541 224.462 240.541 224.462 222.27 224.462 240.541 235.386 240.541 235.386 223.673 235.386 240.541 246.328 240.541 246.328 224.883 246.328 240.541 257.252 240.541 257.252 225.935 257.252 240.541 268.194 240.541 268.194 226.847 268.194 240.541 279.118 240.541 279.118 227.653 279.118 240.541 290.059 240.541 290.059 228.355 290.059 240.541 301.001 240.541 301.001 229.003 301.001 240.541 311.925 240.541 311.925 229.582 311.925 240.541 322.867 240.541 322.867 230.108 322.867 240.541 333.791 240.541 333.791 230.582 333.791 240.541 344.733 240.541 344.733 231.002 344.733 240.541 355.657 240.541 355.657 231.406 355.657 240.541 366.598 240.541 366.598 231.774 366.598 240.541 377.523 240.541 377.523 232.107 377.523 240.541 388.464 240.541 388.464 232.423 388.464 240.541 399.388 240.541 399.388 232.703 399.388 240.541 410.33 240.541 410.33 232.984 410.33 240.541 421.254 240.541 421.254 233.229 421.254 240.541 432.196 240.541 432.196 233.475 432.196 240.541 443.138 240.541 443.138 233.685 443.138 240.541 454.062 240.541 454.062 233.896 454.062 240.541 465.003 240.541 465.003 234.089 465.003 240.541 475.927 240.541 475.927 234.281 475.927 240.541" stroke="#000000" stroke-width="1.87622" stroke-linecap="butt" stroke-linejoin="round" stroke-miterlimit="10" stroke-opacity="1" fill="none" fill-rule="nonzero" transform="matrix(1 0 0 1.00119 88 230)"/></g><g clip-path="url(#clip6)"><path d="M85.6045 251.483 85.6045 10.4858" stroke="#000000" stroke-width="1.87622" stroke-linecap="butt" stroke-linejoin="round" stroke-miterlimit="10" stroke-opacity="1" fill="none" fill-rule="nonzero" transform="matrix(1 0 0 1.00119 88 230)"/></g><g clip-path="url(#clip7)"><text fill="#000000" fill-opacity="1" font-family="Arial,Arial_MSFontService,sans-serif" font-style="normal" font-variant="normal" font-weight="400" font-stretch="normal" font-size="12" text-anchor="start" direction="ltr" writing-mode="lr-tb" unicode-bidi="normal" text-decoration="none" transform="matrix(1.75347 0 0 1.75556 123.21 478)">0.00</text></g><g clip-path="url(#clip8)"><text fill="#000000" fill-opacity="1" font-family="Arial,Arial_MSFontService,sans-serif" font-style="normal" font-variant="normal" font-weight="400" font-stretch="normal" font-size="12" text-anchor="start" direction="ltr" writing-mode="lr-tb" unicode-bidi="normal" text-decoration="none" transform="matrix(1.75347 0 0 1.75556 123.21 424)">0.25</text></g><g clip-path="url(#clip9)"><text fill="#000000" fill-opacity="1" font-family="Arial,Arial_MSFontService,sans-serif" font-style="normal" font-variant="normal" font-weight="400" font-stretch="normal" font-size="12" text-anchor="start" direction="ltr" writing-mode="lr-tb" unicode-bidi="normal" text-decoration="none" transform="matrix(1.75347 0 0 1.75556 123.21 369)">0.50</text></g><g clip-path="url(#clip10)"><text fill="#000000" fill-opacity="1" font-family="Arial,Arial_MSFontService,sans-serif" font-style="normal" font-variant="normal" font-weight="400" font-stretch="normal" font-size="12" text-anchor="start" direction="ltr" writing-mode="lr-tb" unicode-bidi="normal" text-decoration="none" transform="matrix(1.75347 0 0 1.75556 123.21 314)">0.75</text></g><g clip-path="url(#clip11)"><text fill="#000000" fill-opacity="1" font-family="Arial,Arial_MSFontService,sans-serif" font-style="normal" font-variant="normal" font-weight="400" font-stretch="normal" font-size="12" text-anchor="start" direction="ltr" writing-mode="lr-tb" unicode-bidi="normal" text-decoration="none" transform="matrix(1.75347 0 0 1.75556 123.21 259)">1.00</text></g><g clip-path="url(#clip12)"><path d="M80.3616 240.541 85.6045 240.541" stroke="#333333" stroke-width="2.03403" stroke-linecap="butt" stroke-linejoin="round" stroke-miterlimit="10" stroke-opacity="1" fill="none" fill-rule="nonzero" transform="matrix(1 0 0 1.00119 88 230)"/></g><g clip-path="url(#clip13)"><path d="M80.3616 185.763 85.6045 185.763" stroke="#333333" stroke-width="2.03403" stroke-linecap="butt" stroke-linejoin="round" stroke-miterlimit="10" stroke-opacity="1" fill="none" fill-rule="nonzero" transform="matrix(1 0 0 1.00119 88 230)"/></g><g clip-path="url(#clip14)"><path d="M80.3616 130.984 85.6045 130.984" stroke="#333333" stroke-width="2.03403" stroke-linecap="butt" stroke-linejoin="round" stroke-miterlimit="10" stroke-opacity="1" fill="none" fill-rule="nonzero" transform="matrix(1 0 0 1.00119 88 230)"/></g><g clip-path="url(#clip15)"><path d="M80.3616 76.2059 85.6045 76.2059" stroke="#333333" stroke-width="2.03403" stroke-linecap="butt" stroke-linejoin="round" stroke-miterlimit="10" stroke-opacity="1" fill="none" fill-rule="nonzero" transform="matrix(1 0 0 1.00119 88 230)"/></g><g clip-path="url(#clip16)"><path d="M80.3616 21.445 85.6045 21.445" stroke="#333333" stroke-width="2.03403" stroke-linecap="butt" stroke-linejoin="round" stroke-miterlimit="10" stroke-opacity="1" fill="none" fill-rule="nonzero" transform="matrix(1 0 0 1.00119 88 230)"/></g><g clip-path="url(#clip17)"><path d="M85.6045 251.483 494.514 251.483" stroke="#000000" stroke-width="1.87622" stroke-linecap="butt" stroke-linejoin="round" stroke-miterlimit="10" stroke-opacity="1" fill="none" fill-rule="nonzero" transform="matrix(1 0 0 1.00119 88 230)"/></g><g clip-path="url(#clip18)"><path d="M93.2496 256.726 93.2496 251.483" stroke="#333333" stroke-width="2.03403" stroke-linecap="butt" stroke-linejoin="round" stroke-miterlimit="10" stroke-opacity="1" fill="none" fill-rule="nonzero" transform="matrix(1 0 0 1.00119 88 230)"/></g><g clip-path="url(#clip19)"><path d="M202.596 256.726 202.596 251.483" stroke="#333333" stroke-width="2.03403" stroke-linecap="butt" stroke-linejoin="round" stroke-miterlimit="10" stroke-opacity="1" fill="none" fill-rule="nonzero" transform="matrix(1 0 0 1.00119 88 230)"/></g><g clip-path="url(#clip20)"><path d="M311.925 256.726 311.925 251.483" stroke="#333333" stroke-width="2.03403" stroke-linecap="butt" stroke-linejoin="round" stroke-miterlimit="10" stroke-opacity="1" fill="none" fill-rule="nonzero" transform="matrix(1 0 0 1.00119 88 230)"/></g><g clip-path="url(#clip21)"><path d="M421.254 256.726 421.254 251.483" stroke="#333333" stroke-width="2.03403" stroke-linecap="butt" stroke-linejoin="round" stroke-miterlimit="10" stroke-opacity="1" fill="none" fill-rule="nonzero" transform="matrix(1 0 0 1.00119 88 230)"/></g><g clip-path="url(#clip22)"><text fill="#000000" fill-opacity="1" font-family="Arial,Arial_MSFontService,sans-serif" font-style="normal" font-variant="normal" font-weight="400" font-stretch="normal" font-size="12" text-anchor="start" direction="ltr" writing-mode="lr-tb" unicode-bidi="normal" text-decoration="none" transform="matrix(1.75347 0 0 1.75556 175.393 506)">0</text></g><g clip-path="url(#clip23)"><text fill="#000000" fill-opacity="1" font-family="Arial,Arial_MSFontService,sans-serif" font-style="normal" font-variant="normal" font-weight="400" font-stretch="normal" font-size="12" text-anchor="start" direction="ltr" writing-mode="lr-tb" unicode-bidi="normal" text-decoration="none" transform="matrix(1.75347 0 0 1.75556 267.187 506)">2000</text></g><g clip-path="url(#clip24)"><text fill="#000000" fill-opacity="1" font-family="Arial,Arial_MSFontService,sans-serif" font-style="normal" font-variant="normal" font-weight="400" font-stretch="normal" font-size="12" text-anchor="start" direction="ltr" writing-mode="lr-tb" unicode-bidi="normal" text-decoration="none" transform="matrix(1.75347 0 0 1.75556 376.516 506)">4000</text></g><g clip-path="url(#clip25)"><text fill="#000000" fill-opacity="1" font-family="Arial,Arial_MSFontService,sans-serif" font-style="normal" font-variant="normal" font-weight="400" font-stretch="normal" font-size="12" text-anchor="start" direction="ltr" writing-mode="lr-tb" unicode-bidi="normal" text-decoration="none" transform="matrix(1.75347 0 0 1.75556 485.863 506)">6000</text></g><g clip-path="url(#clip26)"><text fill="#000000" fill-opacity="1" font-family="Arial,Arial_MSFontService,sans-serif" font-style="normal" font-variant="normal" font-weight="400" font-stretch="normal" font-size="12" text-anchor="start" direction="ltr" writing-mode="lr-tb" unicode-bidi="normal" text-decoration="none" transform="matrix(1.75347 0 0 1.75556 305.571 531)">Frequency (Hz)</text></g><g clip-path="url(#clip27)"><text fill="#000000" fill-opacity="1" font-family="Arial,Arial_MSFontService,sans-serif" font-style="normal" font-variant="normal" font-weight="400" font-stretch="normal" font-size="12" text-anchor="start" direction="ltr" writing-mode="lr-tb" unicode-bidi="normal" text-decoration="none" transform="matrix(1.07369e-16 -1.75556 1.75347 1.07497e-16 113.548 408)">Amplitude</text></g></g></g></g></g></svg>