<svg width="505" height="317" xmlns="http://www.w3.org/2000/svg" xmlns:xlink="http://www.w3.org/1999/xlink" overflow="hidden"><defs><clipPath id="clip0"><rect x="640" y="229" width="505" height="317"/></clipPath><clipPath id="clip1"><rect x="640" y="230" width="505" height="316"/></clipPath><clipPath id="clip2"><rect x="640" y="230" width="505" height="316"/></clipPath><clipPath id="clip3"><rect x="640" y="230" width="505" height="316"/></clipPath><clipPath id="clip4"><rect x="725" y="240" width="410" height="242"/></clipPath><clipPath id="clip5"><rect x="725" y="240" width="410" height="242"/></clipPath><clipPath id="clip6"><rect x="640" y="230" width="505" height="316"/></clipPath><clipPath id="clip7"><rect x="640" y="230" width="505" height="316"/></clipPath><clipPath id="clip8"><rect x="640" y="230" width="505" height="316"/></clipPath><clipPath id="clip9"><rect x="640" y="230" width="505" height="316"/></clipPath><clipPath id="clip10"><rect x="640" y="230" width="505" height="316"/></clipPath><clipPath id="clip11"><rect x="640" y="230" width="505" height="316"/></clipPath><clipPath id="clip12"><rect x="640" y="230" width="505" height="316"/></clipPath><clipPath id="clip13"><rect x="640" y="230" width="505" height="316"/></clipPath><clipPath id="clip14"><rect x="640" y="230" width="505" height="316"/></clipPath><clipPath id="clip15"><rect x="640" y="230" width="505" height="316"/></clipPath><clipPath id="clip16"><rect x="640" y="230" width="505" height="316"/></clipPath><clipPath id="clip17"><rect x="640" y="230" width="505" height="316"/></clipPath><clipPath id="clip18"><rect x="640" y="230" width="505" height="316"/></clipPath><clipPath id="clip19"><rect x="640" y="230" width="505" height="316"/></clipPath><clipPath id="clip20"><rect x="640" y="230" width="505" height="316"/></clipPath><clipPath id="clip21"><rect x="640" y="230" width="505" height="316"/></clipPath><clipPath id="clip22"><rect x="640" y="230" width="505" height="316"/></clipPath><clipPath id="clip23"><rect x="640" y="230" width="505" height="316"/></clipPath><clipPath id="clip24"><rect x="640" y="230" width="505" height="316"/></clipPath><clipPath id="clip25"><rect x="640" y="230" width="505" height="316"/></clipPath></defs><g clip-path="url(#clip0)" transform="translate(-640 -229)"><g clip-path="url(#clip1)"><g clip-path="url(#clip2)"><g clip-path="url(#clip3)"><path d="M0 0 505 0 505 315.625 0 315.625Z" fill="#FFFFFF" fill-rule="nonzero" fill-opacity="1" transform="matrix(1 0 0 1.00119 640 230)"/><path d="M0 0 505 0 505 315.625 0 315.625Z" stroke="#FFFFFF" stroke-width="2.03403" stroke-linecap="round" stroke-linejoin="round" stroke-miterlimit="10" stroke-opacity="1" fill="#FFFFFF" fill-rule="nonzero" fill-opacity="1" transform="matrix(1 0 0 1.00119 640 230)"/><g clip-path="url(#clip4)"><path d="M85.6045 10.4858 494.532 10.4858 494.532 251.501 85.6045 251.501Z" fill="#FFFFFF" fill-rule="nonzero" fill-opacity="1" transform="matrix(1 0 0 1.00119 640 230)"/></g><g clip-path="url(#clip5)"><path d="M104.191 240.541 104.191 21.445 104.191 240.541 130.739 240.541 130.739 185.763 130.739 240.541 157.286 240.541 157.286 185.044 157.286 240.541 183.852 240.541 183.852 226.847 183.852 240.541 210.399 240.541 210.399 211.223 210.399 240.541 236.947 240.541 236.947 234.439 236.947 240.541 263.512 240.541 263.512 221.288 263.512 240.541 290.059 240.541 290.059 237.105 290.059 240.541 316.607 240.541 316.607 226.478 316.607 240.541 343.172 240.541 343.172 238.349 343.172 240.541 369.72 240.541 369.72 229.6 369.72 240.541 396.267 240.541 396.267 239.016 396.267 240.541 422.832 240.541 422.832 231.651 422.832 240.541 449.38 240.541 449.38 239.419 449.38 240.541 475.927 240.541 475.927 233.107 475.927 240.541" stroke="#000000" stroke-width="1.87622" stroke-linecap="butt" stroke-linejoin="round" stroke-miterlimit="10" stroke-opacity="1" fill="none" fill-rule="nonzero" transform="matrix(1 0 0 1.00119 640 230)"/></g><g clip-path="url(#clip6)"><path d="M85.6045 251.483 85.6045 10.4858" stroke="#000000" stroke-width="1.87622" stroke-linecap="butt" stroke-linejoin="round" stroke-miterlimit="10" stroke-opacity="1" fill="none" fill-rule="nonzero" transform="matrix(1 0 0 1.00119 640 230)"/></g><g clip-path="url(#clip7)"><text fill="#000000" fill-opacity="1" font-family="Arial,Arial_MSFontService,sans-serif" font-style="normal" font-variant="normal" font-weight="400" font-stretch="normal" font-size="12" text-anchor="start" direction="ltr" writing-mode="lr-tb" unicode-bidi="normal" text-decoration="none" transform="matrix(1.75347 0 0 1.75556 675.21 478)">0.00</text></g><g clip-path="url(#clip8)"><text fill="#000000" fill-opacity="1" font-family="Arial,Arial_MSFontService,sans-serif" font-style="normal" font-variant="normal" font-weight="400" font-stretch="normal" font-size="12" text-anchor="start" direction="ltr" writing-mode="lr-tb" unicode-bidi="normal" text-decoration="none" transform="matrix(1.75347 0 0 1.75556 675.21 424)">0.25</text></g><g clip-path="url(#clip9)"><text fill="#000000" fill-opacity="1" font-family="Arial,Arial_MSFontService,sans-serif" font-style="normal" font-variant="normal" font-weight="400" font-stretch="normal" font-size="12" text-anchor="start" direction="ltr" writing-mode="lr-tb" unicode-bidi="normal" text-decoration="none" transform="matrix(1.75347 0 0 1.75556 675.21 369)">0.50</text></g><g clip-path="url(#clip10)"><text fill="#000000" fill-opacity="1" font-family="Arial,Arial_MSFontService,sans-serif" font-style="normal" font-variant="normal" font-weight="400" font-stretch="normal" font-size="12" text-anchor="start" direction="ltr" writing-mode="lr-tb" unicode-bidi="normal" text-decoration="none" transform="matrix(1.75347 0 0 1.75556 675.21 314)">0.75</text></g><g clip-path="url(#clip11)"><text fill="#000000" fill-opacity="1" font-family="Arial,Arial_MSFontService,sans-serif" font-style="normal" font-variant="normal" font-weight="400" font-stretch="normal" font-size="12" text-anchor="start" direction="ltr" writing-mode="lr-tb" unicode-bidi="normal" text-decoration="none" transform="matrix(1.75347 0 0 1.75556 675.21 259)">1.00</text></g><g clip-path="url(#clip12)"><path d="M80.3616 240.541 85.6045 240.541" stroke="#333333" stroke-width="2.03403" stroke-linecap="butt" stroke-linejoin="round" stroke-miterlimit="10" stroke-opacity="1" fill="none" fill-rule="nonzero" transform="matrix(1 0 0 1.00119 640 230)"/></g><g clip-path="url(#clip13)"><path d="M80.3616 185.763 85.6045 185.763" stroke="#333333" stroke-width="2.03403" stroke-linecap="butt" stroke-linejoin="round" stroke-miterlimit="10" stroke-opacity="1" fill="none" fill-rule="nonzero" transform="matrix(1 0 0 1.00119 640 230)"/></g><g clip-path="url(#clip14)"><path d="M80.3616 130.984 85.6045 130.984" stroke="#333333" stroke-width="2.03403" stroke-linecap="butt" stroke-linejoin="round" stroke-miterlimit="10" stroke-opacity="1" fill="none" fill-rule="nonzero" transform="matrix(1 0 0 1.00119 640 230)"/></g><g clip-path="url(#clip15)"><path d="M80.3616 76.2059 85.6045 76.2059" stroke="#333333" stroke-width="2.03403" stroke-linecap="butt" stroke-linejoin="round" stroke-miterlimit="10" stroke-opacity="1" fill="none" fill-rule="nonzero" transform="matrix(1 0 0 1.00119 640 230)"/></g><g clip-path="url(#clip16)"><path d="M80.3616 21.445 85.6045 21.445" stroke="#333333" stroke-width="2.03403" stroke-linecap="butt" stroke-linejoin="round" stroke-miterlimit="10" stroke-opacity="1" fill="none" fill-rule="nonzero" transform="matrix(1 0 0 1.00119 640 230)"/></g><g clip-path="url(#clip17)"><path d="M85.6045 251.483 494.514 251.483" stroke="#000000" stroke-width="1.87622" stroke-linecap="butt" stroke-linejoin="round" stroke-miterlimit="10" stroke-opacity="1" fill="none" fill-rule="nonzero" transform="matrix(1 0 0 1.00119 640 230)"/></g><g clip-path="url(#clip18)"><path d="M210.399 256.726 210.399 251.483" stroke="#333333" stroke-width="2.03403" stroke-linecap="butt" stroke-linejoin="round" stroke-miterlimit="10" stroke-opacity="1" fill="none" fill-rule="nonzero" transform="matrix(1 0 0 1.00119 640 230)"/></g><g clip-path="url(#clip19)"><path d="M343.172 256.726 343.172 251.483" stroke="#333333" stroke-width="2.03403" stroke-linecap="butt" stroke-linejoin="round" stroke-miterlimit="10" stroke-opacity="1" fill="none" fill-rule="nonzero" transform="matrix(1 0 0 1.00119 640 230)"/></g><g clip-path="url(#clip20)"><path d="M475.927 256.726 475.927 251.483" stroke="#333333" stroke-width="2.03403" stroke-linecap="butt" stroke-linejoin="round" stroke-miterlimit="10" stroke-opacity="1" fill="none" fill-rule="nonzero" transform="matrix(1 0 0 1.00119 640 230)"/></g><g clip-path="url(#clip21)"><text fill="#000000" fill-opacity="1" font-family="Arial,Arial_MSFontService,sans-serif" font-style="normal" font-variant="normal" font-weight="400" font-stretch="normal" font-size="12" text-anchor="start" direction="ltr" writing-mode="lr-tb" unicode-bidi="normal" text-decoration="none" transform="matrix(1.75347 0 0 1.75556 826.99 506)">1000</text></g><g clip-path="url(#clip22)"><text fill="#000000" fill-opacity="1" font-family="Arial,Arial_MSFontService,sans-serif" font-style="normal" font-variant="normal" font-weight="400" font-stretch="normal" font-size="12" text-anchor="start" direction="ltr" writing-mode="lr-tb" unicode-bidi="normal" text-decoration="none" transform="matrix(1.75347 0 0 1.75556 959.763 506)">2000</text></g><g clip-path="url(#clip23)"><text fill="#000000" fill-opacity="1" font-family="Arial,Arial_MSFontService,sans-serif" font-style="normal" font-variant="normal" font-weight="400" font-stretch="normal" font-size="12" text-anchor="start" direction="ltr" writing-mode="lr-tb" unicode-bidi="normal" text-decoration="none" transform="matrix(1.75347 0 0 1.75556 1092.52 506)">3000</text></g><g clip-path="url(#clip24)"><text fill="#000000" fill-opacity="1" font-family="Arial,Arial_MSFontService,sans-serif" font-style="normal" font-variant="normal" font-weight="400" font-stretch="normal" font-size="12" text-anchor="start" direction="ltr" writing-mode="lr-tb" unicode-bidi="normal" text-decoration="none" transform="matrix(1.75347 0 0 1.75556 857.571 531)">Frequency (Hz)</text></g><g clip-path="url(#clip25)"><text fill="#000000" fill-opacity="1" font-family="Arial,Arial_MSFontService,sans-serif" font-style="normal" font-variant="normal" font-weight="400" font-stretch="normal" font-size="12" text-anchor="start" direction="ltr" writing-mode="lr-tb" unicode-bidi="normal" text-decoration="none" transform="matrix(1.07369e-16 -1.75556 1.75347 1.07497e-16 665.548 408)">Amplitude</text></g></g></g></g></g></svg>