<svg width="390" height="414" xmlns="http://www.w3.org/2000/svg" xmlns:xlink="http://www.w3.org/1999/xlink" overflow="hidden"><defs><clipPath id="clip0"><rect x="640" y="152" width="390" height="414"/></clipPath><clipPath id="clip1"><rect x="640" y="153" width="390" height="413"/></clipPath><clipPath id="clip2"><rect x="640" y="153" width="390" height="413"/></clipPath><clipPath id="clip3"><rect x="640" y="153" width="390" height="413"/></clipPath></defs><g clip-path="url(#clip0)" transform="translate(-640 -152)"><g clip-path="url(#clip1)"><g clip-path="url(#clip2)"><g clip-path="url(#clip3)"><path d="M151.937 402.026 165.19 402.299C163.958 397.152 161.391 388.743 164.233 384.675 166.938 382.299 171.934 375.124 164.233 371.696 160.028 366.124 167.01 362.711 167.648 359.4 169.12 354.616 166.521 352.093 164.916 349.017 163.808 338.246 165.588 326.721 172.84 313.769 190.063 289.988 187.075 288.125 181.923 293.202 178.529 296.544 175.358 303.747 172.293 306.665 168.872 308.753 167.126 305.487 170.328 303.219 173.399 301.043 178.196 296.104 182.95 281.936 181.273 281.639 193.561 259.201 177.196 232.207 173.62 222.925 163.754 216.829 152.651 213.919 130.613 212.737 116.58 219.111 97.5175 226.965 92.7441 230.679 90.9002 232.918 86.6155 232.901 73.47 232.851 84.0854 243.017 85.9495 244.229 103.052 250.13 85.4921 257.749 81.3044 257.344 79.8312 251.771 75.1673 243.983 72.8338 244.229L71.1944 261.853 67.0958 250.104C66.1508 248.7 66.5001 247.835 65.3458 246.986 55.2302 239.545 42.3106 249.269 51.1112 255.159 60.1618 261.159 58.0305 264.484 60.8112 271.143 63.5751 284.951 40.0486 302.072 61.3577 316.638 95.8028 321.048 156.485 298.506 156.582 330.3 157.163 340.033 148.421 351.017 148.051 359.263 147.33 375.395 153.933 387.233 151.937 402.026Z" stroke="#000000" stroke-width="1.03175" stroke-linecap="butt" stroke-linejoin="miter" stroke-miterlimit="4" stroke-opacity="1" fill="#E6E6E6" fill-rule="nonzero" fill-opacity="1" transform="matrix(1 0 0 1.00073 640 153)"/><path d="M207.542 402.026 298.532 402.573C295.13 371.04 291.437 339.669 299.898 307.484 303.34 300.708 307.936 291.375 312.195 287.584 319.067 281.467 325.656 274.224 329.681 263.492 339.948 239.791 345.024 201.081 344.447 163.147 343.936 129.552 338.689 91.6222 315.199 57.7417 295.976 30.126 246.042 1.10551 164.096 11.8371 70.8456 39.7735 60.5872 76.2127 57.5323 85.3391 55.5223 104.789 64.8496 115.157 61.9042 130.697 51.3908 152.218 34.4214 172.697 18.1856 191.357 18.5095 195.303 13.6948 201.453 28.2955 199.281L45.5097 174.689C53.0636 164.197 69.6189 145.013 115.733 150.917 140.283 147.406 150.342 154.385 160.271 168.131 164.308 177.442 169.007 183.303 178.851 187.531 195.968 217.326 197.875 248.142 202.35 279.34Z" stroke="#000000" stroke-width="1.03175" stroke-linecap="butt" stroke-linejoin="miter" stroke-miterlimit="4" stroke-opacity="1" fill="#ECECEC" fill-rule="nonzero" fill-opacity="1" transform="matrix(1 0 0 1.00073 640 153)"/><path d="M173.383 191.616C167.817 191.48 164.698 187.841 137.046 195.743 137.046 195.743 56.6541 193.33 55.5612 192.784 43.9889 191.596 34.0274 200.512 45.2524 204.481 48.1034 208.899 51.8159 211.794 50.1434 224.216 39.1417 237.606 49.9767 242.462 60.1374 236.982 61.3233 217.323 67.7893 215.039 67.0907 236.369 73.027 234.062 72.9995 219.833 75.0119 217.86 82.4445 215.478 88.6482 213.373 94.8363 205.302 115.199 202.066 139.916 203.469 162.677 204.004 172.017 204.859 173.507 211.386 177.005 215.811 192.892 233.499 177.617 190.964 173.383 191.616Z" stroke="#000000" stroke-width="1.03175" stroke-linecap="butt" stroke-linejoin="miter" stroke-miterlimit="4" stroke-opacity="1" fill="#ECECEC" fill-rule="nonzero" fill-opacity="1" transform="matrix(1 0 0 1.00073 640 153)"/><path d="M192.787 402.573 202.022 402.807C203.857 402.853 202.691 371.7 202.527 363.453 202.145 344.118 199.396 321.494 200.984 311.31 198.215 301.277 193.812 297.68 188.142 311.583 185.677 316.123 185.577 324.064 188.006 327.745 196.672 340.882 194.178 346.195 194.7 354.482 195.096 370.853 195.299 386.424 192.787 402.573Z" stroke="#000000" stroke-width="1.03175" stroke-linecap="butt" stroke-linejoin="miter" stroke-miterlimit="4" stroke-opacity="1" fill="#ECECEC" fill-rule="nonzero" fill-opacity="1" transform="matrix(1 0 0 1.00073 640 153)"/><path d="M-369.077 196.791C-369.077 198.461-374.348 199.815-380.85 199.815-387.352 199.815-392.623 198.461-392.623 196.791-392.623 195.121-387.352 193.767-380.85 193.767-374.348 193.767-369.077 195.121-369.077 196.791Z" stroke="#000000" stroke-width="1.39266" stroke-linecap="butt" stroke-linejoin="miter" stroke-miterlimit="4" stroke-opacity="1" fill="none" fill-rule="nonzero" transform="matrix(0.939345 -0.342972 0.280813 1.14728 1120.93 132.009)"/><path d="M189.918 352.569 194.836 352.569C195.361 340.993 192.582 334.922 189.918 328.661Z" stroke="#000000" stroke-width="1.03175" stroke-linecap="butt" stroke-linejoin="miter" stroke-miterlimit="4" stroke-opacity="1" fill="#000000" fill-rule="nonzero" fill-opacity="1" transform="matrix(1 0 0 1.00073 640 153)"/><path d="M167.786 353.662 171.748 354.756C170.928 345.959 165.062 336.433 171.065 326.338L169.014 323.059 164.507 338.088C164.029 347.99 166.379 349.41 167.786 353.662Z" stroke="#000000" stroke-width="1.03175" stroke-linecap="butt" stroke-linejoin="miter" stroke-miterlimit="4" stroke-opacity="1" fill="#000000" fill-rule="nonzero" fill-opacity="1" transform="matrix(1 0 0 1.00073 640 153)"/></g></g></g></g></svg>