<?xml version="1.0" encoding="utf-8"?>
<!-- Generator: Adobe Illustrator 18.0.0, SVG Export Plug-In . SVG Version: 6.00 Build 0)  -->
<!DOCTYPE svg PUBLIC "-//W3C//DTD SVG 1.1//EN" "http://www.w3.org/Graphics/SVG/1.1/DTD/svg11.dtd">
<svg version="1.1" xmlns="http://www.w3.org/2000/svg" xmlns:xlink="http://www.w3.org/1999/xlink" x="0px" y="0px"
	 viewBox="0 0 1024 1024" enable-background="new 0 0 1024 1024" xml:space="preserve">
<g id="art">
	<path fill="#FFFFFF" d="M587.1,679.6c-33.3-58.2-37.5-184.5-37.8-199.4l0.8-277.7c0.1-26.2-20.9-48.2-46.7-49
		c-13.1-0.4-25.6,4.4-35,13.5c-9.4,9.1-14.5,21.3-14.5,34.4l-0.2,127.5c-2.3-3.4-5.7-6.1-9.9-7.4c-9.8-3.1-20.1,2.3-23.2,12
		c-2.1,6.8-0.1,13.8,4.5,18.5l0,9.2c0,2.5,1,4.8,2.6,6.5l-1,437.6l0,0l0,0c0,0.7,0,1.4,0.1,2.1c0.1,1.6,0.4,3.2,0.9,4.7c0,0,0,0,0,0
		c0.7,2.2,1.6,4.2,2.9,6c2.5,3.7,6.1,6.6,10.6,8.3c4.4,1.7,9.1,1.9,13.4,0.9c1.1-0.3,2.1-0.6,3.2-1c3.1-1.3,5.9-3.3,8.3-5.9
		c0.7-0.8,1.3-1.6,1.9-2.5c0.5-0.7,1-1.5,1.4-2.3c0.1-0.1,0.1-0.2,0.2-0.3c1.5-3.1,2.3-6.4,2.3-9.9c0,0,0,0,0,0c0,0,0,0,0,0
		l0.2-88.1c7.4,18,34.4,32.2,67.2,33.7c39.3,1.8,72-15.2,73.1-38C612.8,700.1,603,687.9,587.1,679.6z M450.4,808.8
		c-0.4,0.1-0.9,0.2-1.3,0.2c-0.5,0-1-0.1-1.3-0.3c-0.3-0.1-0.6-0.3-1-0.6c-0.2-0.2-0.4-0.3-0.6-0.6c-0.4-0.5-0.7-1.2-0.7-2.2
		l0.6-265.5l7.3,0L453,805.5c0,0,0,0,0,0c0,0,0,0,0,0c0,0.9-0.5,1.7-1.1,2.3c-0.2,0.2-0.3,0.4-0.5,0.5
		C451,808.5,450.7,808.7,450.4,808.8z M453.4,526.1l-7.3,0l0.1-42.9l7.2,0L453.4,526.1z M530.3,515.4
		c-3.4,44.7-12.5,119.5-35.6,161.6c-11,5.2-19.1,12.4-22.7,20.8l0.3-186.7l58,0.2L530.3,515.4z M531,285.6l-58.2-0.2l0.1-48.9
		l58.3,0.2L531,285.6z M530.9,305.6l-0.5,186.9l-58-0.2l0.3-186.9L530.9,305.6z M481.7,180.8c5.7-5.5,13.3-8.4,21.2-8.1
		c15.5,0.5,28.4,13.8,28.3,29.8l0,15.4l-58.3-0.2l0-16.2C472.9,193.6,476.1,186.3,481.7,180.8z M453.5,469.4l-7.2,0l0.2-99.5
		c3.1-1.6,5.2-4.8,5.2-8.5l0-9.6c0.7-0.7,1.3-1.5,1.9-2.4L453.5,469.4z"/>
</g>
</svg>
