<?xml version="1.0" encoding="utf-8"?>
<!-- Generator: Adobe Illustrator 18.0.0, SVG Export Plug-In . SVG Version: 6.00 Build 0)  -->
<!DOCTYPE svg PUBLIC "-//W3C//DTD SVG 1.1//EN" "http://www.w3.org/Graphics/SVG/1.1/DTD/svg11.dtd">
<svg version="1.1" xmlns="http://www.w3.org/2000/svg" xmlns:xlink="http://www.w3.org/1999/xlink" x="0px" y="0px" viewBox="0 0 1024 1024" enable-background="new 0 0 1024 1024" xml:space="preserve">
<g class="white">
	<g>
		<g>
			<path fill="#BBBBBB" d="M609,704c-56.5-33-59.9-225.2-59.9-225.2l-16.8,0c0,0-4.4,192.2-61.1,224.9c-3.9,2.2-2.2,8.2,2.3,8.2
				l133.3,0.4C611.2,712.2,612.9,706.2,609,704z"/>
		</g>
		<g>
			<path fill="#BBBBBB" d="M426.7,805.4l1-453.5l18.8,0.1l-1,453.5c0,2.1,1.5,3,2.3,3.3c0.9,0.3,2.7,0.6,4.1-1
				c0.6-0.6,1.1-1.5,1.1-2.3c0,0,0,0,0,0l0.8-604c0-13.1,5.1-25.3,14.5-34.4c9.4-9.1,21.9-13.9,35-13.5c25.8,0.8,46.7,22.8,46.7,49
				l-1.3,445.5l-18.8-0.1l1.3-445.5c0-16-12.8-29.3-28.3-29.8c-7.9-0.2-15.5,2.6-21.2,8.1c-5.7,5.5-8.8,12.8-8.9,20.7l-1.1,604
				c0,0,0,0,0,0c0,5.5-2.1,10.9-5.8,15c-6.3,7.1-16,9.5-24.9,6.1C432.2,823.2,426.6,814.9,426.7,805.4z"/>
		</g>
		<g>

				<rect x="492.7" y="463.6" transform="matrix(-2.821724e-03 1 -1 -2.821724e-03 1005.3812 1.1061)" fill="#BBBBBB" width="18.8" height="76.5"/>
		</g>
		<g>

				<rect x="492.7" y="257.3" transform="matrix(-2.821724e-03 1 -1 -2.821724e-03 799.6703 -206.3536)" fill="#BBBBBB" width="20.1" height="76.5"/>
		</g>
		<g>

				<rect x="493.5" y="188.9" transform="matrix(-2.821724e-03 1 -1 -2.821724e-03 731.5173 -275.086)" fill="#BBBBBB" width="18.8" height="76.5"/>
		</g>
		<g>
			<g>
				<path fill="#BBBBBB" d="M425.1,361.3l0.1-26.8l26.6,0.1l-0.1,26.8c0,5.3-4.3,9.6-9.6,9.6l-7.4,0
					C429.4,370.9,425.1,366.6,425.1,361.3z"/>
			</g>
		</g>
		<g>

				<rect x="442.7" y="462.5" transform="matrix(-2.821724e-03 1 -1 -2.821724e-03 927.1425 28.1067)" fill="#BBBBBB" width="13.8" height="27.6"/>
		</g>
		<g>

				<rect x="443.1" y="519.2" transform="matrix(-2.821724e-03 1 -1 -2.821724e-03 984.3065 84.5315)" fill="#BBBBBB" width="13.8" height="27.6"/>
		</g>

			<ellipse transform="matrix(-0.3003 0.9538 -0.9538 -0.3003 893.3328 22.9474)" fill="#BBBBBB" cx="438.2" cy="339.1" rx="18.4" ry="18.5"/>
			<ellipse transform="matrix(-4.672118e-02 0.9989 -0.9989 -4.672118e-02 1275.4087 202.421)" fill="#BBBBBB" cx="541.1" cy="709.8" rx="41.4" ry="71.2"/>
			<ellipse transform="matrix(-4.672118e-02 0.9989 -0.9989 -4.672118e-02 1275.9637 204.7908)" fill="#828282" cx="540.3" cy="711.2" rx="32.2" ry="55.5"/>
	</g>
	<g>
		<g>
			<path fill="#BBBBBB" d="M466,820.5c3.7-4.1,5.8-9.5,5.8-15c0,0,0,0,0,0l0.6-328.9c-6.3-2-12.6-4-18.9-6L453,805.5c0,0,0,0,0,0
				c0,0.9-0.5,1.7-1.1,2.3c-1.4,1.6-3.3,1.3-4.1,1c-0.8-0.3-2.3-1.2-2.3-3.3l1-453.5l-18.8-0.1l-1,453.5c0,9.5,5.6,17.8,14.5,21.2
				C450,830,459.7,827.6,466,820.5z"/>
		</g>
		<g>
			<g>
				<path fill="#BBBBBB" d="M425.1,361.3l0.1-26.8l26.6,0.1l-0.1,26.8c0,5.3-4.3,9.6-9.6,9.6l-7.4,0
					C429.4,370.9,425.1,366.6,425.1,361.3z"/>
			</g>
		</g>
		<g>
			<rect x="443.1" y="519.2" transform="matrix(-2.821724e-03 1 -1 -2.821724e-03 984.3065 84.5315)" fill="#BBBBBB" width="13.8" height="27.6"/>
		</g>
			<ellipse transform="matrix(-0.3003 0.9538 -0.9538 -0.3003 893.3328 22.9474)" fill="#BBBBBB" cx="438.2" cy="339.1" rx="18.4" ry="18.5"/>
	</g>
</g>
</svg>
