<?xml version="1.0" encoding="utf-8"?>
<!-- Generator: Adobe Illustrator 18.0.0, SVG Export Plug-In . SVG Version: 6.00 Build 0)  -->
<!DOCTYPE svg PUBLIC "-//W3C//DTD SVG 1.1//EN" "http://www.w3.org/Graphics/SVG/1.1/DTD/svg11.dtd">
<svg version="1.1" xmlns="http://www.w3.org/2000/svg" xmlns:xlink="http://www.w3.org/1999/xlink" x="0px" y="0px"
	 viewBox="0 0 1024 1024" enable-background="new 0 0 1024 1024" xml:space="preserve">
<g id="art">
	<path fill="#FFFFFF" d="M816.6,600.7c-50,0-71.9-58.2-91.3-109.5c-14.9-39.6-31.8-84.4-55-84.4c-23.2,0-40.1,44.8-55,84.4
		c-19.4,51.3-41.3,109.5-91.3,109.5s-71.9-58.2-91.3-109.5c-14.9-39.6-31.8-84.4-55-84.4c-23.2,0-40.1,44.8-55,84.4
		c-19.4,51.3-41.3,109.5-91.3,109.5c-10.7,0-19.4-8.7-19.4-19.4s8.7-19.4,19.4-19.4c23.2,0,40.1-44.8,55-84.4
		c19.4-51.3,41.3-109.5,91.3-109.5s71.9,58.2,91.3,109.5c14.9,39.6,31.8,84.4,55,84.4c23.2,0,40.1-44.8,55-84.4
		c19.4-51.3,41.3-109.5,91.3-109.5c50,0,71.9,58.2,91.3,109.5c14.9,39.6,31.8,84.4,55,84.4c10.7,0,19.4,8.7,19.4,19.4
		S827.3,600.7,816.6,600.7z"/>
</g>
</svg>
