<?xml version="1.0" encoding="utf-8"?>
<!-- Generator: Adobe Illustrator 18.0.0, SVG Export Plug-In . SVG Version: 6.00 Build 0)  -->
<!DOCTYPE svg PUBLIC "-//W3C//DTD SVG 1.1//EN" "http://www.w3.org/Graphics/SVG/1.1/DTD/svg11.dtd">
<svg version="1.1" xmlns="http://www.w3.org/2000/svg" xmlns:xlink="http://www.w3.org/1999/xlink" x="0px" y="0px"
	 viewBox="0 0 1024 1024" enable-background="new 0 0 1024 1024" xml:space="preserve">
<g id="art">
	<g>
		<path opacity="0.5" fill="#F5F5F5" d="M269.3,371v279.8h501.5V371H269.3z M341.9,627h-56.7V525.4h56.7V627z"/>
		<g opacity="0.75">
			<rect x="269.3" y="468.6" fill="#F5F5F5" width="501.5" height="56.7"/>
		</g>
		<g opacity="0.25">
			<rect x="285.1" y="371" fill="#F5F5F5" width="472.4" height="97.7"/>
		</g>
		<g opacity="0.5">
			<rect x="285.1" y="371" fill="#F5F5F5" width="472.4" height="14.5"/>
		</g>
		<g>
			<g>
				<circle fill="#F5F5F5" cx="330.2" cy="441.4" r="8.4"/>
			</g>
			<g>
				<circle fill="#F5F5F5" cx="302.5" cy="441.4" r="8.4"/>
			</g>
			<g>
				<circle fill="#F5F5F5" cx="316.3" cy="412.3" r="8.4"/>
			</g>
		</g>
		<g>
			<rect x="347.1" y="385.5" fill="#F5F5F5" width="5.3" height="83.1"/>
		</g>
		<g>
			<rect x="434.2" y="385.5" fill="#F5F5F5" width="4" height="83.1"/>
		</g>
		<g>
			<rect x="535.8" y="385.5" fill="#F5F5F5" width="5.3" height="83.1"/>
		</g>
		<g>
			<rect x="634.8" y="385.5" fill="#F5F5F5" width="5.3" height="83.1"/>
		</g>
		<g>
			<rect x="725.9" y="385.5" fill="#F5F5F5" width="4" height="83.1"/>
		</g>
		<g>
			<rect x="341.8" y="409.2" fill="#F5F5F5" width="15.8" height="6.6"/>
		</g>
		<g>
			<rect x="357.7" y="430.3" fill="#F5F5F5" width="5.3" height="14.5"/>
		</g>
		<g>
			<rect x="740.4" y="430.3" fill="#F5F5F5" width="6.6" height="14.5"/>
		</g>
		<g>
			<g>
				<rect x="467.2" y="443.5" fill="#F5F5F5" width="14.5" height="6.6"/>
			</g>
			<g>
				<rect x="467.2" y="433" fill="#F5F5F5" width="14.5" height="6.6"/>
			</g>
			<g>
				<rect x="467.2" y="422.4" fill="#F5F5F5" width="14.5" height="6.6"/>
			</g>
			<g>
				<rect x="467.2" y="411.9" fill="#F5F5F5" width="14.5" height="6.6"/>
			</g>
			<g>
				<rect x="467.2" y="401.3" fill="#F5F5F5" width="14.5" height="6.6"/>
			</g>
		</g>
		<g>
			<g>
				<rect x="516" y="434.3" fill="#F5F5F5" width="6.6" height="15.8"/>
			</g>
			<g>
				<rect x="512.1" y="422.4" fill="#F5F5F5" width="14.5" height="6.6"/>
			</g>
			<g>
				<rect x="512.1" y="411.9" fill="#F5F5F5" width="14.5" height="6.6"/>
			</g>
			<g>
				<rect x="512.1" y="401.3" fill="#F5F5F5" width="14.5" height="6.6"/>
			</g>
		</g>
		<g>
			<g>
				<circle fill="#F5F5F5" cx="384.3" cy="444.6" r="5.1"/>
			</g>
			<g>
				<circle fill="#F5F5F5" cx="384.3" cy="427.5" r="5.1"/>
			</g>
			<g>
				<circle fill="#F5F5F5" cx="384.3" cy="410.4" r="5.1"/>
			</g>
		</g>
		<g>
			<g>
				<circle fill="#F5F5F5" cx="402.8" cy="444.6" r="5.1"/>
			</g>
			<g>
				<circle fill="#F5F5F5" cx="402.8" cy="427.5" r="5.1"/>
			</g>
		</g>
		<g>
			<g>
				<circle fill="#F5F5F5" cx="496.5" cy="444.6" r="5.1"/>
			</g>
			<g>
				<circle fill="#F5F5F5" cx="496.5" cy="427.5" r="5.1"/>
			</g>
		</g>
		<g>
			<g>
				<circle fill="#F5F5F5" cx="421.3" cy="444.6" r="5.1"/>
			</g>
			<g>
				<circle fill="#F5F5F5" cx="421.3" cy="427.5" r="5.1"/>
			</g>
			<g>
				<circle fill="#F5F5F5" cx="421.3" cy="410.4" r="5.1"/>
			</g>
		</g>
		<g>
			<g>
				<circle fill="#F5F5F5" cx="452.9" cy="444.6" r="5.1"/>
			</g>
			<g>
				<circle fill="#F5F5F5" cx="452.9" cy="427.5" r="5.1"/>
			</g>
			<g>
				<circle fill="#F5F5F5" cx="452.9" cy="410.4" r="5.1"/>
			</g>
		</g>
		<g>
			<g>
				<circle fill="#F5F5F5" cx="660.1" cy="444.6" r="5.1"/>
			</g>
			<g>
				<path fill="#F5F5F5" d="M694.4,450.7c-3.4,0-6.1-2.8-6.1-6.1s2.8-6.1,6.1-6.1s6.1,2.8,6.1,6.1S697.8,450.7,694.4,450.7z
					 M694.4,440.4c-2.3,0-4.1,1.9-4.1,4.1s1.9,4.1,4.1,4.1s4.1-1.9,4.1-4.1S696.7,440.4,694.4,440.4z"/>
			</g>
			<g>
				<circle fill="#F5F5F5" cx="660.1" cy="427.5" r="5.1"/>
			</g>
			<g>
				<circle fill="#F5F5F5" cx="660.1" cy="410.4" r="5.1"/>
			</g>
		</g>
		<g>
			<g>
				<g>
					<circle fill="#F5F5F5" cx="565.1" cy="444.6" r="5.1"/>
				</g>
				<g>
					<circle fill="#F5F5F5" cx="565.1" cy="427.5" r="5.1"/>
				</g>
				<g>
					<circle fill="#F5F5F5" cx="565.1" cy="410.4" r="5.1"/>
				</g>
			</g>
			<g>
				<g>
					<circle fill="#F5F5F5" cx="590.8" cy="444.6" r="5.1"/>
				</g>
				<g>
					<circle fill="#F5F5F5" cx="590.8" cy="427.5" r="5.1"/>
				</g>
				<g>
					<circle fill="#F5F5F5" cx="590.8" cy="410.4" r="5.1"/>
				</g>
			</g>
			<g>
				<g>
					<circle fill="#F5F5F5" cx="616.6" cy="444.6" r="5.1"/>
				</g>
				<g>
					<circle fill="#F5F5F5" cx="616.6" cy="427.5" r="5.1"/>
				</g>
				<g>
					<circle fill="#F5F5F5" cx="616.6" cy="410.4" r="5.1"/>
				</g>
			</g>
		</g>
		<g>
			<rect x="686.3" y="401.3" fill="#F5F5F5" width="15.8" height="6.6"/>
		</g>
		<g>
			<rect x="688.9" y="487.1" fill="#F5F5F5" width="51.5" height="23.8"/>
		</g>
		<rect x="285.1" y="525.4" opacity="0.75" fill="#F5F5F5" width="56.7" height="101.6"/>
		<polygon fill="#F5F5F5" points="737.7,525.4 737.7,603.2 724.5,603.2 724.5,525.4 715.3,525.4 715.3,603.2 702.1,603.2
			702.1,525.4 682.3,525.4 682.3,603.2 669.1,603.2 669.1,525.4 659.9,525.4 659.9,603.2 646.7,603.2 646.7,525.4 637.4,525.4
			637.4,603.2 624.3,603.2 624.3,525.4 605.8,525.4 605.8,603.2 592.6,603.2 592.6,525.4 583.3,525.4 583.3,603.2 570.1,603.2
			570.1,525.4 551.7,525.4 551.7,603.2 538.5,603.2 538.5,525.4 529.2,525.4 529.2,603.2 516,603.2 516,525.4 506.8,525.4
			506.8,603.2 493.6,603.2 493.6,525.4 475.1,525.4 475.1,603.2 461.9,603.2 461.9,525.4 452.7,525.4 452.7,603.2 439.5,603.2
			439.5,525.4 419.7,525.4 419.7,603.2 406.5,603.2 406.5,525.4 397.3,525.4 397.3,603.2 384.1,603.2 384.1,525.4 374.8,525.4
			374.8,603.2 361.6,603.2 361.6,525.4 341.9,525.4 341.9,650.7 757.5,650.7 757.5,525.4 		"/>
	</g>
</g>
</svg>
