<?xml version="1.0" encoding="utf-8"?>
<!-- Generator: Adobe Illustrator 18.0.0, SVG Export Plug-In . SVG Version: 6.00 Build 0)  -->
<!DOCTYPE svg PUBLIC "-//W3C//DTD SVG 1.1//EN" "http://www.w3.org/Graphics/SVG/1.1/DTD/svg11.dtd">
<svg version="1.1" xmlns="http://www.w3.org/2000/svg" xmlns:xlink="http://www.w3.org/1999/xlink" x="0px" y="0px"
	 viewBox="0 0 1024 1024" enable-background="new 0 0 1024 1024" xml:space="preserve">
<g id="art">
	<g opacity="0.8">
		<rect x="488.3" y="224.3" fill="#FFFFFF" width="0" height="25.7"/>
		<path fill="#FFFFFF" d="M488.3,134.3v90.1l0,0v0c7,0.1,12.3,5.8,12.3,12.9c0,7-5.4,12.7-12.3,12.9v0l0,0v637.2h51.5V134.3H488.3z
			 M513.3,826.8c-7.1,0-12.9-5.8-12.9-12.9c0-7.1,5.8-12.9,12.9-12.9s12.9,5.8,12.9,12.9C526.2,821,520.4,826.8,513.3,826.8z
			 M513.3,596.9c-7.1,0-12.9-5.8-12.9-12.9c0-7.1,5.8-12.9,12.9-12.9s12.9,5.8,12.9,12.9C526.2,591.1,520.4,596.9,513.3,596.9z
			 M513.3,543.4c-7.1,0-12.9-5.8-12.9-12.9c0-7.1,5.8-12.9,12.9-12.9s12.9,5.8,12.9,12.9C526.2,537.6,520.4,543.4,513.3,543.4z
			 M513.3,489.9c-7.1,0-12.9-5.8-12.9-12.9c0-7.1,5.8-12.9,12.9-12.9s12.9,5.8,12.9,12.9C526.2,484.1,520.4,489.9,513.3,489.9z
			 M513.3,436.4c-7.1,0-12.9-5.8-12.9-12.9s5.8-12.9,12.9-12.9s12.9,5.8,12.9,12.9S520.4,436.4,513.3,436.4z M513.3,382.9
			c-7.1,0-12.9-5.8-12.9-12.9s5.8-12.9,12.9-12.9s12.9,5.8,12.9,12.9S520.4,382.9,513.3,382.9z M513.3,329.4
			c-7.1,0-12.9-5.8-12.9-12.9c0-7.1,5.8-12.9,12.9-12.9s12.9,5.8,12.9,12.9C526.2,323.6,520.4,329.4,513.3,329.4z"/>
	</g>
	<path fill="#FFFFFF" d="M538.8,269c2.7,0,5,2.2,5,5l0,0c0,2.7-2.2,5-5,5h-49.5c-2.7,0-5-2.2-5-5l0,0c0-2.7,2.2-5,5-5H538.8z"/>
	<path fill="#FFFFFF" d="M538.8,760.5c2.7,0,5,2.2,5,5l0,0c0,2.7-2.2,5-5,5h-49.5c-2.7,0-5-2.2-5-5l0,0c0-2.7,2.2-5,5-5H538.8z"/>
	<path fill="#FFFFFF" d="M543.8,136.8v12.7c0,1.4-1.2,2.6-2.6,2.6h-54.3c-1.4,0-2.6-1.2-2.6-2.6v-12.7c0-1.4,1.2-2.6,2.6-2.6h54.3
		C542.6,134.3,543.8,135.4,543.8,136.8z"/>
	<path fill="#FFFFFF" d="M543.8,872.1v12.7c0,1.4-1.2,2.6-2.6,2.6h-54.3c-1.4,0-2.6-1.2-2.6-2.6v-12.7c0-1.4,1.2-2.6,2.6-2.6h54.3
		C542.6,869.5,543.8,870.6,543.8,872.1z"/>
</g>
</svg>
