<?xml version="1.0" encoding="utf-8"?>
<!-- Generator: Adobe Illustrator 18.0.0, SVG Export Plug-In . SVG Version: 6.00 Build 0)  -->
<!DOCTYPE svg PUBLIC "-//W3C//DTD SVG 1.1//EN" "http://www.w3.org/Graphics/SVG/1.1/DTD/svg11.dtd">
<svg version="1.1" xmlns="http://www.w3.org/2000/svg" xmlns:xlink="http://www.w3.org/1999/xlink" x="0px" y="0px"
	 viewBox="0 0 1024 1024" enable-background="new 0 0 1024 1024" xml:space="preserve">
<g id="Layer_2">
</g>
<g id="art">
	<g opacity="0.75">
		<g>
			<rect x="279.8" y="510.8" fill="#555555" width="4" height="97.7"/>
		</g>
		<g>
			<g>
				<rect x="269.3" y="371" fill="#2D2D2D" width="501.5" height="279.8"/>
			</g>
			<g>
				<rect x="341.8" y="525.4" fill="#F5F5F5" width="415.7" height="125.4"/>
			</g>
			<g>
				<g>
					<g>
						<rect x="361.6" y="525.4" width="13.2" height="77.9"/>
					</g>
					<g>
						<rect x="384.1" y="525.4" width="13.2" height="77.9"/>
					</g>
					<g>
						<rect x="406.5" y="525.4" width="13.2" height="77.9"/>
					</g>
				</g>
				<g>
					<g>
						<rect x="439.5" y="525.4" width="13.2" height="77.9"/>
					</g>
					<g>
						<rect x="461.9" y="525.4" width="13.2" height="77.9"/>
					</g>
				</g>
				<g>
					<g>
						<rect x="493.6" y="525.4" width="13.2" height="77.9"/>
					</g>
					<g>
						<rect x="516" y="525.4" width="13.2" height="77.9"/>
					</g>
					<g>
						<rect x="538.5" y="525.4" width="13.2" height="77.9"/>
					</g>
				</g>
				<g>
					<g>
						<rect x="570.1" y="525.4" width="13.2" height="77.9"/>
					</g>
					<g>
						<rect x="592.6" y="525.4" width="13.2" height="77.9"/>
					</g>
				</g>
				<g>
					<g>
						<rect x="624.3" y="525.4" width="13.2" height="77.9"/>
					</g>
					<g>
						<rect x="646.7" y="525.4" width="13.2" height="77.9"/>
					</g>
					<g>
						<rect x="669.1" y="525.4" width="13.2" height="77.9"/>
					</g>
				</g>
				<g>
					<g>
						<rect x="702.1" y="525.4" width="13.2" height="77.9"/>
					</g>
					<g>
						<rect x="724.5" y="525.4" width="13.2" height="77.9"/>
					</g>
				</g>
			</g>
			<g>
				<rect x="285.1" y="525.4" width="56.7" height="101.6"/>
			</g>
			<g>
				<rect x="269.3" y="468.6" fill="#555555" width="501.5" height="56.7"/>
			</g>
			<g>
				<rect x="285.1" y="371" width="472.4" height="97.7"/>
			</g>
			<g>
				<rect x="285.1" y="371" fill="#484848" width="472.4" height="14.5"/>
			</g>
			<g>
				<g>
					<circle fill="#8A8A8A" cx="330.2" cy="441.4" r="8.4"/>
				</g>
				<g>
					<circle fill="#8A8A8A" cx="302.5" cy="441.4" r="8.4"/>
				</g>
				<g>
					<circle fill="#8A8A8A" cx="316.3" cy="412.3" r="8.4"/>
				</g>
			</g>
			<g>
				<rect x="347.1" y="385.5" fill="#555555" width="5.3" height="83.1"/>
			</g>
			<g>
				<rect x="754.9" y="373.6" fill="#555555" width="5.3" height="95"/>
			</g>
			<g>
				<rect x="434.2" y="385.5" fill="#555555" width="4" height="83.1"/>
			</g>
			<g>
				<rect x="535.8" y="385.5" fill="#555555" width="5.3" height="83.1"/>
			</g>
			<g>
				<rect x="634.8" y="385.5" fill="#555555" width="5.3" height="83.1"/>
			</g>
			<g>
				<rect x="725.9" y="385.5" fill="#555555" width="4" height="83.1"/>
			</g>
			<g>
				<rect x="341.8" y="409.2" fill="#707070" width="15.8" height="6.6"/>
			</g>
			<g>
				<rect x="357.7" y="430.3" fill="#707070" width="5.3" height="14.5"/>
			</g>
			<g>
				<rect x="740.4" y="430.3" fill="#707070" width="6.6" height="14.5"/>
			</g>
			<g>
				<g>
					<rect x="467.2" y="443.5" fill="#515151" width="14.5" height="6.6"/>
				</g>
				<g>
					<rect x="467.2" y="433" fill="#515151" width="14.5" height="6.6"/>
				</g>
				<g>
					<rect x="467.2" y="422.4" fill="#515151" width="14.5" height="6.6"/>
				</g>
				<g>
					<rect x="467.2" y="411.9" fill="#515151" width="14.5" height="6.6"/>
				</g>
				<g>
					<rect x="467.2" y="401.3" fill="#515151" width="14.5" height="6.6"/>
				</g>
			</g>
			<g>
				<g>
					<rect x="516" y="434.3" fill="#515151" width="6.6" height="15.8"/>
				</g>
				<g>
					<rect x="512.1" y="422.4" fill="#707070" width="14.5" height="6.6"/>
				</g>
				<g>
					<rect x="512.1" y="411.9" fill="#707070" width="14.5" height="6.6"/>
				</g>
				<g>
					<rect x="512.1" y="401.3" fill="#707070" width="14.5" height="6.6"/>
				</g>
			</g>
			<g>
				<g>
					<circle fill="#8A8A8A" cx="384.3" cy="444.6" r="5.1"/>
				</g>
				<g>
					<circle fill="#8A8A8A" cx="384.3" cy="427.5" r="5.1"/>
				</g>
				<g>
					<circle fill="#8A8A8A" cx="384.3" cy="410.4" r="5.1"/>
				</g>
			</g>
			<g>
				<g>
					<circle fill="#D6D6D6" cx="402.8" cy="444.6" r="5.1"/>
				</g>
				<g>
					<circle fill="#D6D6D6" cx="402.8" cy="427.5" r="5.1"/>
				</g>
			</g>
			<g>
				<g>
					<circle fill="#D6D6D6" cx="496.5" cy="444.6" r="5.1"/>
				</g>
				<g>
					<circle fill="#D6D6D6" cx="496.5" cy="427.5" r="5.1"/>
				</g>
			</g>
			<g>
				<g>
					<circle fill="#8A8A8A" cx="421.3" cy="444.6" r="5.1"/>
				</g>
				<g>
					<circle fill="#8A8A8A" cx="421.3" cy="427.5" r="5.1"/>
				</g>
				<g>
					<circle fill="#8A8A8A" cx="421.3" cy="410.4" r="5.1"/>
				</g>
			</g>
			<g>
				<g>
					<circle fill="#8A8A8A" cx="452.9" cy="444.6" r="5.1"/>
				</g>
				<g>
					<circle fill="#8A8A8A" cx="452.9" cy="427.5" r="5.1"/>
				</g>
				<g>
					<circle fill="#8A8A8A" cx="452.9" cy="410.4" r="5.1"/>
				</g>
			</g>
			<g>
				<g>
					<circle fill="#8A8A8A" cx="660.1" cy="444.6" r="5.1"/>
				</g>
				<g>
					<path fill="#8A8A8A" d="M694.4,450.7c-3.4,0-6.1-2.8-6.1-6.1s2.8-6.1,6.1-6.1s6.1,2.8,6.1,6.1S697.8,450.7,694.4,450.7z
						 M694.4,440.4c-2.3,0-4.1,1.9-4.1,4.1s1.9,4.1,4.1,4.1s4.1-1.9,4.1-4.1S696.7,440.4,694.4,440.4z"/>
				</g>
				<g>
					<circle fill="#515151" cx="660.1" cy="427.5" r="5.1"/>
				</g>
				<g>
					<circle fill="#8A8A8A" cx="660.1" cy="410.4" r="5.1"/>
				</g>
			</g>
			<g>
				<g>
					<g>
						<circle fill="#8A8A8A" cx="565.1" cy="444.6" r="5.1"/>
					</g>
					<g>
						<circle fill="#8A8A8A" cx="565.1" cy="427.5" r="5.1"/>
					</g>
					<g>
						<circle fill="#8A8A8A" cx="565.1" cy="410.4" r="5.1"/>
					</g>
				</g>
				<g>
					<g>
						<circle fill="#8A8A8A" cx="590.8" cy="444.6" r="5.1"/>
					</g>
					<g>
						<circle fill="#8A8A8A" cx="590.8" cy="427.5" r="5.1"/>
					</g>
					<g>
						<circle fill="#8A8A8A" cx="590.8" cy="410.4" r="5.1"/>
					</g>
				</g>
				<g>
					<g>
						<circle fill="#8A8A8A" cx="616.6" cy="444.6" r="5.1"/>
					</g>
					<g>
						<circle fill="#8A8A8A" cx="616.6" cy="427.5" r="5.1"/>
					</g>
					<g>
						<circle fill="#8A8A8A" cx="616.6" cy="410.4" r="5.1"/>
					</g>
				</g>
			</g>
			<g>
				<rect x="686.3" y="401.3" fill="#515151" width="15.8" height="6.6"/>
			</g>
			<g>
				<rect x="688.9" y="487.1" fill="#2D2D2D" width="51.5" height="23.8"/>
			</g>
		</g>
	</g>
</g>
</svg>
