<?xml version="1.0" encoding="utf-8"?>
<!-- Generator: Adobe Illustrator 18.0.0, SVG Export Plug-In . SVG Version: 6.00 Build 0)  -->
<!DOCTYPE svg PUBLIC "-//W3C//DTD SVG 1.1//EN" "http://www.w3.org/Graphics/SVG/1.1/DTD/svg11.dtd">
<svg version="1.1" xmlns="http://www.w3.org/2000/svg" xmlns:xlink="http://www.w3.org/1999/xlink" x="0px" y="0px"
	 viewBox="0 0 1024 1024" enable-background="new 0 0 1024 1024" xml:space="preserve">
<g id="Layer_2">
</g>
<g id="art">
	<g>
		<rect x="488.3" y="134.3" fill="#BBBBBB" width="51.5" height="753.1"/>
		<circle cx="513.3" cy="813.9" r="12.9"/>
		<g>
			<circle cx="513.3" cy="584" r="12.9"/>
			<circle cx="513.3" cy="530.5" r="12.9"/>
			<circle cx="513.3" cy="477" r="12.9"/>
			<circle cx="513.3" cy="423.5" r="12.9"/>
			<circle cx="513.3" cy="370" r="12.9"/>
			<circle cx="513.3" cy="316.5" r="12.9"/>
		</g>
		<path d="M488,250.1c7.1,0,12.6-5.8,12.6-12.9s-5.4-12.9-12.5-12.9c0,0,0.2,0,0.2,0v25.7C488.3,250.1,487.9,250.1,488,250.1z"/>
		<path fill="#8A8A8A" d="M538.8,269c2.7,0,5,2.2,5,5l0,0c0,2.7-2.2,5-5,5h-49.5c-2.7,0-5-2.2-5-5l0,0c0-2.7,2.2-5,5-5H538.8z"/>
		<path fill="#8A8A8A" d="M538.8,760.5c2.7,0,5,2.2,5,5l0,0c0,2.7-2.2,5-5,5h-49.5c-2.7,0-5-2.2-5-5l0,0c0-2.7,2.2-5,5-5H538.8z"/>
		<path fill="#8A8A8A" d="M543.8,136.8v12.7c0,1.4-1.2,2.6-2.6,2.6h-54.3c-1.4,0-2.6-1.2-2.6-2.6v-12.7c0-1.4,1.2-2.6,2.6-2.6h54.3
			C542.6,134.3,543.8,135.4,543.8,136.8z"/>
		<path fill="#8A8A8A" d="M543.8,872.1v12.7c0,1.4-1.2,2.6-2.6,2.6h-54.3c-1.4,0-2.6-1.2-2.6-2.6v-12.7c0-1.4,1.2-2.6,2.6-2.6h54.3
			C542.6,869.5,543.8,870.6,543.8,872.1z"/>
	</g>
</g>
</svg>
